<ttFont>
          <CharString index="0">
            259 -1 158 -150 155 hstemhm
            -49 1802 hintmask 00000000
            hintmask 10100000
            29 hmoveto
            22 28 3 2 29 hvcurveto
            2 23 24 1 22 hhcurveto
            51 35 -3 -2 33 hvcurveto
            -2 32 32 -2 43 hhcurveto
            75 27 32 42 11 callsubr
            hvcurveto
            147 324 132 -104 119 -74 47 -55 rlinecurve
            -75 64 24 -29 47 hhcurveto
            28 31 21 51 42 hvcurveto
            47 58 127 86 136 110 102 -208 rcurveline
            hintmask 01100000
            17 -36 18 -33 21 -30 rrcurveto
            -1 -15 -15 0 -14 hhcurveto
            -134 -48 -26 -64 -42 42 -30 67 29 37 0 3 35 hvcurveto
            3 36 32 1 34 hhcurveto
            25 25 -1 -2 25 hvcurveto
            -2 29 28 -2 19 hhcurveto
            51 27 32 38 60 -78 24 -31 30 hvcurveto
            -36 36 -59 112 -44 86 -250 487 -40 87 -194 420 rrcurveto
            134 -62 -36 29 -64 hhcurveto
            -66 -34 -50 -122 -55 hvcurveto
            -122 -271 -337 -673 -41 -73 -46 -83 -62 -85 -64 -51 rrcurveto
            -49 -38 -32 -36 -30 vvcurveto
            hintmask 10100000
            -38 26 -25 52 vhcurveto
            492 611 rmoveto
            283 621 rlineto
            59 27 14 29 15 hhcurveto
            18 18 -41 -78 36 hvcurveto
            273 -589 -105 -83 -122 -86 -38 -41 rlinecurve
            -43 -41 -17 -10 -21 hhcurveto
            -27 -14 12 45 -43 hvcurveto
            -40 41 -141 107 -75 57 rrcurveto
            return
          </CharString>
          <CharString index="1">
            187 345 rmoveto
            -203 87 -157 254 151 109 94 109 53 vhcurveto
            -141 15 78 -62 91 hhcurveto
            73 36 35 50 31 -8 28 -39 16 hvcurveto
            -43 17 -33 39 194 vvcurveto
            544 -48 callgsubr
            -23 -7 -8 -29 vhcurveto
            -20 -5 -30 -7 -45 -4 rrcurveto
            -69 -6 -29 -32 -44 vvcurveto
            -54 36 -28 53 17 15 6 3 14 vhcurveto
            2 8 6 1 10 hhcurveto
            17 10 -7 -51 hvcurveto
            -332 vlineto
            -172 -43 -118 -145 -125 hhcurveto
            -142 -49 90 175 hvcurveto
            529 vlineto
            56 -20 40 -70 -24 -24 -7 -8 -29 vhcurveto
            -21 -5 -35 -7 -44 -4 rrcurveto
            -69 -6 -27 -32 -44 vvcurveto
            -54 36 -28 53 14 12 3 3 12 vhcurveto
            3 12 12 3 12 hhcurveto
            15 11 -7 -51 hvcurveto
            return
          </CharString>
          <CharString index="2">
            87 -15 158 1251 158 hstem
            181 186 828 185 vstem
            181 591 rmoveto
            -384 264 -222 338 320 277 245 357 vhcurveto
            807 34 vlineto
            93 32 35 48 39 -28 39 -78 -25 -20 -1 -2 -33 hvcurveto
            -2 -28 -36 -2 -44 hhcurveto
            -48 -6 2 2 -31 hvcurveto
            2 -32 -9 -33 callsubr
            -58 -19 -33 -48 -48 25 -29 callsubr
            84 -800 hlineto
            -304 -188 -147 -220 -234 -186 143 308 vhcurveto
            800 63 vlineto
            93 12 35 48 39 -8 39 -78 -25 -10 -1 -2 -33 hvcurveto
            -2 -28 -16 -2 -44 hhcurveto
            -48 -16 -59 callgsubr
            54 hlineto
            return
          </CharString>
          <CharString index="3">
            219 228 rmoveto
            76 -104 38 -57 8 -82 rrcurveto
            -55 5 30 -28 57 hhcurveto
            44 26 26 64 25 hvcurveto
            43 -5 46 -3 29 1 120 6 109 9 112 55 163 79 148 175 -5 224 -6 259 -164 160 -444 37 rrcurveto
            -222 24 -68 51 107 vvcurveto
            63 73 80 61 32 vhcurveto
            35 65 115 25 99 hhcurveto
            92 39 -27 -139 84 hvcurveto
            -71 44 34 -15 35 hhcurveto
            50 24 34 40 51 -23 27 -57 72 hvcurveto
            -29 36 -40 54 -29 59 rrcurveto
            112 -54 -32 20 -38 hhcurveto
            -32 -34 -26 -42 -3 hvcurveto
            -6 1 -8 1 -8 vhcurveto
            -178 -19 -158 -51 -113 -75 rrcurveto
            -141 -92 -53 -111 -81 vvcurveto
            -168 127 -114 287 -29 vhcurveto
            338 -33 179 -84 -11 -235 rrcurveto
            -166 -8 -121 -159 -282 hhcurveto
            -102 -117 37 54 -59 hvcurveto
            -58 51 -47 76 -53 93 rrcurveto
            85 -48 -39 24 -42 hhcurveto
            -49 -24 -34 -42 -50 27 -44 129 -174 hvcurveto
            return
          </CharString>
          <CharString index="4">
            563 79 rmoveto
            -77 22 33 -18 49 hhcurveto
            50 28 23 72 28 hvcurveto
            29 75 47 117 86 234 248 649 rcurveline
            9 3 3 3 5 hhcurveto
            6 2 -5 -10 4 hvcurveto
            259 -646 89 -232 27 -85 30 -108 rlinecurve
            -77 21 35 -18 48 hhcurveto
            49 31 22 73 23 hvcurveto
            67 208 32 88 43 129 163 461 rcurveline
            100 297 43 39 58 56 rrcurveto
            34 33 74 23 57 vvcurveto
            39 -26 33 -51 vhcurveto
            -35 -63 -7 -53 hhcurveto
            -45 -44 5 4 -44 hvcurveto
            4 -38 -40 6 -39 hhcurveto
            -54 -36 -33 -42 -62 43 -36 126 17 18 0 1 19 hvcurveto
            -348 -1022 rlineto
            -22 -7 -5 -9 -8 hhcurveto
            -8 -6 8 24 -8 hvcurveto
            -387 1071 rlineto
            74 -27 -27 23 -50 hhcurveto
            -50 -28 -26 -71 -25 hvcurveto
            -394 -1072 rlineto
            -22 -7 -7 -9 -8 hhcurveto
            -11 -4 10 22 -7 hvcurveto
            -351 1021 rlineto
            -1 15 14 0 14 hhcurveto
            127 43 36 62 42 -35 33 -55 -40 -40 -6 -4 -38 hvcurveto
            -4 -44 -43 -5 -45 -54 -62 7 -35 hhcurveto
            -51 -28 -33 -39 -57 76 -23 34 -33 hvcurveto
            58 -56 41 -39 101 -297 162 -461 rcurveline
            58 -167 26 -78 50 -181 rrcurveto
            return
          </CharString>
          <CharString index="5">
            519 79 rmoveto
            -48 39 -31 59 27 68 -81 callsubr
            33 -70 callgsubr
            35 -18 callgsubr
            60 -1 26 hhcurveto
            78 28 39 37 48 -32 37 -94 hvcurveto
            -111 341 hlineto
            83 117 170 36 51 vhcurveto
            195 283 162 281 137 18 rrcurveto
            47 6 69 7 70 vvcurveto
            39 -36 38 -51 -19 -27 -3 -4 -29 vhcurveto
            -3 -25 -27 -2 -24 hhcurveto
            -45 -76 5 4 -43 hvcurveto
            4 -39 -50 6 -40 hhcurveto
            -55 -37 -33 -42 -59 62 -33 99 hvcurveto
            48 hlineto
            -157 -212 -118 -198 -126 -191 -45 -79 rcurveline
            -44 79 -128 198 -132 227 -137 176 rlinecurve
            41 hlineto
            116 53 39 55 42 -37 31 -54 -39 -61 -6 -4 -39 hvcurveto
            -4 -42 -77 -5 -45 hhcurveto
            -28 -30 2 5 -27 hvcurveto
            5 -25 -23 2 -17 hhcurveto
            -70 -18 -40 -39 -70 69 -5 47 -8 hvcurveto
            157 -29 102 -217 194 -272 rrcurveto
            86 -118 119 -170 -98 vvcurveto
            -323 -133 vlineto
            -69 -45 -34 -48 hvcurveto
            return
          </CharString>
          <CharString index="6">
            147 155 rmoveto
            47 -73 23 -39 1 -57 rrcurveto
            -39 23 -20 41 30 29 24 48 27 vhcurveto
            -7 39 58 -7 64 hhcurveto
            250 212 126 240 180 -140 87 -308 18 hvcurveto
            -192 10 -33 47 58 vvcurveto
            65 81 62 158 123 47 -15 -50 30 vhcurveto
            -51 30 30 -22 38 hhcurveto
            40 25 28 42 33 -14 27 -51 64 hvcurveto
            -45 58 -23 34 -16 32 rrcurveto
            36 -18 -15 17 -37 hhcurveto
            -30 -27 -26 -30 -8 3 -16 7 -19 hvcurveto
            4 -22 -31 4 -37 hhcurveto
            -310 -124 -153 -121 -140 111 -110 248 -16 hvcurveto
            254 -16 75 -34 -105 vvcurveto
            -103 -95 -79 -174 -172 -64 26 125 -64 vhcurveto
            60 -31 -31 22 -32 hhcurveto
            -41 -36 -28 -41 -33 11 -30 58 -89 hvcurveto
            return
          </CharString>
          <CharString index="7">
            261 -15 167 1236 167 hstem
            76 183 1186 188 vstem
            76 754 rmoveto
            -440 302 -329 462 493 300 341 468 477 -363 284 -408 -428 -358 -325 -476 vhcurveto
            183 12 rmoveto
            356 256 266 323 351 256 -208 -422 -369 -254 -237 -341 -375 -216 275 339 vhcurveto
            return
          </CharString>
          <CharString index="8">
            -48 39 -26 58 27 28 1 2 34 vhcurveto
            1 30 23 16 callgsubr
            45 -30 callsubr
            34 40 -38 callsubr
            78 29 -45 callsubr
            -33 31 -92 hvcurveto
            -120 739 hlineto
            -1 14 14 -1 17 hhcurveto
            -2 48 47 -1 46 hhcurveto
            79 28 40 39 37 -28 34 -79 -48 -48 -1 -2 -49 hvcurveto
            -41 -3 rlineto
            177 vlineto
            171 43 58 75 57 32 -25 -42 12 vhcurveto
            -45 12 23 -22 51 hhcurveto
            42 34 37 58 124 -93 75 -158 -181 -123 -133 -220 hvcurveto
            -212 vlineto
            -22 2 rlineto
            -30 callgsubr
            -28 -47 -48 39 -27 58 27 28 1 2 34 hvcurveto
            7 7 0 1 8 hvcurveto
            -738 -79 vlineto
            -68 -45 -28 -48 hvcurveto
            return
          </CharString>
          <CharString index="9">
            92 499 rmoveto
            -290 185 -224 317 292 215 227 298 333 -211 192 -289 -290 -219 -226 -310 vhcurveto
            174 28 rmoveto
            199 124 151 199 222 115 -151 -227 -220 -133 -136 -194 -183 -150 136 248 vhcurveto
            return
          </CharString>
          <CharString index="10">
            241 79 rmoveto
            -48 39 -31 59 25 50 1 2 32 vhcurveto
            1 30 54 -70 callgsubr
            56 -30 callsubr
            32 51 -38 callsubr
            78 28 39 37 48 -32 37 -92 hvcurveto
            -124 1225 hlineto
            47 3 48 4 38 3 rrcurveto
            5 83 -3 1 39 hhcurveto
            110 30 -20 -88 33 hvcurveto
            -49 17 27 -21 33 hhcurveto
            45 30 27 44 46 -23 39 -13 35 hvcurveto
            -27 76 -8 24 -12 59 rrcurveto
            33 -7 -21 29 -44 hhcurveto
            -33 -40 -22 -46 -3 -1 -4 1 -3 hvcurveto
            -26 -132 -134 -2 -172 hhcurveto
            -230 -122 11 17 -91 hvcurveto
            10 vlineto
            46 -40 22 -33 -44 -21 -29 -33 -7 vhcurveto
            -12 -59 -8 -24 -27 -76 rrcurveto
            -13 -35 -23 -39 -46 vvcurveto
            -44 30 -27 45 33 26 21 49 18 vhcurveto
            88 32 32 21 110 hhcurveto
            40 15 -1 -6 83 hvcurveto
            110 -8 rlineto
            -1227 -134 vlineto
            -68 -45 -34 -48 hvcurveto
            return
          </CharString>
          <CharString index="11">
            60 67 44 74 81 -49 43 -75 -82 -53 -51 -77 -60 46 -54 86 hvcurveto
            return
          </CharString>
          <CharString index="12">
            127 82 rmoveto
            -59 34 -23 75 13 15 1 4 46 vhcurveto
            7 90 73 4 98 hhcurveto
            103 74 -3 -2 82 hvcurveto
            74 -2 73 -9 45 -9 rrcurveto
            -1 -7 0 -7 -6 vvcurveto
            -56 36 -38 46 37 31 31 67 16 vhcurveto
            21 98 52 128 69 94 28 39 8 29 -3 24 rrcurveto
            40 -5 -29 32 -38 hhcurveto
            -42 -34 -14 -126 -70 hvcurveto
            -123 -70 -43 -48 -72 hhcurveto
            -108 -115 5 11 -169 hvcurveto
            1230 85 vlineto
            93 34 35 48 39 -30 39 -77 -27 -19 -1 -2 -33 hvcurveto
            -2 -26 -47 -2 -45 hhcurveto
            return
          </CharString>
          <CharString index="13">
            119 512 rmoveto
            -349 246 -178 258 279 154 160 104 45 -32 31 -49 -42 -28 -32 -32 -17 vhcurveto
            -74 -34 -91 -44 -127 hhcurveto
            -184 -159 125 253 182 135 174 216 103 80 -33 -66 54 hvcurveto
            -68 54 29 -15 42 hhcurveto
            39 28 29 51 44 -46 43 -33 48 hvcurveto
            -53 76 -6 16 -19 54 rrcurveto
            32 -11 -21 20 -34 hhcurveto
            -42 -27 -32 -44 -5 0 -6 2 -6 hvcurveto
            12 -38 -44 8 -45 hhcurveto
            -315 -222 -241 -282 hvcurveto
            return
          </CharString>
          <CharString index="14">
            782 -1 158 -157 143 677 147 443 148 -124 127 hstemhm
            1167 186 hintmask 00000000
            hintmask 01101100
            58 hmoveto
            22 28 3 2 29 hvcurveto
            2 23 24 1 22 hhcurveto
            51 35 -3 -2 33 hvcurveto
            -2 32 32 -2 43 hhcurveto
            75 27 32 42 65 -56 19 -130 hvcurveto
            -27 hlineto
            303 418 64 -55 92 -78 80 -70 rlinecurve
            -30 34 21 -29 33 hhcurveto
            28 23 18 29 33 hvcurveto
            46 39 46 31 43 27 rrcurveto
            -306 -14 vlineto
            -119 -52 -39 -46 -59 34 -23 75 13 15 1 4 46 hvcurveto
            7 90 52 4 50 hhcurveto
            103 53 -3 -2 78 hvcurveto
            76 -1 89 -10 51 -9 rrcurveto
            -1 -7 0 -5 -5 vvcurveto
            -59 35 -38 47 31 28 17 39 11 vhcurveto
            11 36 4 47 31 77 32 78 25 38 21 27 30 39 9 30 -3 35 rrcurveto
            31 -2 -27 callgsubr
            hintmask 01110100
            -57 -80 3 4 -79 hvcurveto
            -65 3 -63 3 -49 1 rrcurveto
            hintmask 10101100
            -57 callgsubr
            443 vlineto
            80 4 156 11 47 3 rrcurveto
            5 85 5 1 -10 callgsubr
            -32 -45 callgsubr
            -90 -74 -7 7 -44 hvcurveto
            4 -25 -35 10 -31 hhcurveto
            -101 -50 -31 -107 -74 hvcurveto
            -611 -889 -271 -334 -59 -47 rrcurveto
            -49 -38 -62 -36 -30 vvcurveto
            hintmask 01101100
            -38 26 -25 52 vhcurveto
            665 711 rmoveto
            444 643 rlineto
            -718 vlineto
            -53 -32 -56 -36 -47 -33 rrcurveto
            -19 -27 -9 -8 -21 hhcurveto
            -14 -11 20 18 -19 hvcurveto
            -59 55 -67 58 -61 52 rrcurveto
            return
          </CharString>
          <CharString index="15">
            rmoveto
            84 59 63 79 89 -56 56 -88 -94 -52 -60 -83 -86 57 -58 90 hvcurveto
            endchar
          </CharString>
          <CharString index="16">
            -91 callgsubr
            440 vlineto
            79 5 157 13 47 3 rrcurveto
            return
          </CharString>
          <CharString index="17">
            -65 -51 -50 -59 -51 19 -34 38 -40 hvcurveto
            28 -30 8 -25 -18 vvcurveto
            -36 -23 -37 -57 -40 vhcurveto
            -30 -21 -12 -22 -22 vvcurveto
            -34 25 -17 34 46 82 57 92 47 vhcurveto
            34 66 18 76 75 vvcurveto
            94 -55 76 -86 vhcurveto
            return
          </CharString>
          <CharString index="18">
            -527 162 350 158 738 154 hstemhm
            104 175 -62 183 458 174 hintmask 00000000
            hintmask 11110100
            217 -270 rmoveto
            -140 134 -117 230 274 177 206 330 vhcurveto
            615 vlineto
            184 11 38 44 29 vhcurveto
            hintmask 11101100
            34 22 13 21 30 vvcurveto
            50 -27 37 -72 -54 -46 -28 -55 -32 vhcurveto
            55 -63 -111 28 -94 hhcurveto
            -311 -220 -225 -298 -349 229 -178 259 102 95 38 62 69 hvcurveto
            -89 vlineto
            -234 -110 -127 -165 -128 -55 36 49 21 24 10 16 16 vhcurveto
            15 13 16 15 31 vvcurveto
            50 -53 39 -51 vhcurveto
            hintmask 11110100
            -90 -60 -82 -103 hvcurveto
            62 791 rmoveto
            187 152 173 183 95 82 -27 -55 69 vhcurveto
            -2 -19 0 -21 -22 vvcurveto
            -478 vlineto
            -79 -69 -83 -37 -100 hhcurveto
            -186 -141 125 253 hvcurveto
            return
          </CharString>
          <CharString index="19">
            595 0 144 -141 147 725 160 hstemhm
            279 176 519 173 511 173 hintmask 00000000
            hintmask 10111100
            78 74 rmoveto
            -19 callgsubr
            vhcurveto
            1 31 21 -70 callgsubr
            24 -73 callgsubr
            20 -1 24 hhcurveto
            80 28 -45 callsubr
            -32 31 -94 hvcurveto
            -65 414 hlineto
            184 45 158 127 114 hhcurveto
            133 69 -83 -174 hvcurveto
            -468 vlineto
            hintmask 01111100
            -89 hlineto
            -70 -47 -28 -48 -48 41 -26 59 28 28 1 2 32 hvcurveto
            1 31 22 -70 callgsubr
            24 -30 callsubr
            33 20 -1 26 hhcurveto
            78 28 -45 callsubr
            -33 31 -93 hvcurveto
            -67 414 hlineto
            184 46 152 127 114 hhcurveto
            132 67 -83 -174 hvcurveto
            -470 vlineto
            -95 2 rlineto
            -67 -45 -28 -48 -48 38 -26 59 25 35 1 2 32 hvcurveto
            1 31 23 2 48 hhcurveto
            43 27 -8 -1 26 hvcurveto
            -2 34 -4 callsubr
            1 rlineto
            538 vlineto
            203 -106 149 -255 -128 -146 -83 -131 -69 vhcurveto
            129 -42 -108 85 -192 hhcurveto
            -117 -137 -76 -125 -76 hvcurveto
            113 vlineto
            56 -21 40 -70 -25 -23 -6 -9 -29 vhcurveto
            -20 -5 -36 -6 -44 -4 rrcurveto
            -70 -7 -39 -32 -43 vvcurveto
            -54 36 -29 53 18 15 2 3 13 vhcurveto
            5 16 15 4 11 hhcurveto
            15 9 -9 -51 hvcurveto
            -652 -88 vlineto
            -46 callgsubr
            hvcurveto
            return
          </CharString>
          <CharString index="20">
            rmoveto
            -73 -48 -62 -97 -151 110 -100 162 208 113 128 325 hvcurveto
            1000 vlineto
            -36 callsubr
            -73 -23 -23 -8 -7 -30 vhcurveto
            -30 -7 -49 -5 -66 -3 rrcurveto
            -69 -3 -40 -36 -43 vvcurveto
            -54 37 -29 53 17 14 3 2 14 vhcurveto
            7 38 20 2 12 hhcurveto
            20 12 -12 -48 hvcurveto
            -881 vlineto
            -219 -55 -56 -91 -45 -43 33 45 23 5 14 10 17 vhcurveto
            10 17 4 16 19 vvcurveto
            47 -34 27 -49 vhcurveto
            return
          </CharString>
          <CharString index="21">
            177 271 rmoveto
            -198 108 -88 134 138 108 81 72 48 -19 28 -46 -36 -17 -15 -20 -23 vhcurveto
            -26 -30 -18 -9 -38 hhcurveto
            -67 -20 57 184 hvcurveto
            1113 -41 callsubr
            -17 callgsubr
            return
          </CharString>
          <CharString index="22">
            89 -15 150 -135 168 623 148 467 149 hstemhm
            307 185 592 197 -13 193 hintmask 00000000
            hintmask 10111010
            72 77 rmoveto
            -73 63 -17 60 25 37 3 3 26 vhcurveto
            hintmask 01111100
            3 27 40 4 41 hhcurveto
            50 51 -3 -3 51 hvcurveto
            -3 48 99 -6 54 hhcurveto
            506 211 219 285 201 -103 158 -237 39 hvcurveto
            111 60 49 122 120 vvcurveto
            162 -127 148 -230 38 vhcurveto
            13 -76 -197 5 -203 hhcurveto
            -102 -104 -1 -8 -69 hvcurveto
            -112 -15 -22 -35 -38 vvcurveto
            -58 46 -33 65 vhcurveto
            hintmask 10111010
            48 38 6 7 39 hvcurveto
            32 4 rlineto
            hintmask 01111010
            -1220 vlineto
            3 -30 -27 1 -32 hhcurveto
            hintmask 10111010
            -98 -48 -34 -57 hvcurveto
            420 862 rmoveto
            464 vlineto
            2 24 26 1 33 hhcurveto
            108 147 -8 -9 44 hvcurveto
            105 -22 105 -78 -113 vvcurveto
            -152 -79 -85 -234 vhcurveto
            -279 -794 rmoveto
            hintmask 10111100
            646 371 vlineto
            238 167 -98 -200 -238 -145 -120 -389 hvcurveto
            hintmask 10111010
            -67 -107 3 7 -68 hvcurveto
            return
          </CharString>
          <CharString index="23">
            5 17 13 4 11 0 callgsubr
            -78 -58 callgsubr
            return
          </CharString>
          <CharString index="24">
            rmoveto
            22 33 0 2 31 hvcurveto
            2 33 37 0 32 hhcurveto
            28 29 -1 -1 23 hvcurveto
            -1 30 26 -1 23 hhcurveto
            51 31 31 35 36 -24 33 -60 hvcurveto
            -76 722 hlineto
            47 -34 25 -35 -35 -30 -9 -49 -44 vhcurveto
            -31 -34 -47 -46 -63 -46 rrcurveto
            -78 -56 -10 -22 -36 vvcurveto
            -42 32 -32 44 39 33 29 34 30 vhcurveto
            27 31 18 21 25 25 rrcurveto
            -562 -107 vlineto
            -56 -26 -34 -33 -34 23 -34 56 hvcurveto
            return
          </CharString>
          <CharString index="25">
            74 -15 15 -33 -26 vvcurveto
            -61 -46 -35 -107 -14 vhcurveto
            -70 -9 -21 -8 -28 vvcurveto
            -23 24 -23 65 197 139 87 134 94 -72 58 -156 25 vhcurveto
            return
          </CharString>
          <CharString index="26">
            1 2 33 vhcurveto
            1 30 return
          </CharString>
          <CharString index="27">
            49 21 17 67 15 hvcurveto
            124 29 50 46 73 hhcurveto
            55 31 -22 -134 164 hvcurveto
            -99 121 85 -33 81 hhcurveto
            168 147 128 193 62 -37 33 -41 -40 -22 -17 -68 -14 hvcurveto
            -120 -26 -41 -49 -68 hhcurveto
            -45 -24 12 125 -167 hvcurveto
            137 -180 -41 14 -97 hhcurveto
            -168 -147 -128 -193 -62 37 -33 32 hvcurveto
            return
          </CharString>
          <CharString index="28">
            rmoveto
            256 160 167 211 185 -147 115 -178 6 hvcurveto
            127 134 rlineto
            39 41 12 20 21 vvcurveto
            35 -17 17 -39 -26 -21 -7 -7 -21 vhcurveto
            -9 -28 -29 -8 -49 hhcurveto
            -115 -65 7 7 -36 hvcurveto
            3 -18 -11 3 -22 hhcurveto
            -45 -28 -32 -37 -23 14 -37 61 -11 hvcurveto
            -10 56 54 -1 120 hhcurveto
            24 hlineto
            -120 -132 rlineto
            -31 -34 -15 -21 -26 vvcurveto
            -34 24 -21 27 19 21 7 13 29 vhcurveto
            12 26 20 4 32 hhcurveto
            114 81 -75 -119 -163 -100 -74 -140 -135 -96 72 82 19 8 10 23 21 hvcurveto
            19 17 7 13 20 vvcurveto
            46 -32 24 -44 -66 -63 -65 -106 -148 145 -132 219 vhcurveto
            endchar
          </CharString>
          <CharString index="29">
            59 26 29 -81 callsubr
            return
          </CharString>
          <CharString index="30">
            90 -85 70 -81 59 -83 rrcurveto
            -30 22 28 -39 51 hhcurveto
            48 34 28 42 47 -8 22 -73 65 hvcurveto
            -45 40 -85 97 -51 69 51 68 85 98 45 40 rrcurveto
            73 65 8 22 47 vvcurveto
            42 -34 28 -48 -51 -28 -39 -30 -22 vhcurveto
            -59 -83 -60 -73 -99 -91 rrcurveto
            -48 -43 -12 -23 -25 vvcurveto
            -34 5 -11 54 -50 vhcurveto
            return
          </CharString>
          <CharString index="31">
            -86 57 -58 90 84 59 63 79 89 -56 56 -88 -94 -52 -60 -83 vhcurveto
            return
          </CharString>
          <CharString index="32">
            54 50 5 11 34 vvcurveto
            25 -12 23 -48 43 vhcurveto
            -99 91 -60 73 -59 83 rrcurveto
            30 -22 -28 39 -51 hhcurveto
            -48 -34 -28 -42 -47 8 -22 73 -65 hvcurveto
            45 -40 85 -98 51 -68 -51 -69 -85 -97 -45 -40 rrcurveto
            -73 -65 -8 -22 -47 vvcurveto
            -42 34 -28 48 51 28 39 30 22 vhcurveto
            return
          </CharString>
          <CharString index="33">
            -103 hlineto
            -56 -26 -34 -33 -34 23 -34 67 24 29 1 1 31 hvcurveto
            1 30 32 1 31 hhcurveto
            28 21 -1 -1 19 hvcurveto
            -1 25 20 -1 27 hhcurveto
            50 31 31 35 36 -24 33 -60 hvcurveto
            -59 135 hlineto
            10 10 -1 9 hhcurveto
            -2 33 39 -2 30 hhcurveto
            55 39 31 43 44 -38 32 -58 -30 -30 -2 -3 -33 hvcurveto
            -36 -3 rlineto
            433 vlineto
            63 -32 26 -54 -35 -36 -17 -67 -58 vhcurveto
            -339 -387 rlineto
            -60 -68 -1 -27 -23 vvcurveto
            190 59 rmoveto
            265 302 rlineto
            -297 -196 vlineto
            -16 -27 -2 -3 -26 hvcurveto
            return
          </CharString>
          <CharString index="34">
            -58 -39 -33 -48 -48 45 -29 callsubr
            return
          </CharString>
          <CharString index="35">
            77 29 -45 callsubr
            -33 31 -93 hvcurveto
            return
          </CharString>
          <CharString index="36">
            -49 callgsubr
            hintmask 10100000
            360 hmoveto
            -90 callsubr
            endchar
          </CharString>
          <CharString index="37">
            -15 158 734 158 return
          </CharString>
          <CharString index="38">
            -4 35 35 -3 36 hhcurveto
            157 144 26 49 122 hvcurveto
            265 106 198 285 346 vvcurveto
            return
          </CharString>
          <CharString index="39">
            rmoveto
            257 -148 213 -120 26 -32 rrcurveto
            -47 38 29 -25 44 hhcurveto
            51 36 35 39 47 -16 29 -80 57 hvcurveto
            -123 87 -254 138 -139 81 139 80 254 138 123 88 rrcurveto
            80 57 16 29 47 vvcurveto
            39 -36 35 -51 -44 -29 -25 -47 -38 vhcurveto
            -26 -32 -212 -121 -258 -147 rrcurveto
            -97 -55 -7 -36 -50 vvcurveto
            -44 25 -52 79 -45 vhcurveto
            return
          </CharString>
          <CharString index="40">
            -73 callgsubr
            20 -83 callgsubr
            return
          </CharString>
          <CharString index="41">
            -15 158 310 150 274 158 return
          </CharString>
          <CharString index="42">
            69 68 19 33 46 vvcurveto
            46 -29 33 -56 -65 -38 -37 -116 -86 vhcurveto
            -66 -88 -63 -86 -54 -64 -597 -704 rcurveline
            -71 -84 -98 -99 -50 -45 rrcurveto
            -108 -97 -6 -34 -42 vvcurveto
            return
          </CharString>
          <CharString index="43">
            0 161 1233 158 return
          </CharString>
          <CharString index="44">
            -15 156 306 137 296 155 return
          </CharString>
          <CharString index="45">
            2 2 -30 hvcurveto
            2 -33 return
          </CharString>
          <CharString index="46">
            -79 797 hlineto
            -95 callgsubr
            return
          </CharString>
          <CharString index="47">
            76 77 rmoveto
            -73 63 -17 60 32 29 3 4 32 vhcurveto
            4 29 32 2 42 hhcurveto
            36 34 -4 -4 35 hvcurveto
            return
          </CharString>
          <CharString index="48">
            -87 139 124 120 90 84 52 -38 22 -37 -31 -16 -13 -44 -33 vhcurveto
            return
          </CharString>
          <CharString index="49">
            79 rmoveto
            7 callsubr
            return
          </CharString>
          <CharString index="50">
            11 callsubr
            vhcurveto
            147 324 132 -104 119 -74 47 -55 rlinecurve
            -75 64 24 -29 47 hhcurveto
            28 31 21 51 42 hvcurveto
            47 58 127 86 136 110 102 -208 rcurveline
            17 -36 18 -33 21 -30 rrcurveto
            -1 -15 -15 0 -14 hhcurveto
            -134 -48 -26 -64 hvcurveto
            return
          </CharString>
          <CharString index="51">
            -2 -1 29 hvcurveto
            -2 return
          </CharString>
          <CharString index="52">
            -4 -58 -4 -64 -59 vvcurveto
            -131 53 -29 47 48 52 30 118 42 -3 74 -4 67 vhcurveto
            return
          </CharString>
          <CharString index="53">
            -6 -41 -33 -44 vvcurveto
            -53 38 -27 return
          </CharString>
          <CharString index="54">
            2 -22 -22 0 -32 hhcurveto
            -98 -48 -34 -57 hvcurveto
            407 66 rmoveto
            return
          </CharString>
          <CharString index="55">
            rmoveto
            -51 24 -36 38 -40 vhcurveto
            28 -30 8 -25 -18 vvcurveto
            -42 -31 -36 -73 -51 vhcurveto
            -30 -21 -12 -22 -22 vvcurveto
            -34 25 -17 34 50 92 55 110 56 vhcurveto
            34 66 28 86 75 vvcurveto
            94 -55 80 -86 -78 -52 -51 -70 vhcurveto
            endchar
          </CharString>
          <CharString index="56">
            -68 -44 -28 -48 hvcurveto
            return
          </CharString>
          <CharString index="57">
            rmoveto
            199 133 158 151 45 -32 27 -37 -69 -32 -34 -51 hvcurveto
            hintmask 10110000
            -71 -44 -74 -104 -104 -61 77 68 vhcurveto
            hintmask 01110000
            52 -34 33 -58 -37 -32 -27 -45 -125 112 -184 200 vhcurveto
            endchar
          </CharString>
          <CharString index="58">
            -497 149 -149 248 return
          </CharString>
          <CharString index="59">
            121 -62 -124 72 -182 hhcurveto
            -245 -160 -111 -110 -45 17 -57 78 62 29 54 24 7 hvcurveto
            64 18 68 26 119 hhcurveto
            170 78 -74 -159 hvcurveto
            -93 vlineto
            22 -92 -92 8 -90 hhcurveto
            return
          </CharString>
          <CharString index="60">
            -31 -23 -25 -11 -36 hhcurveto
            -56 return
          </CharString>
          <CharString index="61">
            111 -542 hlineto
            -53 callsubr
            565 297 vlineto
            -37 callsubr
            -297 549 hlineto
            1 21 19 1 19 hhcurveto
            return
          </CharString>
          <CharString index="62">
            34 37 48 return
          </CharString>
          <CharString index="63">
            -81 0 150 725 160 return
          </CharString>
          <CharString index="64">
            476 -262 282 -685 vhcurveto
            -192 hlineto
            return
          </CharString>
          <CharString index="65">
            2 -34 -28 1 -27 hhcurveto
            return
          </CharString>
          <CharString index="66">
            -48 callgsubr
            -22 -6 -9 -31 vhcurveto
            -19 -6 -37 -6 -45 -4 rrcurveto
            -67 -54 callsubr
            52 16 16 -38 callgsubr
            14 3 11 hhcurveto
            return
          </CharString>
          <CharString index="67">
            -60 callgsubr
            19 -81 callsubr
            return
          </CharString>
          <CharString index="68">
            0 150 734 150 400 160 return
          </CharString>
          <CharString index="69">
            -1 25 hhcurveto
            return
          </CharString>
          <CharString index="70">
            72 32 25 46 40 -34 31 -70 hvcurveto
            return
          </CharString>
          <CharString index="71">
            56 -18 40 return
          </CharString>
          <CharString index="72">
            115 -55 31 -48 -47 -56 -31 -111 return
          </CharString>
          <CharString index="73">
            74 rmoveto
            -10 callsubr
            return
          </CharString>
          <CharString index="74">
            1 -26 hhcurveto
            return
          </CharString>
          <CharString index="75">
            87 0 161 354 148 737 155 return
          </CharString>
          <CharString index="76">
            -81 11 137 -132 151 return
          </CharString>
          <CharString index="77">
            -2 -1 28 hvcurveto
            -2 return
          </CharString>
          <CharString index="78">
            -32 68 hvcurveto
            return
          </CharString>
          <CharString index="79">
            85 -15 163 564 182 507 154 -154 190 return
          </CharString>
          <CharString index="80">
            271 150 150 104 45 -31 31 -50 -40 -28 -35 -32 -15 return
          </CharString>
          <CharString index="81">
            124 120 90 84 52 -28 22 -37 -31 -16 -13 -44 -33 return
          </CharString>
          <CharString index="82">
            -260 -42 -41 -65 -54 50 -28 81 return
          </CharString>
          <CharString index="83">
            hhcurveto
            -27 callsubr
            hvcurveto
            -74 -35 -90 -31 -121 hhcurveto
            return
          </CharString>
          <CharString index="84">
            79 rmoveto
            -48 38 -31 -78 callsubr
            return
          </CharString>
          <CharString index="85">
            435 -15 158 298 143 -131 150 274 158 -155 155 return
          </CharString>
          <CharString index="86">
            -39 callsubr
            hstem
            return
          </CharString>
          <CharString index="87">
            -81 -26 -27 -44 -42 22 -29 85 hvcurveto
            return
          </CharString>
          <CharString index="88">
            -255 0 150 730 155 return
          </CharString>
          <CharString index="89">
            -39 -41 -47 -48 39 -40 return
          </CharString>
          <CharString index="90">
            -255 -15 160 return
          </CharString>
          <CharString index="91">
            -76 callsubr
            endchar
          </CharString>
          <CharString index="92">
            -763 0 150 return
          </CharString>
          <CharString index="93">
            rmoveto
            60 66 44 74 76 -42 48 -81 -84 -53 -51 -77 -60 47 -54 87 hvcurveto
            return
          </CharString>
          <CharString index="94">
            142 13 142 hstemhm
            return
          </CharString>
          <CharString index="95">
            rlineto
            80 46 18 21 38 vvcurveto
            35 -26 17 -37 -26 -32 -14 -31 -55 vhcurveto
            return
          </CharString>
          <CharString index="96">
            -925 1660 -21 381 -20 hstem
            return
          </CharString>
          <CharString index="97">
            -48 37 -26 59 return
          </CharString>
          <CharString index="98">
            vvcurveto
            -144 111 -97 139 vhcurveto
            return
          </CharString>
          <CharString index="99">
            155 260 158 return
          </CharString>
          <CharString index="100">
            423 863 157 return
          </CharString>
          <CharString index="101">
            3 -39 -30 3 -49 hhcurveto
            -93 -57 -33 -57 -48 31 -42 106 return
          </CharString>
          <CharString index="102">
            -933 -15 1590 hstem
            167 182 vstem
            260 return
          </CharString>
          <CharString index="103">
            20 -1 26 hhcurveto
            -72 callsubr
            -67 return
          </CharString>
          <CharString index="104">
            -18 -69 -35 -101 -32 -81 rlinecurve
            -22 -55 -16 -40 -46 vvcurveto
            return
          </CharString>
          <CharString index="105">
            -44 callsubr
            hstem
            16 callsubr
            return
          </CharString>
          <CharString index="106">
            536 hstem
            113 286 vstem
            return
          </CharString>
          <CharString index="107">
            vvcurveto
            -54 37 -29 52 return
          </CharString>
          <CharString index="108">
            -596 119 820 hstem
            194 461 vstem
            return
          </CharString>
          <CharString index="109">
            rlineto
            -54 -31 -37 -21 -45 vvcurveto
            -22 11 -34 46 32 return
          </CharString>
          <CharString index="110">
            -589 -223 160 1478 160 hstem
            return
          </CharString>
          <CharString index="111">
            hstem
            189 180 147 185 vstem
            439 return
          </CharString>
          <CharString index="112">
            141 314 142 return
          </CharString>
          <CharString index="113">
            187 174 return
          </CharString>
          <CharString index="114">
            -48 38 -31 59 return
          </CharString>
          <CharString index="115">
            0 135 130 150 -143 132 return
          </CharString>
          <CharString index="116">
            -253 529 162 hstem
            return
          </CharString>
          <CharString index="117">
            88 195 1033 173 return
          </CharString>
          <CharString index="118">
            65 -56 19 -130 -11 -10 -1 1 -9 return
          </CharString>
          <CharString index="119">
            -423 4 162 1179 -20 hstem
            return
          </CharString>
          <CharString index="120">
            hlineto
            84 -27 40 -56 -47 -36 -40 -84 vhcurveto
            return
          </CharString>
          <CharString index="121">
            390 -64 callsubr
            return
          </CharString>
          <CharString index="122">
            -46 callgsubr
            hvcurveto
            endchar
          </CharString>
          <CharString index="123">
            278 173 return
          </CharString>
        <CharString name=".notdef">
          -589 endchar
        </CharString>
        <CharString name="A">
          -107 callsubr
          endchar
        </CharString>
        <CharString name="AE">
          -93 callsubr
          endchar
        </CharString>
        <CharString name="AEacute">
          -93 callsubr
          381 928 -105 callgsubr
        </CharString>
        <CharString name="Aacute">
          -107 callsubr
          182 1028 -105 callgsubr
        </CharString>
        <CharString name="Abreve">
          -107 callsubr
          337 1028 -92 callgsubr
        </CharString>
        <CharString name="Acircumflex">
          -107 callsubr
          88 1028 -106 callgsubr
        </CharString>
        <CharString name="Adieresis">
          -107 callsubr
          hintmask 00000000
          582 1129 rmoveto
          -96 callsubr
          -480 hmoveto
          -96 callsubr
          endchar
        </CharString>
        <CharString name="Agrave">
          -107 callsubr
          450 1028 rmoveto
          31 19 23 31 14 -7 25 -28 25 hvcurveto
          -42 37 -64 84 -40 61 rrcurveto
          60 -41 -30 21 -46 hhcurveto
          -59 -38 -37 -51 -44 27 -41 50 -33 hvcurveto
          100 -66 40 -27 52 -46 rrcurveto
          -29 33 18 -7 25 hhcurveto
          endchar
        </CharString>
        <CharString name="Amacron">
          -107 callsubr
          156 1247 rmoveto
          373 hlineto
          -81 callgsubr
          -373 hlineto
          -78 callgsubr
          endchar
        </CharString>
        <CharString name="Aogonek">
          259 -49 callsubr
          254 152 -137 -21 22 -21 1575 -20 hstemhm
          1212 211 -180 180 hintmask 10001110
          29 hmoveto
          hintmask 10100110
          22 28 3 2 29 hvcurveto
          2 23 24 1 22 hhcurveto
          51 35 -3 -2 33 hvcurveto
          hintmask 10010110
          -2 32 32 -2 43 hhcurveto
          75 27 32 42 hvcurveto
          hintmask 10100110
          -57 callsubr
          hintmask 01001101
          -42 42 -30 67 22 27 0 1 28 vhcurveto
          -95 -68 -60 -97 -102 vvcurveto
          -144 131 -59 callsubr
          hintmask 10001110
          -47 callsubr
          -39 42 52 116 150 123 90 15 hvcurveto
          12 hlineto
          51 27 32 38 60 -78 24 -31 30 hvcurveto
          -36 36 -59 112 -44 86 -250 487 -40 87 -194 420 rrcurveto
          134 -62 -36 29 -64 hhcurveto
          -66 -34 -50 -122 -55 hvcurveto
          -122 -271 -337 -673 -41 -73 -46 -83 -62 -85 -64 -51 rrcurveto
          -49 -38 -32 -36 -30 vvcurveto
          -38 26 -25 52 vhcurveto
          492 611 rmoveto
          283 621 rlineto
          59 27 14 29 15 hhcurveto
          18 18 -41 -78 36 hvcurveto
          273 -589 -105 -83 -122 -86 -38 -41 rlinecurve
          -43 -41 -17 -10 -21 hhcurveto
          -27 -14 12 45 -43 hvcurveto
          -40 41 -141 107 -75 57 rrcurveto
          endchar
        </CharString>
        <CharString name="Aring">
          259 5 152 -137 -21 22 -21 1886 134 hstemhm
          565 -8 callsubr
          hintmask 00111100
          29 hmoveto
          hintmask 10011100
          22 28 3 2 29 hvcurveto
          2 23 24 1 22 hhcurveto
          51 35 -3 -2 33 hvcurveto
          hintmask 01011100
          -2 32 32 -2 43 hhcurveto
          75 27 32 42 hvcurveto
          hintmask 10011100
          -57 callsubr
          hintmask 00111100
          -42 42 -30 67 29 37 0 3 35 vhcurveto
          3 36 32 1 34 hhcurveto
          25 25 -1 -2 25 hvcurveto
          -2 29 28 -2 19 hhcurveto
          51 27 32 38 60 -78 24 -31 30 hvcurveto
          -36 36 -59 112 -44 86 -250 487 -40 87 -194 420 -27 57 -21 38 -21 25 rrcurveto
          105 35 81 88 114 vvcurveto
          146 -125 105 -158 -168 -122 -103 -154 -117 85 -92 120 -29 vhcurveto
          -21 -27 -21 -41 -24 -54 -122 -271 -337 -673 -41 -73 -46 -83 -62 -85 -64 -51 rrcurveto
          -49 -38 -32 -36 -30 vvcurveto
          -38 26 -25 52 vhcurveto
          823 1655 rmoveto
          -71 -61 41 75 67 50 48 79 81 50 -46 -75 -69 -53 -41 -75 hvcurveto
          -331 -1044 rmoveto
          283 621 rlineto
          59 27 14 29 15 hhcurveto
          18 18 -41 -78 36 hvcurveto
          273 -589 -105 -83 -122 -86 -38 -41 rlinecurve
          -43 -41 -17 -10 -21 hhcurveto
          -27 -14 12 45 -43 hvcurveto
          -40 41 -141 107 -75 57 rrcurveto
          endchar
        </CharString>
        <CharString name="Atilde">
          -107 callsubr
          46 1132 rmoveto
          -88 callgsubr
          -89 callgsubr
        </CharString>
        <CharString name="B">
          -85 callsubr
          endchar
        </CharString>
        <CharString name="C">
          89 -15 158 1264 148 hstem
          88 194 vstem
          -98 callgsubr
          endchar
        </CharString>
        <CharString name="Cacute">
          89 -15 158 1264 148 hstem
          88 194 vstem
          -98 callgsubr
          659 868 -105 callgsubr
        </CharString>
        <CharString name="Ccaron">
          89 -15 158 1264 148 84 -41 callgsubr
          88 194 299 644 hintmask 11010000
          -98 callgsubr
          hintmask 00101000
          815 868 -103 callgsubr
        </CharString>
        <CharString name="Ccedilla">
          89 -479 -21 400 243 -137 -21 1422 148 -148 214 hstemhm
          88 194 588 181 hintmask 10101110
          699 -177 rmoveto
          -12 callgsubr
          -82 callsubr
          12 28 15 29 18 31 rrcurveto
          -1 11 10 0 11 hhcurveto
          60 90 9 11 62 hvcurveto
          hintmask 11001110
          -65 -4 51 -40 48 hhcurveto
          hintmask 10101110
          57 30 29 56 5 hvcurveto
          9 81 28 66 87 96 rrcurveto
          71 78 31 40 60 vvcurveto
          42 -34 46 -50 -43 -32 -14 -87 -46 vhcurveto
          -34 -64 -19 -31 -51 -53 rrcurveto
          hintmask 11001110
          -76 -74 -109 -26 -151 hhcurveto
          -321 -279 223 409 409 252 223 357 138 204 -43 -166 102 hvcurveto
          -73 44 34 -15 36 hhcurveto
          49 26 36 49 51 -25 28 -57 63 hvcurveto
          -32 35 -41 54 -26 61 rrcurveto
          104 -44 -32 30 -40 hhcurveto
          -32 -43 -26 -43 -2 hvcurveto
          -1 -9 1 -13 4 -10 rrcurveto
          hintmask 11010110
          25 -76 -111 10 -64 hhcurveto
          -485 -330 -298 -486 -437 274 -289 403 -51 hvcurveto
          -54 -110 -12 -35 -26 vvcurveto
          endchar
        </CharString>
        <CharString name="Ccircumflex">
          89 -15 158 1264 148 hstem
          88 194 vstem
          -98 callgsubr
          455 868 -106 callgsubr
        </CharString>
        <CharString name="Cdotaccent">
          89 -15 158 1264 148 hstem
          88 194 vstem
          -98 callgsubr
          783 946 -92 callsubr
        </CharString>
        <CharString name="D">
          -84 callgsubr
          endchar
        </CharString>
        <CharString name="Dcaron">
          89 -15 155 -153 181 1233 154 84 -41 callgsubr
          298 185 -24 644 194 195 hintmask 00000000
          hintmask 10101010
          -60 callsubr
          hintmask 01101010
          -69 callsubr
          hintmask 10101010
          -43 callsubr
          hintmask 01101010
          -25 callsubr
          hvcurveto
          hintmask 10101010
          27 27 6 5 30 hvcurveto
          10 2 11 2 11 1 rrcurveto
          -1217 vlineto
          -53 callsubr
          1256 vlineto
          -68 callgsubr
          hintmask 00010100
          298 1496 -103 callgsubr
        </CharString>
        <CharString name="Dcroat">
          89 -13 153 -153 181 -162 -21 36 -21 708 142 517 188 -154 154 hstemhm
          51 432 -403 403 -185 6 callgsubr
          hintmask 0100110100100000
          76 77 rmoveto
          -73 63 -17 60 32 29 3 4 32 vhcurveto
          hintmask 0001110100100000
          4 29 32 2 42 hhcurveto
          36 34 -4 -4 35 hvcurveto
          hintmask 0010110100100000
          -69 callsubr
          -43 callsubr
          -25 callsubr
          27 27 6 5 30 hvcurveto
          hintmask 1000110001100000
          10 2 11 2 11 1 rrcurveto
          -533 -111 vlineto
          hintmask 1000110010100000
          -20 callsubr
          hintmask 0100101001100000
          -46 callsubr
          hintmask 1000110100100000
          -79 callgsubr
          endchar
        </CharString>
        <CharString name="Delta">
          265 1 164 hstem
          194 112 rmoveto
          -65 36 -46 59 vhcurveto
          1289 hlineto
          59 36 46 65 27 -22 52 -15 28 hvcurveto
          -619 1183 -21 40 -31 22 -31 1 rlinecurve
          -31 1 -31 -20 -22 -42 -626 -1198 rcurveline
          -11 -21 -19 -46 -27 vvcurveto
          208 53 rmoveto
          535 1038 541 -1038 rlineto
          endchar
        </CharString>
        <CharString name="E">
          -107 callgsubr
          endchar
        </CharString>
        <CharString name="Eacute">
          -107 callgsubr
          452 1573 -105 callgsubr
        </CharString>
        <CharString name="Ebreve">
          -107 callgsubr
          607 1573 -92 callgsubr
        </CharString>
        <CharString name="Ecaron">
          -81 0 144 656 147 440 168 -142 128 98 -41 callgsubr
          340 186 -154 644 hintmask 00000000
          hintmask 11100100
          86 66 rmoveto
          -59 34 -23 75 13 15 1 4 46 vhcurveto
          7 90 73 4 98 hhcurveto
          103 53 -3 -2 78 hvcurveto
          78 -1 125 -10 62 -10 rrcurveto
          -1 -7 0 -7 -9 vvcurveto
          -49 36 -41 47 31 32 16 65 12 vhcurveto
          4 24 17 61 20 50 27 65 22 40 28 38 29 37 11 35 -2 22 rrcurveto
          41 -3 -28 22 -39 hhcurveto
          -40 -25 -26 -100 -66 hvcurveto
          hintmask 11010100
          -89 -58 -33 -26 -81 hhcurveto
          -72 -123 4 4 -73 hvcurveto
          -59 3 -59 3 -57 1 rrcurveto
          649 251 vlineto
          71 13 -37 -71 14 hvcurveto
          -84 17 22 -25 55 hhcurveto
          24 45 17 57 31 -15 32 -15 40 hvcurveto
          -12 32 -12 37 46 vvcurveto
          hintmask 11100100
          -91 callsubr
          5 85 5 0 -10 callgsubr
          -31 -45 callgsubr
          -48 -93 1 6 -122 hvcurveto
          2 -49 -80 5 -88 hhcurveto
          -110 -29 -32 -44 -52 45 -40 146 hvcurveto
          39 -1236 -83 hlineto
          -119 -52 -39 -46 hvcurveto
          hintmask 00001010
          608 1573 -103 callgsubr
        </CharString>
        <CharString name="Ecircumflex">
          -107 callgsubr
          358 1573 -106 callgsubr
        </CharString>
        <CharString name="Edieresis">
          -107 callgsubr
          hintmask 00000000
          852 1674 rmoveto
          -96 callsubr
          -480 hmoveto
          -96 callsubr
          endchar
        </CharString>
        <CharString name="Edotaccent">
          -107 callgsubr
          606 1651 -92 callsubr
        </CharString>
        <CharString name="Egrave">
          -107 callgsubr
          720 1573 rmoveto
          31 19 23 31 14 -7 25 -28 25 hvcurveto
          -42 37 -64 84 -40 61 rrcurveto
          60 -41 -30 21 -46 hhcurveto
          -59 -38 -37 -51 -44 27 -41 50 -33 hvcurveto
          100 -66 40 -27 52 -46 rrcurveto
          -29 33 18 -7 25 hhcurveto
          endchar
        </CharString>
        <CharString name="Emacron">
          -107 callgsubr
          426 1792 rmoveto
          373 hlineto
          -81 callgsubr
          -373 hlineto
          -78 callgsubr
          endchar
        </CharString>
        <CharString name="Eng">
          390 -539 161 -161 407 132 161 1233 161 hstemhm
          119 410 -184 184 -184 341 445 391 -184 184 -184 382 hintmask 1011001100000000
          137 79 rmoveto
          -48 37 -31 58 28 28 1 2 33 vhcurveto
          1 31 32 16 callgsubr
          -3 -2 -1 26 hvcurveto
          -2 34 19 -1 26 hhcurveto
          77 30 39 37 48 -34 37 -92 hvcurveto
          hintmask 1011100100000000
          -31 929 hlineto
          64 -3 77 -6 70 vhcurveto
          766 -1196 10 -16 19 -22 21 -22 rlinecurve
          -1 -34 -1 -28 -40 vvcurveto
          -143 -58 -178 -219 -111 -96 46 78 11 vhcurveto
          hintmask 0111100100000000
          62 9 -32 60 -60 hhcurveto
          -80 -26 -55 -51 -186 169 -115 211 253 217 125 539 hvcurveto
          1269 73 vlineto
          hintmask 1011100001000000
          93 32 35 48 39 -28 39 -78 -25 -20 -1 -2 -33 hvcurveto
          -2 -28 -36 -2 -44 hhcurveto
          -48 -34 2 2 -31 hvcurveto
          2 -32 -29 -33 callsubr
          hintmask 1011100100000000
          -73 callsubr
          hintmask 1011100010000000
          94 -921 hlineto
          -49 3 -64 4 -60 vhcurveto
          -647 1033 -125 198 -73 23 -248 1 rlinecurve
          -88 -45 -29 -50 -53 46 -37 95 4 hvcurveto
          hintmask 1011010100000000
          85 8 rlineto
          -1237 -96 vlineto
          -69 -43 -34 -48 hvcurveto
          endchar
        </CharString>
        <CharString name="Eogonek">
          -81 -49 callsubr
          233 152 -121 -21 27 -21 800 147 154 -20 106 466 -266 154 -128 240 hstemhm
          86 440 -416 416 -186 186 271 180 -180 484 hintmask 1010011100100100
          86 66 rmoveto
          -59 34 -23 75 13 15 1 4 46 vhcurveto
          hintmask 1000111100100100
          7 90 73 4 98 hhcurveto
          103 53 -3 -2 78 hvcurveto
          hintmask 0101011100100010
          -1 44 41 0 36 hhcurveto
          -55 -75 -33 -97 -88 vvcurveto
          -144 101 -87 139 -26 callsubr
          vhcurveto
          hintmask 1010011010100100
          -47 callsubr
          -19 52 52 98 101 150 63 74 hvcurveto
          7 7 6 8 6 7 44 55 22 27 28 38 29 37 11 35 -2 22 rrcurveto
          41 -3 -27 callgsubr
          -72 -73 4 4 -73 hvcurveto
          -59 3 -59 3 -57 1 rrcurveto
          649 251 vlineto
          71 13 -37 -71 14 hvcurveto
          -84 17 22 -25 55 hhcurveto
          24 45 17 57 31 -15 32 -15 40 hvcurveto
          -12 32 -12 37 46 vvcurveto
          -91 callsubr
          hintmask 1010011001100100
          5 85 5 0 -10 callgsubr
          -31 -88 30 hvcurveto
          hintmask 1010011100100100
          -85 29 28 -22 35 hhcurveto
          41 21 29 40 38 -31 87 -43 86 hvcurveto
          150 -74 -27 36 -53 hhcurveto
          -42 -26 -26 -36 -1 hvcurveto
          -1 -9 2 -9 3 -10 rrcurveto
          hintmask 1010011010010100
          -15 -82 -96 -7 -94 hhcurveto
          -48 -93 1 6 -122 hvcurveto
          2 -49 -80 5 -88 hhcurveto
          -110 -29 -32 -44 -52 45 -40 146 hvcurveto
          hintmask 1010011010001100
          39 -1236 -83 hlineto
          hintmask 1010011100100100
          -119 -52 -39 -46 hvcurveto
          endchar
        </CharString>
        <CharString name="Eth">
          89 -15 155 -153 181 540 142 551 154 hstemhm
          298 6 callgsubr
          hintmask 00000000
          hintmask 10111100
          -60 callsubr
          -69 callsubr
          -43 callsubr
          hintmask 01111100
          -25 callsubr
          27 27 6 5 30 hvcurveto
          hintmask 10111100
          10 2 11 2 11 1 rrcurveto
          -533 vlineto
          hintmask 01111100
          -111 hlineto
          -81 -26 -27 -44 hvcurveto
          hintmask 10111100
          -42 22 -29 85 vhcurveto
          111 -542 hlineto
          2 -22 -22 0 -32 hhcurveto
          -98 -48 -34 -57 hvcurveto
          407 66 rmoveto
          565 297 vlineto
          72 32 25 46 40 -34 31 -70 hvcurveto
          -297 549 hlineto
          -68 callgsubr
          endchar
        </CharString>
        <CharString name="Euro">
          265 -15 148 422 142 168 142 420 148 hstem
          275 194 vstem
          145 555 rmoveto
          157 hlineto
          -360 90 306 -210 369 hhcurveto
          195 167 55 73 92 hvcurveto
          100 79 51 62 74 vvcurveto
          40 -29 37 -52 -40 -27 -17 -47 -23 vhcurveto
          -131 -64 -162 -77 -183 hhcurveto
          -282 -228 153 269 -81 hvcurveto
          587 hlineto
          -37 callsubr
          -615 hlineto
          -3 28 -1 29 31 vvcurveto
          27 1 27 2 26 vhcurveto
          746 hlineto
          -37 callsubr
          -720 hlineto
          251 70 194 169 296 hhcurveto
          187 157 -82 -118 73 hvcurveto
          -54 34 29 -19 40 hhcurveto
          49 24 42 49 70 -59 75 -81 58 hvcurveto
          73 -102 -140 54 -199 hhcurveto
          -407 -276 -235 -333 -85 hvcurveto
          -157 hlineto
          -20 callsubr
          134 hlineto
          -3 -28 -1 -28 -28 vvcurveto
          -29 1 -28 2 -27 vhcurveto
          -133 hlineto
          -20 callsubr
          endchar
        </CharString>
        <CharString name="F">
          -6 161 581 146 505 168 -142 128 hstemhm
          311 186 hintmask 00000000
          hintmask 11101000
          132 73 rmoveto
          7 callsubr
          27 28 1 2 34 vhcurveto
          1 29 33 -70 callgsubr
          67 -6 callgsubr
          32 52 -1 27 hhcurveto
          77 29 39 37 48 -33 37 -94 hvcurveto
          -161 581 262 hlineto
          71 13 -36 -72 14 hvcurveto
          -82 17 22 -27 55 hhcurveto
          24 45 19 56 30 -15 33 -15 40 hvcurveto
          -12 31 -12 39 45 vvcurveto
          41 11 32 15 40 vhcurveto
          7 20 3 17 13 vvcurveto
          43 -32 18 -28 -41 -38 -20 -61 -10 vhcurveto
          -6 -41 -22 -16 -35 -7 rrcurveto
          hintmask 11011000
          -6 -28 -91 -3 -174 hhcurveto
          505 vlineto
          81 5 165 13 47 3 rrcurveto
          5 85 -5 0 -10 callgsubr
          -31 -88 30 hvcurveto
          -85 29 28 -22 35 hhcurveto
          41 21 29 40 38 -31 87 -43 86 hvcurveto
          150 -74 -27 36 -53 hhcurveto
          -42 -26 -26 -36 -1 hvcurveto
          hintmask 11101000
          -62 callgsubr
          -80 -88 -7 -94 hhcurveto
          -48 -73 1 6 -122 hvcurveto
          2 -49 -80 5 -88 hhcurveto
          -110 -29 -32 -44 -52 45 -40 116 hvcurveto
          39 -1232 -67 hlineto
          -68 -44 -34 -48 hvcurveto
          endchar
        </CharString>
        <CharString name="G">
          2 callgsubr
          hstem
          10 callsubr
          vstem
          -99 callgsubr
          -31 36 -29 60 rrcurveto
          114 -54 -32 20 -40 hhcurveto
          -32 -33 -26 -43 -2 hvcurveto
          -3 0 -5 1 -6 vhcurveto
          13 -74 -69 4 -105 -34 callgsubr
          endchar
        </CharString>
        <CharString name="Gbreve">
          -28 callsubr
          48 151 -151 -41 callgsubr
          88 195 205 161 313 170 184 173 hintmask 1101011111000000
          -99 callgsubr
          -38 31 -17 64 rrcurveto
          89 -24 -37 16 -40 hhcurveto
          -29 -31 -22 -36 -6 hvcurveto
          hintmask 1110011111000000
          17 -85 -74 5 -119 -34 callgsubr
          712 893 rmoveto
          199 133 158 151 45 -32 27 -37 -69 -32 -34 -51 hvcurveto
          hintmask 1101101111000000
          -71 -44 -74 -104 -104 -61 77 68 vhcurveto
          hintmask 1101011111000000
          52 -34 33 -58 -37 -32 -27 -45 -125 112 -184 200 vhcurveto
          endchar
        </CharString>
        <CharString name="Gcircumflex">
          -28 callsubr
          429 -20 hstemhm
          10 callsubr
          hintmask 11011110
          -99 callgsubr
          -38 31 -17 64 rrcurveto
          89 -24 -37 16 -40 hhcurveto
          -29 -31 -22 -36 -6 hvcurveto
          hintmask 11101110
          17 -85 -74 5 -119 -34 callgsubr
          453 893 -106 callgsubr
        </CharString>
        <CharString name="Gcommaaccent">
          2 callgsubr
          hstemhm
          10 callsubr
          vstemhm
          -99 callgsubr
          -31 36 -29 60 rrcurveto
          114 -54 -32 20 -40 hhcurveto
          -32 -33 -26 -43 -2 hvcurveto
          -3 0 -5 1 -6 vhcurveto
          13 -74 -69 4 -105 -34 callgsubr
          661 -975 -97 callgsubr
        </CharString>
        <CharString name="Gdotaccent">
          -28 callsubr
          126 287 hstemhm
          88 195 369 290 374 173 hintmask 11011111
          -99 callgsubr
          -38 31 -17 64 rrcurveto
          89 -24 -37 16 -40 hhcurveto
          -29 -31 -22 -36 -6 hvcurveto
          hintmask 11101111
          17 -85 -74 5 -119 -34 callgsubr
          711 971 -92 callsubr
        </CharString>
        <CharString name="H">
          259 3 158 688 147 398 161 hstem
          307 186 718 185 vstem
          111 -58 callsubr
          28 27 1 2 34 vhcurveto
          1 31 31 -70 callgsubr
          37 -2 -1 26 hvcurveto
          -2 33 19 -1 27 hhcurveto
          77 30 39 37 48 -34 37 -94 hvcurveto
          -81 688 718 -688 -94 hlineto
          -68 -45 -34 -48 -48 37 -31 61 26 28 1 2 32 hvcurveto
          1 31 34 2 48 hhcurveto
          44 35 -73 callgsubr
          21 -1 24 hhcurveto
          79 27 39 37 48 -32 37 -92 hvcurveto
          -72 1233 72 hlineto
          92 32 35 48 39 -27 39 -79 -24 -21 -1 -2 -32 hvcurveto
          -2 -29 -35 -2 -44 hhcurveto
          -48 -34 2 2 -31 hvcurveto
          2 -32 -28 -33 callsubr
          -61 -37 -33 -48 -48 45 -29 callsubr
          94 -398 -718 398 81 hlineto
          94 34 35 48 39 -30 39 -77 -27 -19 -1 -2 -33 hvcurveto
          -2 -26 -37 -2 -45 hhcurveto
          -49 -31 2 2 -31 hvcurveto
          2 -34 -27 1 -28 hhcurveto
          -59 -38 -33 -48 -48 44 -32 70 hvcurveto
          82 -1233 -82 hlineto
          -70 -44 -34 -48 hvcurveto
          endchar
        </CharString>
        <CharString name="Hbar">
          262 0 161 366 147 181 162 397 161 hstemhm
          113 382 -186 186 -186 395 302 392 -185 185 -185 381 hintmask 1111100100000000
          113 -58 callsubr
          28 27 1 2 34 vhcurveto
          1 31 31 -70 callgsubr
          37 -2 -1 26 hvcurveto
          -2 33 19 -1 27 hhcurveto
          hintmask 1111001100000000
          77 30 39 37 48 -34 37 -94 hvcurveto
          hintmask 1111100010000000
          -81 366 718 -366 -94 hlineto
          hintmask 1111100100000000
          -68 -45 -34 -48 -48 37 -31 61 26 28 1 2 32 hvcurveto
          1 31 34 2 48 hhcurveto
          44 35 -73 callgsubr
          21 -1 24 hhcurveto
          hintmask 1111100001000000
          79 27 39 37 48 -32 37 -92 hvcurveto
          hintmask 1111100100000000
          -72 694 71 hlineto
          -81 callgsubr
          -71 397 72 hlineto
          hintmask 1111100001000000
          92 32 35 48 39 -27 39 -79 -24 -21 -1 -2 -32 hvcurveto
          -2 -29 -35 -2 -44 hhcurveto
          -48 -34 2 2 -31 hvcurveto
          2 -32 -28 -33 callsubr
          hintmask 1111100100000000
          -61 -37 -33 -48 -48 45 -29 callsubr
          hintmask 1111100010000000
          94 -397 -718 397 81 hlineto
          hintmask 1111001100000000
          94 34 35 48 39 -30 39 -77 -27 -19 -1 -2 -33 hvcurveto
          -2 -26 -37 -2 -45 hhcurveto
          -49 -31 2 2 -31 hvcurveto
          2 -34 -27 1 -28 hhcurveto
          hintmask 1111100100000000
          -59 -38 -33 -48 -48 44 -32 70 hvcurveto
          hintmask 1111010100000000
          82 -397 -69 hlineto
          hintmask 1111100100000000
          -78 callgsubr
          hintmask 1111010100000000
          69 -694 -82 hlineto
          hintmask 1111100010000000
          -70 -44 -34 -48 hvcurveto
          382 595 rmoveto
          181 718 -181 vlineto
          endchar
        </CharString>
        <CharString name="Hcircumflex">
          259 3 158 688 147 398 161 hstem
          307 186 718 185 vstem
          111 -58 callsubr
          28 27 1 2 34 vhcurveto
          1 31 31 -70 callgsubr
          37 -2 -1 26 hvcurveto
          -2 33 19 -1 27 hhcurveto
          77 30 39 37 48 -34 37 -94 hvcurveto
          -81 688 718 -688 -94 hlineto
          -68 -45 -34 -48 -48 37 -31 61 26 28 1 2 32 hvcurveto
          1 31 34 2 48 hhcurveto
          44 35 -73 callgsubr
          21 -1 24 hhcurveto
          79 27 39 37 48 -32 37 -92 hvcurveto
          -72 1233 72 hlineto
          92 32 35 48 39 -27 39 -79 -24 -21 -1 -2 -32 hvcurveto
          -2 -29 -35 -2 -44 hhcurveto
          -48 -34 2 2 -31 hvcurveto
          2 -32 -28 -33 callsubr
          -61 -37 -33 -48 -48 45 -29 callsubr
          94 -398 -718 398 81 hlineto
          94 34 35 48 39 -30 39 -77 -27 -19 -1 -2 -33 hvcurveto
          -2 -26 -37 -2 -45 hhcurveto
          -49 -31 2 2 -31 hvcurveto
          2 -34 -27 1 -28 hhcurveto
          -59 -38 -33 -48 -48 44 -32 70 hvcurveto
          82 -1233 -82 hlineto
          -70 -44 -34 -48 hvcurveto
          510 1560 -106 callgsubr
        </CharString>
        <CharString name="I">
          -595 -64 callsubr
          hstem
          336 186 vstem
          139 -40 callsubr
          33 -70 callgsubr
          34 -73 callgsubr
          10 -83 callgsubr
          -60 1233 60 hlineto
          94 32 35 48 39 -28 39 -79 -25 -10 -1 -2 -32 hvcurveto
          -2 -29 -34 -2 -45 hhcurveto
          -49 -33 -62 callsubr
          -19 -33 callsubr
          -59 -38 -33 -48 -48 44 -29 callsubr
          85 -1233 -85 hlineto
          -68 -44 -34 -48 hvcurveto
          endchar
        </CharString>
        <CharString name="IJ">
          773 -15 161 -146 161 491 197 535 157 -147 158 hstemhm
          385 186 360 185 715 186 hintmask 01001100
          188 -40 callsubr
          33 -70 callgsubr
          34 -73 callgsubr
          10 -83 callgsubr
          -60 1233 60 hlineto
          94 32 35 48 39 -28 39 -79 -25 -10 -1 -2 -32 hvcurveto
          -2 -29 -34 -2 -45 hhcurveto
          -49 -33 -62 callsubr
          -19 -33 callsubr
          -59 -38 -33 -48 -48 44 -29 callsubr
          85 -1233 -85 hlineto
          -68 -44 -34 -48 hvcurveto
          hintmask 10110011
          743 360 -80 callgsubr
        </CharString>
        <CharString name="Iacute">
          -595 -64 callsubr
          hstem
          336 186 vstem
          139 -40 callsubr
          33 -70 callgsubr
          34 -73 callgsubr
          10 -83 callgsubr
          -60 1233 60 hlineto
          94 32 35 48 39 -28 39 -79 -25 -10 -1 -2 -32 hvcurveto
          -2 -29 -34 -2 -45 hhcurveto
          -49 -33 -62 callsubr
          -19 -33 callsubr
          -59 -38 -33 -48 -48 44 -29 callsubr
          85 -1233 -85 hlineto
          -68 -44 -34 -48 hvcurveto
          136 1560 -105 callgsubr
        </CharString>
        <CharString name="Ibreve">
          -595 -64 callsubr
          hstem
          336 186 vstem
          139 -40 callsubr
          33 -70 callgsubr
          34 -73 callgsubr
          10 -83 callgsubr
          -60 1233 60 hlineto
          94 32 35 48 39 -28 39 -79 -25 -10 -1 -2 -32 hvcurveto
          -2 -29 -34 -2 -45 hhcurveto
          -49 -33 -62 callsubr
          -19 -33 callsubr
          -59 -38 -33 -48 -48 44 -29 callsubr
          85 -1233 -85 hlineto
          -68 -44 -34 -48 hvcurveto
          307 1560 -92 callgsubr
        </CharString>
        <CharString name="Icircumflex">
          -595 -64 callsubr
          hstem
          336 186 vstem
          139 -40 callsubr
          33 -70 callgsubr
          34 -73 callgsubr
          10 -83 callgsubr
          -60 1233 60 hlineto
          94 32 35 48 39 -28 39 -79 -25 -10 -1 -2 -32 hvcurveto
          -2 -29 -34 -2 -45 hhcurveto
          -49 -33 -62 callsubr
          -19 -33 callsubr
          -59 -38 -33 -48 -48 44 -29 callsubr
          85 -1233 -85 hlineto
          -68 -44 -34 -48 hvcurveto
          42 1560 -106 callgsubr
        </CharString>
        <CharString name="Idieresis">
          -595 -64 callsubr
          hstemhm
          336 186 vstemhm
          139 -40 callsubr
          33 -70 callgsubr
          34 -73 callgsubr
          10 -83 callgsubr
          -60 1233 60 hlineto
          94 32 35 48 39 -28 39 -79 -25 -10 -1 -2 -32 hvcurveto
          -2 -29 -34 -2 -45 hhcurveto
          -49 -33 -62 callsubr
          -19 -33 callsubr
          -59 -38 -33 -48 -48 44 -29 callsubr
          85 -1233 -85 hlineto
          -68 -44 -34 -48 hvcurveto
          536 1661 rmoveto
          -96 callsubr
          -480 hmoveto
          -96 callsubr
          endchar
        </CharString>
        <CharString name="Idotaccent">
          -595 -64 callsubr
          hstem
          336 186 vstem
          139 -40 callsubr
          33 -70 callgsubr
          34 -73 callgsubr
          10 -83 callgsubr
          -60 1233 60 hlineto
          94 32 35 48 39 -28 39 -79 -25 -10 -1 -2 -32 hvcurveto
          -2 -29 -34 -2 -45 hhcurveto
          -49 -33 -62 callsubr
          -19 -33 callsubr
          -59 -38 -33 -48 -48 44 -29 callsubr
          85 -1233 -85 hlineto
          -68 -44 -34 -48 hvcurveto
          306 1638 -92 callsubr
        </CharString>
        <CharString name="Igrave">
          -595 -64 callsubr
          hstem
          336 186 vstem
          139 -40 callsubr
          33 -70 callgsubr
          34 -73 callgsubr
          10 -83 callgsubr
          -60 1233 60 hlineto
          94 32 35 48 39 -28 39 -79 -25 -10 -1 -2 -32 hvcurveto
          -2 -29 -34 -2 -45 hhcurveto
          -49 -33 -62 callsubr
          -19 -33 callsubr
          -59 -38 -33 -48 -48 44 -29 callsubr
          85 -1233 -85 hlineto
          -68 -44 -34 -48 hvcurveto
          404 1560 rmoveto
          31 19 23 31 14 -7 25 -28 25 hvcurveto
          -42 37 -64 84 -40 61 rrcurveto
          60 -41 -30 21 -46 hhcurveto
          -59 -38 -37 -51 -44 27 -41 50 -33 hvcurveto
          100 -66 40 -27 52 -46 rrcurveto
          -29 33 18 -7 25 hhcurveto
          endchar
        </CharString>
        <CharString name="Imacron">
          -595 -64 callsubr
          hstem
          336 186 vstem
          139 -40 callsubr
          33 -70 callgsubr
          34 -73 callgsubr
          10 -83 callgsubr
          -60 1233 60 hlineto
          94 32 35 48 39 -28 39 -79 -25 -10 -1 -2 -32 hvcurveto
          -2 -29 -34 -2 -45 hhcurveto
          -49 -33 -62 callsubr
          -19 -33 callsubr
          -59 -38 -33 -48 -48 44 -29 callsubr
          85 -1233 -85 hlineto
          -68 -44 -34 -48 hvcurveto
          126 1779 rmoveto
          373 hlineto
          -81 callgsubr
          -373 hlineto
          -78 callgsubr
          endchar
        </CharString>
        <CharString name="Iogonek">
          -595 -49 callsubr
          249 161 1233 161 hstemhm
          139 383 -304 180 -62 186 -186 376 hintmask 10111000
          139 -60 callgsubr
          19 1 2 33 vhcurveto
          19 hlineto
          hintmask 01110100
          -86 -93 -29 -78 -88 -9 callsubr
          hintmask 01110001
          -28 callgsubr
          hintmask 10110100
          -47 callsubr
          -29 41 52 59 20 89 105 110 hvcurveto
          11 hlineto
          -2 32 10 -83 callgsubr
          hintmask 10111000
          -60 1233 60 hlineto
          94 32 35 48 39 -28 39 -79 -25 -10 -1 -2 -32 hvcurveto
          -2 -29 -34 -2 -45 hhcurveto
          -49 -33 -62 callsubr
          -19 -33 callsubr
          -59 -38 -33 -48 -48 44 -29 callsubr
          hintmask 10110010
          85 -1233 -85 hlineto
          hintmask 10111000
          -68 -44 -34 -48 hvcurveto
          endchar
        </CharString>
        <CharString name="Itilde">
          -595 -64 callsubr
          hstem
          336 186 vstem
          139 -40 callsubr
          33 -70 callgsubr
          34 -73 callgsubr
          10 -83 callgsubr
          -60 1233 60 hlineto
          94 32 35 48 39 -28 39 -79 -25 -10 -1 -2 -32 hvcurveto
          -2 -29 -34 -2 -45 hhcurveto
          -49 -33 -62 callsubr
          -19 -33 callsubr
          -59 -38 -33 -48 -48 44 -29 callsubr
          85 -1233 -85 hlineto
          -68 -44 -34 -48 hvcurveto
          1664 vmoveto
          -88 callgsubr
          -89 callgsubr
        </CharString>
        <CharString name="J">
          -79 -15 161 506 197 535 157 hstem
          113 185 715 186 vstem
          113 439 -80 callgsubr
        </CharString>
        <CharString name="Jcircumflex">
          -79 -15 161 474 229 -197 197 375 395 -236 172 465 -20 hstemhm
          113 185 715 186 hintmask 11001111
          113 439 rmoveto
          -227 169 -227 323 253 200 123 205 87 vhcurveto
          39 93 15 137 142 vvcurveto
          396 vlineto
          204 12 126 18 vvcurveto
          90 -53 36 -88 -42 -35 -4 -4 -51 vhcurveto
          -3 -40 -170 -3 -65 hhcurveto
          -228 hlineto
          hintmask 11010111
          43 -3 -29 35 -38 hhcurveto
          hintmask 11001111
          -47 -26 -16 -48 -15 hvcurveto
          -17 -55 -33 -54 -41 -52 rrcurveto
          -28 -37 -16 -31 -35 vvcurveto
          hintmask 11010111
          -41 32 -26 39 42 36 29 20 18 vhcurveto
          hintmask 10101111
          61 71 2 30 283 9 rrcurveto
          1 67 174 0 113 hhcurveto
          -688 vlineto
          -119 -3 -104 -24 -73 vhcurveto
          -130 -44 -113 -124 -219 hhcurveto
          -180 -132 123 175 116 57 92 97 17 7 -3 -15 24 hvcurveto
          hintmask 11010111
          -8 12 16 -6 24 hhcurveto
          63 49 43 60 80 -65 46 -111 -226 -149 -212 -198 hvcurveto
          416 1200 -106 callgsubr
        </CharString>
        <CharString name="K">
          89 3 158 1233 158 hstem
          344 186 vstem
          137 -23 callsubr
          33 -70 callgsubr
          34 -67 callsubr
          -70 513 hlineto
          91 48 89 53 83 56 194 -220 149 -215 75 -235 rrcurveto
          -73 hlineto
          -68 -44 -34 -48 7 callsubr
          26 29 1 2 33 hvcurveto
          1 30 13 -70 callgsubr
          29 -67 callsubr
          -56 hlineto
          -88 274 -173 274 -211 222 200 149 165 155 106 108 rrcurveto
          59 61 16 32 46 vvcurveto
          46 -40 27 -43 -46 -33 -20 -95 -77 vhcurveto
          -176 -216 -330 -269 -207 -118 rrcurveto
          557 70 12 callgsubr
          -20 -1 -2 -32 hvcurveto
          -2 -29 -34 -2 -45 hhcurveto
          -49 -33 -74 callgsubr
          95 -1233 -95 hlineto
          -68 -44 -34 -48 hvcurveto
          endchar
        </CharString>
        <CharString name="Kcommaaccent">
          89 3 158 1233 158 hstemhm
          344 186 vstemhm
          137 -23 callsubr
          33 -70 callgsubr
          34 -67 callsubr
          -70 513 hlineto
          91 48 89 53 83 56 194 -220 149 -215 75 -235 rrcurveto
          -73 hlineto
          -68 -44 -34 -48 7 callsubr
          26 29 1 2 33 hvcurveto
          1 30 13 -70 callgsubr
          29 -67 callsubr
          -56 hlineto
          -88 274 -173 274 -211 222 200 149 165 155 106 108 rrcurveto
          59 61 16 32 46 vvcurveto
          46 -40 27 -43 -46 -33 -20 -95 -77 vhcurveto
          -176 -216 -330 -269 -207 -118 rrcurveto
          557 70 12 callgsubr
          -20 -1 -2 -32 hvcurveto
          -2 -29 -34 -2 -45 hhcurveto
          -49 -33 -74 callgsubr
          95 -1233 -95 hlineto
          -68 -44 -34 -48 hvcurveto
          600 -308 -97 callgsubr
        </CharString>
        <CharString name="L">
          -31 callsubr
          1227 161 hstemhm
          381 186 hintmask 00000000
          hintmask 01110000
          -95 callsubr
          hintmask 10110000
          -49 -43 -74 callgsubr
          101 -1227 -83 hlineto
          hintmask 01110000
          -119 -52 -39 -46 hvcurveto
          endchar
        </CharString>
        <CharString name="Lacute">
          -31 callsubr
          1227 161 hstemhm
          381 186 hintmask 00000000
          hintmask 01110000
          -95 callsubr
          hintmask 10110000
          -49 -43 -74 callgsubr
          101 -1227 -83 hlineto
          hintmask 01110000
          -119 -52 -39 -46 hvcurveto
          193 1557 -105 callgsubr
        </CharString>
        <CharString name="Lcaron">
          -31 callsubr
          891 536 -200 161 hstemhm
          381 186 331 286 hintmask 00000000
          hintmask 01011000
          -95 callsubr
          hintmask 10011000
          -49 -43 -74 callgsubr
          101 -1227 -83 hlineto
          hintmask 01011000
          -119 -52 -39 -46 hvcurveto
          hintmask 00100100
          916 1512 -49 callgsubr
          endchar
        </CharString>
        <CharString name="Lcommaaccent">
          -31 callsubr
          1227 161 hstemhm
          381 186 hintmask 00000000
          hintmask 01110000
          -95 callsubr
          hintmask 10110000
          -49 -43 -74 callgsubr
          101 -1227 -83 hlineto
          hintmask 01110000
          -119 -52 -39 -46 hvcurveto
          hintmask 00000000
          440 -311 -97 callgsubr
        </CharString>
        <CharString name="Ldot">
          -31 callsubr
          783 287 157 161 hstemhm
          381 186 388 290 hintmask 00000000
          hintmask 01011000
          -95 callsubr
          hintmask 10011000
          -49 -43 -74 callgsubr
          101 -1227 -83 hlineto
          hintmask 01011000
          -119 -52 -39 -46 hvcurveto
          hintmask 00100100
          828 1012 rmoveto
          -16 callsubr
        </CharString>
        <CharString name="Lslash">
          -31 callsubr
          1227 161 hstemhm
          381 186 hintmask 00000000
          hintmask 01110000
          127 82 rmoveto
          -59 34 -23 75 13 15 1 4 46 vhcurveto
          7 90 73 4 98 hhcurveto
          103 74 -3 -2 82 hvcurveto
          74 -2 73 -9 45 -9 rrcurveto
          -1 -7 0 -7 -6 vvcurveto
          -56 36 -38 46 37 31 31 67 16 vhcurveto
          21 98 52 128 69 94 28 39 8 29 -3 24 rrcurveto
          40 -5 -29 32 -38 hhcurveto
          -42 -34 -14 -126 -70 hvcurveto
          -123 -70 -43 -48 -72 hhcurveto
          -108 -115 5 11 -169 hvcurveto
          642 vlineto
          156 90 -12 callsubr
          -78 -45 rlineto
          431 85 vlineto
          93 34 35 48 39 -30 39 -77 -27 -19 -1 -2 -33 hvcurveto
          -2 -26 -47 -2 -45 hhcurveto
          hintmask 10110000
          -49 -43 -74 callgsubr
          101 -536 hlineto
          -149 -85 2 callsubr
          33 12 32 56 vhcurveto
          62 35 rlineto
          -532 -83 vlineto
          hintmask 01110000
          -119 -52 -39 -46 hvcurveto
          endchar
        </CharString>
        <CharString name="M">
          -85 callgsubr
          endchar
        </CharString>
        <CharString name="N">
          14 callsubr
          hstem
          345 184 809 184 vstem
          137 79 rmoveto
          -48 37 -31 58 28 28 1 2 33 vhcurveto
          1 31 32 16 callgsubr
          37 -2 -1 26 hvcurveto
          -2 34 19 -1 26 hhcurveto
          77 30 39 37 48 -34 37 -92 hvcurveto
          -71 929 hlineto
          64 -3 77 -6 70 vhcurveto
          766 -1196 rlineto
          -57 38 72 -48 90 hhcurveto
          88 hlineto
          98 32 31 47 49 -35 35 -95 hvcurveto
          -52 1232 73 hlineto
          93 32 35 48 39 -28 39 -78 -25 -20 -1 -2 -33 hvcurveto
          -2 -28 -36 -2 -44 hhcurveto
          -48 -34 -59 callgsubr
          94 -921 hlineto
          -49 3 -64 4 -60 vhcurveto
          -647 1033 -125 198 -73 23 -248 1 rlinecurve
          -88 -45 -29 -50 -53 46 -37 95 4 hvcurveto
          85 8 rlineto
          -1237 -96 vlineto
          -69 -43 -34 -48 hvcurveto
          endchar
        </CharString>
        <CharString name="Nacute">
          14 callsubr
          hstem
          345 184 809 184 vstem
          137 79 rmoveto
          -48 37 -31 58 28 28 1 2 33 vhcurveto
          1 31 32 16 callgsubr
          37 -2 -1 26 hvcurveto
          -2 34 19 -1 26 hhcurveto
          77 30 39 37 48 -34 37 -92 hvcurveto
          -71 929 hlineto
          64 -3 77 -6 70 vhcurveto
          766 -1196 rlineto
          -57 38 72 -48 90 hhcurveto
          88 hlineto
          98 32 31 47 49 -35 35 -95 hvcurveto
          -52 1232 73 hlineto
          93 32 35 48 39 -28 39 -78 -25 -20 -1 -2 -33 hvcurveto
          -2 -28 -36 -2 -44 hhcurveto
          -48 -34 -59 callgsubr
          94 -921 hlineto
          -49 3 -64 4 -60 vhcurveto
          -647 1033 -125 198 -73 23 -248 1 rlinecurve
          -88 -45 -29 -50 -53 46 -37 95 4 hvcurveto
          85 8 rlineto
          -1237 -96 vlineto
          -69 -43 -34 -48 hvcurveto
          620 1560 -105 callgsubr
        </CharString>
        <CharString name="Ncaron">
          14 callsubr
          87 -41 callgsubr
          345 184 62 644 103 184 hintmask 11010100
          137 79 rmoveto
          -48 37 -31 58 28 28 1 2 33 vhcurveto
          1 31 32 16 callgsubr
          37 -2 -1 26 hvcurveto
          -2 34 19 -1 26 hhcurveto
          77 30 39 37 48 -34 37 -92 hvcurveto
          -71 929 hlineto
          64 -3 77 -6 70 vhcurveto
          766 -1196 rlineto
          -57 38 72 -48 90 hhcurveto
          88 hlineto
          98 32 31 47 49 -35 35 -95 hvcurveto
          -52 1232 73 hlineto
          93 32 35 48 39 -28 39 -78 -25 -20 -1 -2 -33 hvcurveto
          -2 -28 -36 -2 -44 hhcurveto
          -48 -34 -59 callgsubr
          94 -921 hlineto
          -49 3 -64 4 -60 vhcurveto
          -647 1033 -125 198 -73 23 -248 1 rlinecurve
          -88 -45 -29 -50 -53 46 -37 95 4 hvcurveto
          85 8 rlineto
          -1237 -96 vlineto
          -69 -43 -34 -48 hvcurveto
          hintmask 00101000
          776 1560 -103 callgsubr
        </CharString>
        <CharString name="Ncommaaccent">
          14 callsubr
          hstemhm
          345 184 809 184 vstemhm
          137 79 rmoveto
          -48 37 -31 58 28 28 1 2 33 vhcurveto
          1 31 32 16 callgsubr
          37 -2 -1 26 hvcurveto
          -2 34 19 -1 26 hhcurveto
          77 30 39 37 48 -34 37 -92 hvcurveto
          -71 929 hlineto
          64 -3 77 -6 70 vhcurveto
          766 -1196 rlineto
          -57 38 72 -48 90 hhcurveto
          88 hlineto
          98 32 31 47 49 -35 35 -95 hvcurveto
          -52 1232 73 hlineto
          93 32 35 48 39 -28 39 -78 -25 -20 -1 -2 -33 hvcurveto
          -2 -28 -36 -2 -44 hhcurveto
          -48 -34 -59 callgsubr
          94 -921 hlineto
          -49 3 -64 4 -60 vhcurveto
          -647 1033 -125 198 -73 23 -248 1 rlinecurve
          -88 -45 -29 -50 -53 46 -37 95 4 hvcurveto
          85 8 rlineto
          -1237 -96 vlineto
          -69 -43 -34 -48 hvcurveto
          699 -308 -97 callgsubr
        </CharString>
        <CharString name="Ntilde">
          14 callsubr
          hstem
          345 184 809 184 vstem
          137 79 rmoveto
          -48 37 -31 58 28 28 1 2 33 vhcurveto
          1 31 32 16 callgsubr
          37 -2 -1 26 hvcurveto
          -2 34 19 -1 26 hhcurveto
          77 30 39 37 48 -34 37 -92 hvcurveto
          -71 929 hlineto
          64 -3 77 -6 70 vhcurveto
          766 -1196 rlineto
          -57 38 72 -48 90 hhcurveto
          88 hlineto
          98 32 31 47 49 -35 35 -95 hvcurveto
          -52 1232 73 hlineto
          93 32 35 48 39 -28 39 -78 -25 -20 -1 -2 -33 hvcurveto
          -2 -28 -36 -2 -44 hhcurveto
          -48 -34 -59 callgsubr
          94 -921 hlineto
          -49 3 -64 4 -60 vhcurveto
          -647 1033 -125 198 -73 23 -248 1 rlinecurve
          -88 -45 -29 -50 -53 46 -37 95 4 hvcurveto
          85 8 rlineto
          -1237 -96 vlineto
          -69 -43 -34 -48 hvcurveto
          484 1664 rmoveto
          -88 callgsubr
          -89 callgsubr
        </CharString>
        <CharString name="O">
          -100 callsubr
          endchar
        </CharString>
        <CharString name="OE">
          773 -15 160 -130 128 677 147 449 159 -142 128 hstemhm
          136 183 809 186 hintmask 00000000
          hintmask 01101110
          136 764 rmoveto
          -440 302 -339 462 91 61 6 7 46 vhcurveto
          11 71 50 6 49 hhcurveto
          92 230 -21 -22 177 hvcurveto
          -14 vlineto
          -59 35 -38 47 31 28 17 39 11 vhcurveto
          11 36 4 47 31 77 32 78 25 38 21 27 30 39 9 30 -3 35 rrcurveto
          31 -2 -27 callgsubr
          -57 -80 3 4 -79 hvcurveto
          -65 3 -63 3 -49 1 rrcurveto
          -57 callgsubr
          440 vlineto
          79 5 157 13 47 3 rrcurveto
          5 85 5 0 -10 callgsubr
          -31 -88 30 hvcurveto
          -85 29 28 -22 35 hhcurveto
          41 21 29 40 38 -31 87 -43 86 hvcurveto
          150 -74 -27 36 -53 hhcurveto
          -42 -26 -26 -36 -1 hvcurveto
          hintmask 10110110
          -1 -8 2 -9 3 -10 rrcurveto
          -16 -91 -136 -7 -236 hhcurveto
          -92 -59 3 4 -56 hvcurveto
          4 -59 -54 3 -84 hhcurveto
          hintmask 01101110
          -428 -358 -335 -476 hvcurveto
          hintmask 10110110
          183 12 rmoveto
          356 256 284 325 118 61 -11 -15 49 vhcurveto
          -1211 vlineto
          -23 -65 -72 -11 -81 hhcurveto
          -375 -216 292 339 hvcurveto
          endchar
        </CharString>
        <CharString name="Oacute">
          -100 callsubr
          448 873 -105 callgsubr
        </CharString>
        <CharString name="Obreve">
          -100 callsubr
          603 873 -92 callgsubr
        </CharString>
        <CharString name="Ocircumflex">
          -100 callsubr
          354 873 -106 callgsubr
        </CharString>
        <CharString name="Odieresis">
          261 -15 167 1236 167 hstemhm
          76 183 1186 188 vstemhm
          76 754 rmoveto
          -440 302 -329 462 493 300 341 468 477 -363 284 -408 -428 -358 -325 -476 vhcurveto
          183 12 rmoveto
          356 256 266 323 351 256 -208 -422 -369 -254 -237 -341 -375 -216 275 339 vhcurveto
          848 974 rmoveto
          -96 callsubr
          -480 hmoveto
          -96 callsubr
          endchar
        </CharString>
        <CharString name="Ograve">
          -100 callsubr
          716 873 rmoveto
          31 19 23 31 14 -7 25 -28 25 hvcurveto
          -42 37 -64 84 -40 61 rrcurveto
          60 -41 -30 21 -46 hhcurveto
          -59 -38 -37 -51 -44 27 -41 50 -33 hvcurveto
          100 -66 40 -27 52 -46 rrcurveto
          -29 33 18 -7 25 hhcurveto
          endchar
        </CharString>
        <CharString name="Ohungarumlaut">
          -100 callsubr
          757 853 -93 callgsubr
        </CharString>
        <CharString name="Omacron">
          -100 callsubr
          422 1092 rmoveto
          373 hlineto
          -81 callgsubr
          -373 hlineto
          -78 callgsubr
          endchar
        </CharString>
        <CharString name="Omega">
          608 -7 169 1226 160 hstem
          289 189 1096 189 vstem
          271 76 rmoveto
          -59 67 -26 46 2 vhcurveto
          169 7 127 0 200 -6 rrcurveto
          38 -1 27 47 51 vvcurveto
          85 -69 50 -76 61 vhcurveto
          -155 125 -168 108 1 340 rrcurveto
          324 1 247 204 297 hhcurveto
          303 247 -204 -324 1 hvcurveto
          1 -340 -168 -108 -155 -125 rrcurveto
          -76 -61 -69 -50 -85 vvcurveto
          -51 27 -49 38 3 vhcurveto
          188 14 170 -8 138 -7 rrcurveto
          46 -2 67 26 59 vvcurveto
          48 -37 38 -50 -106 -65 -19 4 -106 vhcurveto
          -22 -28 3 3 -29 hvcurveto
          16 14 19 17 27 20 rrcurveto
          155 116 208 186 335 vvcurveto
          462 -365 245 -372 -372 -365 -245 -462 -335 208 -186 155 -116 vhcurveto
          26 -20 20 -17 16 -14 rrcurveto
          -3 -30 -27 -3 -22 hhcurveto
          -4 -106 -65 19 -106 hhcurveto
          -50 -37 -38 -48 hvcurveto
          endchar
        </CharString>
        <CharString name="Oslash">
          261 -15 167 1236 167 hstem
          76 183 1186 188 vstem
          179 -36 rmoveto
          -49 -65 -8 -25 3 callgsubr
          175 229 rlineto
          -63 112 135 -36 152 hhcurveto
          493 300 341 468 235 -89 189 -139 130 hvcurveto
          106 139 rlineto
          77 100 1 13 32 vvcurveto
          28 -25 20 -30 -39 -30 -26 -55 -42 vhcurveto
          -127 -167 rlineto
          80 -126 -150 43 -158 hhcurveto
          -428 -358 -325 -476 -244 93 -210 161 -138 hvcurveto
          109 144 rmoveto
          -117 112 -63 165 183 vvcurveto
          356 256 266 323 135 121 -31 -62 98 vhcurveto
          -644 -1070 rmoveto
          749 981 rlineto
          93 -104 55 -149 -195 vvcurveto
          -369 -254 -237 -341 -117 -101 27 46 -84 vhcurveto
          endchar
        </CharString>
        <CharString name="Otilde">
          -100 callsubr
          312 977 rmoveto
          -88 callgsubr
          -89 callgsubr
        </CharString>
        <CharString name="P">
          -82 callgsubr
          endchar
        </CharString>
        <CharString name="Q">
          300 -15 167 -165 677 724 167 hstemhm
          94 183 484 993 -291 188 hintmask 01001000
          761 583 rmoveto
          -2 -45 34 -36 72 -3 89 -4 65 -3 213 -237 164 -181 91 -81 132 -6 80 -4 51 17 4 70 2 49 -62 27 -49 2 -138 7 -16 48 -179 201 -196 221 -126 34 -107 5 rrcurveto
          -76 4 -43 -28 -3 -57 rrcurveto
          hintmask 10110100
          -667 171 rmoveto
          -440 302 -329 462 493 300 341 468 477 -363 284 -408 -428 -358 -325 -476 vhcurveto
          183 12 rmoveto
          356 256 266 323 351 256 -208 -422 -369 -254 -237 -341 -375 -216 275 339 vhcurveto
          endchar
        </CharString>
        <CharString name="R">
          -32 callsubr
          hstem
          341 181 756 189 vstem
          149 -40 callsubr
          23 -70 callgsubr
          34 -67 callsubr
          -70 354 288 hlineto
          27 hlineto
          124 -251 103 -120 172 -101 rrcurveto
          -40 66 72 -18 70 hhcurveto
          57 38 35 43 53 -26 31 -107 22 hvcurveto
          -164 36 -112 140 -115 189 rrcurveto
          287 56 165 183 269 vvcurveto
          251 -157 187 -316 52 vhcurveto
          19 -110 -92 4 -246 hhcurveto
          -170 -54 -1 -8 -70 hvcurveto
          -103 -14 -30 -32 -50 vvcurveto
          -50 46 -33 64 33 26 4 11 53 vhcurveto
          -1221 -80 vlineto
          -68 -44 -34 -48 hvcurveto
          373 584 rmoveto
          735 vlineto
          1 24 25 1 32 hhcurveto
          170 131 -3 -26 100 hvcurveto
          181 -48 93 -102 -194 vvcurveto
          -237 -143 -127 -417 vhcurveto
          endchar
        </CharString>
        <CharString name="Racute">
          -32 callsubr
          hstem
          341 181 756 189 vstem
          149 -40 callsubr
          23 -70 callgsubr
          34 -67 callsubr
          -70 354 288 hlineto
          27 hlineto
          124 -251 103 -120 172 -101 rrcurveto
          -40 66 72 -18 70 hhcurveto
          57 38 35 43 53 -26 31 -107 22 hvcurveto
          -164 36 -112 140 -115 189 rrcurveto
          287 56 165 183 269 vvcurveto
          251 -157 187 -316 52 vhcurveto
          19 -110 -92 4 -246 hhcurveto
          -170 -54 -1 -8 -70 hvcurveto
          -103 -14 -30 -32 -50 vvcurveto
          -50 46 -33 64 33 26 4 11 53 vhcurveto
          -1221 -80 vlineto
          -68 -44 -34 -48 hvcurveto
          373 584 rmoveto
          735 vlineto
          1 24 25 1 32 hhcurveto
          170 131 -3 -26 100 hvcurveto
          181 -48 93 -102 -194 vvcurveto
          -237 -143 -127 -417 vhcurveto
          -37 976 -105 callgsubr
        </CharString>
        <CharString name="Rcaron">
          -32 callsubr
          84 -41 callgsubr
          341 181 -7 644 119 189 hintmask 11101010
          149 -40 callsubr
          23 -70 callgsubr
          34 -67 callsubr
          -70 354 288 hlineto
          27 hlineto
          124 -251 103 -120 172 -101 rrcurveto
          -40 66 72 -18 70 hhcurveto
          57 38 35 43 53 -26 31 -107 22 hvcurveto
          -164 36 -112 140 -115 189 rrcurveto
          287 56 165 183 269 vvcurveto
          251 -157 187 -316 52 vhcurveto
          19 -110 -92 4 -246 hhcurveto
          -170 -54 -1 -8 -70 hvcurveto
          -103 -14 -30 -32 -50 vvcurveto
          -50 46 -33 64 33 26 4 11 53 vhcurveto
          -1221 -80 vlineto
          -68 -44 -34 -48 hvcurveto
          373 584 rmoveto
          735 vlineto
          1 24 25 1 32 hhcurveto
          170 131 -3 -26 100 hvcurveto
          181 -48 93 -102 -194 vvcurveto
          -237 -143 -127 -417 vhcurveto
          hintmask 00010100
          119 976 -103 callgsubr
        </CharString>
        <CharString name="Rcommaaccent">
          -32 callsubr
          hstemhm
          341 181 756 189 vstemhm
          149 -40 callsubr
          23 -70 callgsubr
          34 -67 callsubr
          -70 354 288 hlineto
          27 hlineto
          124 -251 103 -120 172 -101 rrcurveto
          -40 66 72 -18 70 hhcurveto
          57 38 35 43 53 -26 31 -107 22 hvcurveto
          -164 36 -112 140 -115 189 rrcurveto
          287 56 165 183 269 vvcurveto
          251 -157 187 -316 52 vhcurveto
          19 -110 -92 4 -246 hhcurveto
          -170 -54 -1 -8 -70 hvcurveto
          -103 -14 -30 -32 -50 vvcurveto
          -50 46 -33 64 33 26 4 11 53 vhcurveto
          -1221 -80 vlineto
          -68 -44 -34 -48 hvcurveto
          373 584 rmoveto
          735 vlineto
          1 24 25 1 32 hhcurveto
          170 131 -3 -26 100 hvcurveto
          181 -48 93 -102 -194 vvcurveto
          -237 -143 -127 -417 vhcurveto
          -65 -892 -97 callgsubr
        </CharString>
        <CharString name="S">
          -79 -8 160 hstem
          192 197 723 181 vstem
          -104 callsubr
          endchar
        </CharString>
        <CharString name="Sacute">
          -79 -8 160 hstem
          192 197 723 181 vstem
          -104 callsubr
          358 1411 -105 callgsubr
        </CharString>
        <CharString name="Scaron">
          -79 -8 160 1487 -41 callgsubr
          192 197 22 644 57 181 hintmask 10101000
          -104 callsubr
          hintmask 01010000
          514 1411 -103 callgsubr
        </CharString>
        <CharString name="Scedilla">
          -79 -479 -21 402 250 1254 253 hstemhm
          192 197 282 352 -181 181 89 181 hintmask 11111010
          219 228 rmoveto
          76 -104 38 -57 8 -82 rrcurveto
          -55 5 30 -28 57 hhcurveto
          44 26 26 64 25 hvcurveto
          43 -5 46 -3 29 1 30 2 30 1 29 3 rrcurveto
          -53 -107 -11 -35 -26 vvcurveto
          -12 callgsubr
          hintmask 11110110
          -82 callsubr
          16 35 18 35 24 40 45 10 44 15 45 22 163 79 148 175 -5 224 -6 259 -164 160 -444 37 rrcurveto
          -222 24 -68 51 107 vvcurveto
          63 73 80 61 32 vhcurveto
          35 65 115 25 99 hhcurveto
          92 39 -27 -139 84 hvcurveto
          -71 44 34 -15 35 hhcurveto
          50 24 34 40 51 -23 27 -57 72 hvcurveto
          -29 36 -40 54 -29 59 rrcurveto
          112 -54 -32 20 -38 hhcurveto
          -32 -34 -26 -42 -3 hvcurveto
          -6 1 -8 1 -8 vhcurveto
          -178 -19 -158 -51 -113 -75 rrcurveto
          -141 -92 -53 -111 -81 vvcurveto
          -168 127 -114 287 -29 vhcurveto
          338 -33 179 -84 -11 -235 rrcurveto
          -166 -8 -121 -159 -282 hhcurveto
          -102 -117 37 54 -59 hvcurveto
          -58 51 -47 76 -53 93 rrcurveto
          85 -48 -39 24 -42 hhcurveto
          -49 -24 -34 -42 -50 27 -44 129 -174 hvcurveto
          endchar
        </CharString>
        <CharString name="Scircumflex">
          -79 -8 160 hstem
          192 197 723 181 vstem
          -104 callsubr
          374 1411 -106 callgsubr
        </CharString>
        <CharString name="Scommaaccent">
          -79 -8 160 hstemhm
          192 197 723 181 vstemhm
          -104 callsubr
          424 -457 -97 callgsubr
        </CharString>
        <CharString name="T">
          -22 callgsubr
          hstem
          488 186 vstem
          -97 callsubr
          endchar
        </CharString>
        <CharString name="Tbar">
          -255 0 161 678 162 223 412 -250 144 -144 250 hstemhm
          240 434 -186 186 -186 434 hintmask 11100001
          241 79 rmoveto
          -48 39 -31 59 25 50 1 2 32 vhcurveto
          1 30 54 -70 callgsubr
          56 -30 callsubr
          32 51 -38 callsubr
          78 28 39 37 48 -32 37 -92 hvcurveto
          hintmask 11001100
          -124 678 146 hlineto
          -81 callgsubr
          -146 385 hlineto
          47 3 48 4 38 3 rrcurveto
          5 83 -3 1 39 hhcurveto
          110 30 -20 -88 33 hvcurveto
          hintmask 11100100
          -49 17 27 -21 33 hhcurveto
          45 30 27 44 46 -23 39 -13 35 hvcurveto
          -27 76 -8 24 -12 59 rrcurveto
          33 -7 -21 29 -44 hhcurveto
          -33 -40 -22 -46 -3 -1 -4 1 -3 hvcurveto
          hintmask 11010100
          -26 -132 -134 -2 -172 hhcurveto
          -230 -122 11 17 -91 hvcurveto
          10 vlineto
          hintmask 11100100
          46 -40 22 -33 -44 -21 -29 -33 -7 vhcurveto
          -12 -59 -8 -24 -27 -76 rrcurveto
          -13 -35 -23 -39 -46 vvcurveto
          -44 30 -27 45 33 26 21 49 18 vhcurveto
          88 32 32 21 110 hhcurveto
          40 15 -1 -6 83 hvcurveto
          hintmask 11100010
          110 -8 rlineto
          -387 -121 vlineto
          hintmask 11100100
          -78 callgsubr
          hintmask 11100010
          121 -678 -134 hlineto
          -68 -45 -34 -48 hvcurveto
          endchar
        </CharString>
        <CharString name="Tcaron">
          -22 callgsubr
          109 -41 callgsubr
          263 644 -419 186 hintmask 11001000
          -97 callsubr
          hintmask 00110000
          344 1560 -103 callgsubr
        </CharString>
        <CharString name="Tcommaaccent">
          -22 callgsubr
          hstemhm
          488 186 vstemhm
          -97 callsubr
          239 -308 -97 callgsubr
        </CharString>
        <CharString name="Thorn">
          91 0 161 193 163 553 165 178 158 hstem
          341 186 726 197 vstem
          134 -23 callsubr
          43 -70 callgsubr
          47 -2 -1 26 hvcurveto
          -2 33 19 -1 27 hhcurveto
          77 30 39 37 48 -34 37 -93 hvcurveto
          -91 202 hlineto
          -5 63 97 -4 68 hhcurveto
          475 220 170 276 266 -243 169 -429 -73 -103 -5 -8 -75 hvcurveto
          191 91 vlineto
          93 -45 callsubr
          37 -30 39 -77 -27 -19 -1 -2 -33 hvcurveto
          -1 -26 -47 -2 -45 hhcurveto
          -49 -43 2 1 -30 hvcurveto
          2 -33 -29 -33 callsubr
          -59 -38 -31 -48 -48 44 -34 68 hvcurveto
          95 -1252 -95 hlineto
          -68 -44 -34 -48 hvcurveto
          393 448 rmoveto
          531 vlineto
          7 62 101 5 75 hhcurveto
          345 143 -115 -165 -172 -142 -101 -346 -56 -97 2 8 -85 hvcurveto
          endchar
        </CharString>
        <CharString name="U">
          -105 callsubr
          endchar
        </CharString>
        <CharString name="Uacute">
          -105 callsubr
          453 245 -105 callgsubr
        </CharString>
        <CharString name="Ubreve">
          -105 callsubr
          588 245 -92 callgsubr
        </CharString>
        <CharString name="Ucircumflex">
          -105 callsubr
          359 245 -106 callgsubr
        </CharString>
        <CharString name="Udieresis">
          87 -15 158 1251 158 hstemhm
          181 186 828 185 vstemhm
          181 591 rmoveto
          -384 264 -222 338 320 277 245 357 vhcurveto
          807 34 vlineto
          93 32 35 48 39 -28 39 -78 -25 -20 -1 -2 -33 hvcurveto
          -2 -28 -36 -2 -44 hhcurveto
          -48 -6 2 2 -31 hvcurveto
          2 -32 -9 -33 callsubr
          -58 -19 -33 -48 -48 25 -29 callsubr
          84 -800 hlineto
          -304 -188 -147 -220 -234 -186 143 308 vhcurveto
          800 63 vlineto
          93 12 35 48 39 -8 39 -78 -25 -10 -1 -2 -33 hvcurveto
          -2 -28 -16 -2 -44 hhcurveto
          -48 -16 -59 callgsubr
          54 hlineto
          853 346 rmoveto
          -96 callsubr
          -480 hmoveto
          -96 callsubr
          endchar
        </CharString>
        <CharString name="Ugrave">
          -105 callsubr
          721 245 rmoveto
          31 19 23 31 14 -7 25 -28 25 hvcurveto
          -42 37 -64 84 -40 61 rrcurveto
          60 -41 -30 21 -46 hhcurveto
          -59 -38 -37 -51 -44 27 -41 50 -33 hvcurveto
          100 -66 40 -27 52 -46 rrcurveto
          -29 33 18 -7 25 hhcurveto
          endchar
        </CharString>
        <CharString name="Uhungarumlaut">
          -105 callsubr
          742 225 -93 callgsubr
        </CharString>
        <CharString name="Umacron">
          -105 callsubr
          407 464 rmoveto
          373 hlineto
          -81 callgsubr
          -373 hlineto
          -78 callgsubr
          endchar
        </CharString>
        <CharString name="Uogonek">
          87 -49 callsubr
          234 158 1251 161 hstemhm
          14 353 -186 186 -186 354 105 180 -180 494 -116 362 -185 185 -185 344 hintmask 0111010010100000
          181 591 rmoveto
          -384 264 -222 338 vhcurveto
          2 hlineto
          -85 -66 -60 -95 -90 vvcurveto
          -144 111 -59 callsubr
          hintmask 1011100101000000
          -47 callsubr
          -19 42 52 132 191 137 88 58 hvcurveto
          167 102 114 183 229 vvcurveto
          807 34 vlineto
          hintmask 1011100100010000
          93 32 35 48 39 -28 39 -78 -25 -20 -1 -2 -33 hvcurveto
          -2 -28 -36 -2 -44 hhcurveto
          -48 -6 2 2 -31 hvcurveto
          2 -32 -9 -33 callsubr
          hintmask 1011100101000000
          -58 -19 -33 -48 -48 25 -29 callsubr
          hintmask 1011100100100000
          84 -800 hlineto
          -304 -188 -147 -220 -234 -186 143 308 vhcurveto
          800 63 vlineto
          hintmask 1011001101000000
          93 12 35 48 39 -8 39 -78 -25 -10 -1 -2 -33 hvcurveto
          -2 -28 -16 -2 -44 hhcurveto
          -48 -16 2 2 -31 hvcurveto
          2 -32 -29 -33 callsubr
          hintmask 1011100101000000
          -73 callsubr
          hintmask 1011010101000000
          54 hlineto
          endchar
        </CharString>
        <CharString name="Uring">
          -105 callsubr
          580 122 -52 callgsubr
        </CharString>
        <CharString name="Utilde">
          -105 callsubr
          297 349 rmoveto
          -88 callgsubr
          -89 callgsubr
        </CharString>
        <CharString name="V">
          85 1382 154 -152 171 hstemhm
          -41 1609 hintmask 00000000
          hintmask 01100000
          659 71 rmoveto
          -75 28 27 -20 49 hhcurveto
          50 25 23 72 28 hvcurveto
          29 75 53 129 95 230 198 461 rcurveline
          166 396 9 17 82 16 rrcurveto
          32 6 38 17 53 vvcurveto
          45 -31 27 -62 -10 -22 -2 -2 -26 vhcurveto
          -2 -24 -28 -1 -27 hhcurveto
          -43 -24 3 6 -64 hvcurveto
          4 -39 -30 6 -38 hhcurveto
          -56 -45 -33 -42 -57 48 -41 121 17 16 0 1 18 hvcurveto
          -433 -1108 rlineto
          -12 -5 -9 -5 -5 hhcurveto
          hintmask 10100000
          -9 -3 2 15 -6 hvcurveto
          -433 1109 rlineto
          42 hlineto
          127 42 36 62 42 -43 31 -55 hvcurveto
          hintmask 01100000
          -39 -32 -4 -4 -39 hvcurveto
          -4 -42 -45 -5 -44 hhcurveto
          -28 -25 2 2 -24 hvcurveto
          2 -22 -21 1 -22 hhcurveto
          -50 -37 -33 -39 -30 17 -20 51 -19 hvcurveto
          83 -31 24 -40 151 -367 199 -461 rcurveline
          95 -230 49 -116 31 -88 rrcurveto
          endchar
        </CharString>
        <CharString name="W">
          945 1382 154 hstem
          -43 2475 vstem
          -103 callsubr
          endchar
        </CharString>
        <CharString name="Wacute">
          945 1382 154 hstem
          -43 2475 vstem
          -103 callsubr
          483 1560 -105 callgsubr
        </CharString>
        <CharString name="Wcircumflex">
          945 1382 154 hstem
          -43 2475 vstem
          -103 callsubr
          389 1560 -106 callgsubr
        </CharString>
        <CharString name="Wdieresis">
          945 1382 154 hstemhm
          -43 2475 vstemhm
          -103 callsubr
          883 1661 rmoveto
          -96 callsubr
          -480 hmoveto
          -96 callsubr
          endchar
        </CharString>
        <CharString name="Wgrave">
          945 1382 154 hstem
          -43 2475 vstem
          -103 callsubr
          751 1560 rmoveto
          31 19 23 31 14 -7 25 -28 25 hvcurveto
          -42 37 -64 84 -40 61 rrcurveto
          60 -41 -30 21 -46 hhcurveto
          -59 -38 -37 -51 -44 27 -41 50 -33 hvcurveto
          100 -66 40 -27 52 -46 rrcurveto
          -29 33 18 -7 25 hhcurveto
          endchar
        </CharString>
        <CharString name="X">
          257 7 158 -150 150 1217 173 hstemhm
          -35 1771 hintmask 00000000
          hintmask 10110000
          53 hmoveto
          17 39 4 3 41 hvcurveto
          4 41 44 3 27 hhcurveto
          hintmask 01110000
          51 32 -4 -3 32 hvcurveto
          -4 34 33 -3 52 hhcurveto
          hintmask 10110000
          54 47 30 43 61 -54 31 -125 hvcurveto
          -23 hlineto
          450 539 453 -539 rlineto
          -24 hlineto
          -127 -53 -31 -61 -43 46 -30 55 54 37 4 4 36 hvcurveto
          4 35 34 3 48 hhcurveto
          25 40 -3 -3 39 hvcurveto
          -4 44 43 -4 19 hhcurveto
          51 36 31 39 72 -69 4 -47 8 hvcurveto
          -93 17 -59 52 -310 376 -197 227 rcurveline
          116 138 196 241 97 153 160 29 rlinecurve
          47 8 68 5 70 vvcurveto
          39 -37 33 -50 -20 -26 -1 -3 -29 vhcurveto
          -2 -21 -23 -1 -23 hhcurveto
          -44 -44 5 4 -43 hvcurveto
          4 -40 -60 6 -39 hhcurveto
          -54 -37 -33 -42 -59 40 -36 113 -3 hvcurveto
          -368 -438 -369 438 rlineto
          3 hlineto
          124 44 36 62 42 -37 33 -55 -38 -61 -6 -4 -39 hvcurveto
          -4 -42 -45 -5 -44 hhcurveto
          -26 -27 1 2 -26 hvcurveto
          2 -28 -26 2 -19 hhcurveto
          -50 -37 -33 -39 -70 69 -5 46 -8 hvcurveto
          161 -29 104 -174 200 -242 103 -122 rcurveline
          -187 -225 -343 -419 -4 -2 -110 -20 rlinecurve
          -87 -15 -29 -21 -48 vvcurveto
          -39 38 -32 50 vhcurveto
          endchar
        </CharString>
        <CharString name="Y">
          -35 callgsubr
          hstem
          766 186 vstem
          -102 callsubr
          endchar
        </CharString>
        <CharString name="Yacute">
          -35 callgsubr
          hstem
          766 186 vstem
          -102 callsubr
          179 1560 -105 callgsubr
        </CharString>
        <CharString name="Ycircumflex">
          -35 callgsubr
          hstem
          766 186 vstem
          -102 callsubr
          85 1560 -106 callgsubr
        </CharString>
        <CharString name="Ydieresis">
          -35 callgsubr
          hstemhm
          766 186 vstemhm
          -102 callsubr
          579 1661 rmoveto
          -96 callsubr
          -480 hmoveto
          -96 callsubr
          endchar
        </CharString>
        <CharString name="Ygrave">
          -35 callgsubr
          hstem
          766 186 vstem
          -102 callsubr
          447 1560 rmoveto
          31 19 23 31 14 -7 25 -28 25 hvcurveto
          -42 37 -64 84 -40 61 rrcurveto
          60 -41 -30 21 -46 hhcurveto
          -59 -38 -37 -51 -44 27 -41 50 -33 hvcurveto
          100 -66 40 -27 52 -46 rrcurveto
          -29 33 18 -7 25 hhcurveto
          endchar
        </CharString>
        <CharString name="Z">
          -94 callgsubr
          endchar
        </CharString>
        <CharString name="Zacute">
          -94 callgsubr
          633 1573 -105 callgsubr
        </CharString>
        <CharString name="Zcaron">
          81 -5 141 -136 157 1226 138 118 -41 callgsubr
          61 1409 -942 644 hintmask 00000000
          hintmask 01101000
          61 66 rmoveto
          -59 33 -23 75 13 16 1 4 45 vhcurveto
          7 88 76 4 97 hhcurveto
          104 205 -3 -2 81 hvcurveto
          74 -1 72 -10 45 -9 rrcurveto
          -3 -10 0 -9 -10 vvcurveto
          -50 -1 28 -35 46 hhcurveto
          30 32 16 82 30 hvcurveto
          33 98 65 128 80 94 rrcurveto
          34 39 11 29 24 vvcurveto
          40 -27 32 -37 -42 -34 -14 -126 -88 vhcurveto
          hintmask 10101000
          -123 -83 -48 -44 -73 hhcurveto
          -132 -116 6 5 -125 hvcurveto
          hintmask 01101000
          -107 4 -112 5 -133 1 939 1179 rcurveline
          43 55 16 41 27 vvcurveto
          44 -18 32 -73 -103 -86 -3 -4 -84 vhcurveto
          -4 -79 -78 -3 -89 hhcurveto
          -103 -77 8 17 -80 hvcurveto
          1 8 1 7 8 vvcurveto
          41 -32 23 -37 -55 -26 -36 -150 -76 vhcurveto
          -44 -86 -26 -82 -38 vvcurveto
          -48 36 -26 41 36 28 22 85 31 vhcurveto
          88 28 51 31 104 hhcurveto
          49 138 -5 -5 135 hvcurveto
          92 -3 90 -3 61 -1 -900 -1110 rcurveline
          -73 -92 -33 -56 -52 vvcurveto
          hintmask 00010100
          789 1573 -103 callgsubr
        </CharString>
        <CharString name="Zdotaccent">
          -94 callgsubr
          787 1651 -92 callsubr
        </CharString>
        <CharString name="a">
          -63 callsubr
          hstem
          7 callgsubr
          532 173 vstem
          -104 callgsubr
          endchar
        </CharString>
        <CharString name="aacute">
          -63 callsubr
          135 -41 callgsubr
          7 callgsubr
          99 395 38 173 hintmask 11101010
          -104 callgsubr
          hintmask 00010100
          149 889 -105 callgsubr
        </CharString>
        <CharString name="abreve">
          -63 callsubr
          hstem
          7 callgsubr
          532 173 vstem
          -104 callgsubr
          285 965 -92 callgsubr
        </CharString>
        <CharString name="acircumflex">
          -63 callsubr
          145 -41 callgsubr
          7 callgsubr
          -31 644 -81 173 hintmask 11101010
          -104 callgsubr
          hintmask 00010100
          38 899 -106 callgsubr
        </CharString>
        <CharString name="acute">
          -895 1200 381 hstem
          106 395 vstem
          156 1200 -105 callgsubr
        </CharString>
        <CharString name="acute.cap">
          -11 callsubr
          113 1639 -105 callgsubr
        </CharString>
        <CharString name="adieresis">
          -63 callsubr
          hstemhm
          7 callgsubr
          532 173 vstemhm
          -104 callgsubr
          505 899 rmoveto
          -96 callsubr
          -420 hmoveto
          -96 callsubr
          endchar
        </CharString>
        <CharString name="ae">
          -22 callsubr
          hstemhm
          90 181 532 174 593 174 hintmask 00000000
          hintmask 11010101
          -53 callgsubr
          hintmask 10110111
          -44 callgsubr
          hintmask 11001111
          -48 callsubr
          hintmask 11010101
          -47 callgsubr
          hintmask 10110101
          -32 callgsubr
          endchar
        </CharString>
        <CharString name="aeacute">
          -22 callsubr
          135 -41 callgsubr
          90 181 476 395 -339 174 593 174 hintmask 0000000000000000
          hintmask 1101001001000000
          -53 callgsubr
          hintmask 1011001011000000
          -44 callgsubr
          hintmask 1100101011000000
          -48 callsubr
          hintmask 1101001001000000
          -47 callgsubr
          hintmask 1011001001000000
          -32 callgsubr
          hintmask 0000010100000000
          526 889 -105 callgsubr
        </CharString>
        <CharString name="agrave">
          -63 callsubr
          135 -41 callgsubr
          7 callgsubr
          48 395 89 173 hintmask 11101010
          -104 callgsubr
          hintmask 00010100
          393 889 rmoveto
          31 19 23 31 14 -7 25 -28 25 hvcurveto
          -42 37 -64 84 -40 61 rrcurveto
          60 -41 -30 21 -46 hhcurveto
          -59 -38 -37 -51 -44 27 -41 50 -33 hvcurveto
          100 -66 40 -27 52 -46 rrcurveto
          -29 33 18 -7 25 hhcurveto
          endchar
        </CharString>
        <CharString name="amacron">
          -63 callsubr
          225 162 hstemhm
          7 callgsubr
          -59 704 -113 173 hintmask 11101010
          -104 callgsubr
          hintmask 00010100
          68 979 rmoveto
          453 hlineto
          -81 callgsubr
          -453 hlineto
          -78 callgsubr
          endchar
        </CharString>
        <CharString name="ampersand">
          258 -15 160 1269 161 hstemhm
          129 191 -88 181 383 182 312 193 hintmask 00000000
          hintmask 11101100
          129 363 rmoveto
          hintmask 11011100
          -177 113 -201 378 159 159 71 107 138 vhcurveto
          hintmask 11101100
          -116 171 147 -62 85 hhcurveto
          59 45 25 63 48 -34 29 -105 29 hvcurveto
          -70 21 -78 37 -83 52 rrcurveto
          162 172 108 211 161 vvcurveto
          90 -52 69 -92 -80 -43 -54 -47 -29 12 -26 24 -23 vhcurveto
          29 -28 9 -22 -24 vvcurveto
          -112 -83 -137 -119 -114 vhcurveto
          -126 95 -130 125 -120 147 -12 13 -11 14 -11 12 rrcurveto
          228 162 72 141 173 vvcurveto
          175 -139 142 -234 -253 -120 -183 -170 -114 47 -121 141 -183 vhcurveto
          -217 -160 -74 -136 -145 vvcurveto
          446 545 rmoveto
          -125 161 -37 88 85 vvcurveto
          66 54 106 129 109 91 -53 -138 -116 -43 -77 -178 -122 vhcurveto
          hintmask 11011100
          -255 -524 rmoveto
          101 53 87 148 106 vhcurveto
          138 -167 146 -140 138 -110 rrcurveto
          -70 -108 -121 -46 -112 hhcurveto
          -168 -114 99 140 hvcurveto
          endchar
        </CharString>
        <CharString name="aogonek">
          -49 callsubr
          234 156 -121 -21 22 -21 447 137 128 323 -155 155 hstemhm
          7 callgsubr
          327 180 -180 494 -289 173 hintmask 0110011010100000
          123 274 rmoveto
          -175 113 -114 260 118 163 78 69 77 vhcurveto
          10 -34 14 -28 16 -23 rrcurveto
          -142 -64 -121 -121 -128 vvcurveto
          -144 111 -59 callsubr
          hintmask 1001011011010000
          -47 callsubr
          -19 42 52 109 157 94 94 43 hvcurveto
          5 2 5 2 5 3 rrcurveto
          hintmask 1000111011010000
          1 1 1 2 hhcurveto
          -1 hlineto
          23 15 11 23 30 vvcurveto
          31 -14 23 -35 23 vhcurveto
          -43 28 -13 38 184 vvcurveto
          259 vlineto
          262 -164 119 -250 -245 -160 -111 -110 -45 17 -57 78 62 29 54 24 7 vhcurveto
          hintmask 1010010111010000
          64 18 68 26 119 hhcurveto
          183 65 -71 -145 hvcurveto
          -110 vlineto
          22 -92 -92 8 -90 hhcurveto
          -296 -143 -124 -186 hvcurveto
          181 7 rmoveto
          75 56 91 197 90 99 -14 -17 90 vhcurveto
          -135 vlineto
          -15 vlineto
          -71 -80 -133 -54 -125 hhcurveto
          -143 -51 64 76 hvcurveto
          endchar
        </CharString>
        <CharString name="approxequal">
          -107 102 162 126 162 33 162 126 162 hstemhm
          90 1158 hintmask 00111000
          159 619 rmoveto
          -80 callsubr
          hintmask 11001000
          -483 vmoveto
          -80 callsubr
          endchar
        </CharString>
        <CharString name="aring">
          -63 callsubr
          178 139 251 134 hstemhm
          7 callgsubr
          2 -8 callsubr
          -43 173 hintmask 1110010010000000
          -104 callgsubr
          hintmask 0001101100000000
          287 932 -72 callgsubr
        </CharString>
        <CharString name="asciicircum">
          -249 836 758 hstem
          174 848 vstem
          245 836 rmoveto
          47 22 17 79 59 hvcurveto
          222 427 230 -427 rlineto
          -78 60 21 -18 47 hhcurveto
          39 30 24 40 30 -5 23 -62 81 hvcurveto
          -248 484 rlineto
          64 -49 -23 12 -41 hhcurveto
          -43 -25 -18 -58 -43 hvcurveto
          -240 -484 rlineto
          -49 -66 -20 -32 -31 vvcurveto
          -39 32 -30 39 vhcurveto
          endchar
        </CharString>
        <CharString name="asciitilde">
          -107 332 162 126 162 hstem
          90 1158 vstem
          159 366 rmoveto
          -80 callsubr
          endchar
        </CharString>
        <CharString name="asterisk">
          -249 697 897 hstemhm
          480 177 -166 142 hintmask 00000000
          hintmask 11000000
          333 697 rmoveto
          49 27 25 155 82 hvcurveto
          21 40 23 36 32 43 19 -27 14 -18 32 -58 rrcurveto
          -167 90 42 -29 50 hhcurveto
          hintmask 10100000
          35 40 26 58 43 -21 29 -109 112 hvcurveto
          -29 30 -29 34 -25 39 43 16 42 11 42 9 rrcurveto
          161 36 72 17 75 vvcurveto
          51 -40 31 -46 -47 -21 -15 -47 -90 vhcurveto
          -55 -29 -56 -18 -48 -12 1 48 4 49 7 48 rrcurveto
          7 54 5 51 43 vvcurveto
          62 -38 46 -51 -54 -34 -46 -62 -46 5 -53 6 -54 vhcurveto
          5 -48 4 -47 1 -43 -47 14 -54 26 -50 25 rrcurveto
          29 -59 -55 23 -41 hhcurveto
          -50 2 -45 -30 -51 vvcurveto
          -55 48 -37 141 -27 vhcurveto
          62 -12 72 -18 39 -15 -27 -35 -32 -34 -32 -32 rrcurveto
          -93 -97 -29 -48 -51 vvcurveto
          hintmask 11000000
          -47 37 -28 47 vhcurveto
          endchar
        </CharString>
        <CharString name="at">
          773 -339 188 299 145 -145 154 592 160 358 163 hstemhm
          130 180 331 175 490 174 429 179 hintmask 0000000000000000
          hintmask 1101111110000000
          130 615 rmoveto
          hintmask 1011111110000000
          -608 430 -346 457 147 52 72 51 vhcurveto
          hintmask 1101111110000000
          43 -26 54 -65 vhcurveto
          -53 -17 -32 -68 hhcurveto
          -356 -321 288 483 442 338 350 486 397 378 -232 -457 -298 -123 -132 -151 -59 -96 35 127 hvcurveto
          244 vlineto
          147 9 24 40 28 vhcurveto
          30 20 17 23 40 vvcurveto
          28 -28 45 -62 -58 -51 -35 -64 -33 vhcurveto
          64 -71 -101 35 -107 hhcurveto
          -266 -158 -207 -247 -274 160 -178 255 114 119 55 83 56 hvcurveto
          -103 54 99 -35 126 hhcurveto
          259 205 235 357 471 -403 364 -535 -611 -409 -431 -529 hvcurveto
          686 -5 rmoveto
          173 106 111 145 vhcurveto
          hintmask 1011111110000000
          87 104 -46 -55 48 hvcurveto
          -22 vlineto
          -338 vlineto
          -89 -60 -73 -42 -99 hhcurveto
          -145 -113 109 199 hvcurveto
          endchar
        </CharString>
        <CharString name="atilde">
          -63 callsubr
          145 -13 callsubr
          7 callgsubr
          -74 733 -127 173 hintmask 11100101
          -104 callgsubr
          hintmask 00000000
          -1 919 rmoveto
          hintmask 00010010
          -88 callgsubr
          hvcurveto
          hintmask 00011010
          -89 callgsubr
        </CharString>
        <CharString name="b">
          -15 158 730 162 hstem
          184 173 575 176 vstem
          81 70 rmoveto
          -50 25 -35 74 53 46 27 55 32 vhcurveto
          -55 61 106 -27 91 hhcurveto
          316 223 232 295 357 -227 166 -259 -103 -94 -39 -63 -68 hvcurveto
          565 vlineto
          -36 callsubr
          -71 -24 -23 -6 -9 -30 vhcurveto
          -20 -6 -36 -6 -45 -4 rrcurveto
          -68 -6 -40 -33 -44 vvcurveto
          -53 37 -27 53 16 14 2 3 15 vhcurveto
          4 17 13 3 10 hhcurveto
          17 10 -7 -52 hvcurveto
          -958 vlineto
          -184 -12 -39 -44 -27 vhcurveto
          -35 -24 -12 -20 -31 vvcurveto
          273 149 rmoveto
          2 19 1 21 22 vvcurveto
          476 vlineto
          78 67 85 38 101 hhcurveto
          185 137 -123 -252 -216 -165 -139 -175 -93 -77 23 53 -68 hvcurveto
          endchar
        </CharString>
        <CharString name="backslash">
          -421 -215 -21 1830 -20 hstem
          514 168 rmoveto
          25 -91 14 -69 19 -106 rrcurveto
          -102 19 42 -36 71 hhcurveto
          36 51 26 75 39 -16 37 -23 55 hvcurveto
          -23 56 -31 75 -31 117 -252 959 rcurveline
          -17 64 -17 86 -15 88 rrcurveto
          110 -19 -43 43 -60 hhcurveto
          -55 -36 -38 -55 -28 8 -31 17 -52 hvcurveto
          16 -49 21 -67 28 -103 rrcurveto
          endchar
        </CharString>
        <CharString name="bar">
          -596 -339 -21 hstem
          338 173 vstem
          332 -19 rmoveto
          -55 callsubr
          -4 73 -2 475 98 vvcurveto
          109 3 471 5 95 vhcurveto
          2 39 6 72 45 vvcurveto
          -35 callsubr
          -44 5 -75 3 -40 vhcurveto
          8 -113 1 -466 -97 vvcurveto
          -115 -2 -463 -4 -58 vhcurveto
          endchar
        </CharString>
        <CharString name="braceleft">
          3 callsubr
          50 736 vstem
          277 204 rmoveto
          -318 12 124 -109 174 hhcurveto
          129 70 45 78 38 -37 34 -50 -23 -19 -6 -8 -16 hvcurveto
          -17 -32 -13 -4 -17 hhcurveto
          -92 -21 65 380 -22 hvcurveto
          -9 145 -45 103 -99 46 99 45 45 103 9 146 rrcurveto
          380 22 21 65 92 hhcurveto
          17 13 -4 -17 32 hvcurveto
          -8 16 19 -6 23 hhcurveto
          45 42 34 50 63 -57 48 -142 -174 -124 -109 -318 -12 hvcurveto
          -12 -313 -35 -49 -55 -9 rrcurveto
          -94 -15 -31 -33 -53 vvcurveto
          -53 31 -33 94 -15 vhcurveto
          55 -9 35 -49 12 -313 rrcurveto
          endchar
        </CharString>
        <CharString name="braceright">
          3 callsubr
          70 736 vstem
          579 204 rmoveto
          12 313 35 49 55 9 rrcurveto
          94 15 31 33 53 vvcurveto
          53 -31 33 -94 15 vhcurveto
          -55 9 -35 49 -12 313 rrcurveto
          318 -12 -124 109 -174 hhcurveto
          -142 -57 -48 -63 -50 42 -34 45 23 19 6 8 16 hvcurveto
          17 32 13 4 17 hhcurveto
          92 21 -65 -380 22 hvcurveto
          9 -146 45 -103 99 -45 -99 -46 -45 -103 -9 -145 rrcurveto
          -380 -22 -21 -65 -92 hhcurveto
          -17 -13 4 17 -32 hvcurveto
          8 -16 -19 6 -23 hhcurveto
          -50 -37 -34 -38 -78 70 -45 129 174 124 109 318 12 hvcurveto
          endchar
        </CharString>
        <CharString name="bracketleft">
          5 callgsubr
          194 171 vstem
          180 -65 rmoveto
          -93 53 -66 91 33 24 1 2 23 vhcurveto
          1 21 20 2 25 hhcurveto
          23 20 -1 -1 19 hvcurveto
          -2 25 22 -2 22 hhcurveto
          67 39 40 48 47 -29 35 -79 -16 -17 -1 -2 -19 hvcurveto
          -2 -20 -63 -2 -46 hhcurveto
          -53 1473 53 hlineto
          46 63 -2 -2 20 hvcurveto
          -2 19 17 -1 16 hhcurveto
          79 29 44 47 48 -39 31 -67 -22 -22 -2 -2 -25 hvcurveto
          -1 -19 -20 -1 -23 hhcurveto
          -25 -20 2 1 -21 hvcurveto
          2 -23 -24 1 -33 hhcurveto
          -91 -53 -66 -93 -76 4 -120 3 -98 hvcurveto
          3 -107 4 -128 -212 vvcurveto
          -212 -4 -127 -3 -107 vhcurveto
          -3 -98 -4 -120 -76 vvcurveto
          endchar
        </CharString>
        <CharString name="bracketright">
          5 callgsubr
          503 171 vstem
          688 -65 rmoveto
          76 -4 120 -3 98 vhcurveto
          -3 107 -4 127 212 vvcurveto
          212 4 128 3 107 vhcurveto
          3 98 4 120 76 vvcurveto
          93 -53 66 -91 -33 -24 -1 -2 -23 vhcurveto
          -1 -21 -20 -2 -25 hhcurveto
          -23 -20 1 1 -19 hvcurveto
          2 -25 -22 2 -22 hhcurveto
          -67 -39 -31 -48 -47 29 -44 79 16 17 1 2 19 hvcurveto
          2 20 63 2 46 hhcurveto
          53 -1473 -53 hlineto
          -46 -63 2 2 -20 hvcurveto
          2 -19 -17 1 -16 hhcurveto
          -79 -29 -35 -47 -48 39 -40 67 22 22 2 2 25 hvcurveto
          1 19 20 1 23 hhcurveto
          25 20 -2 -1 21 hvcurveto
          -2 23 24 -1 33 hhcurveto
          91 53 66 93 hvcurveto
          endchar
        </CharString>
        <CharString name="breve">
          -596 1246 151 -151 -41 callgsubr
          100 161 313 170 hintmask 01110000
          412 1246 -50 callsubr
        </CharString>
        <CharString name="breve.cap">
          -925 1639 151 -151 -41 callgsubr
          -62 161 313 170 hintmask 01110000
          250 1639 -50 callsubr
        </CharString>
        <CharString name="brokenbar">
          -596 -339 -21 hstemhm
          324 203 -189 173 hintmask 00000000
          hintmask 10100000
          424 740 rmoveto
          48 52 30 118 hvcurveto
          hintmask 11000000
          56 -4 63 -4 52 vhcurveto
          -3 36 -2 36 36 vvcurveto
          hintmask 10100000
          53 5 58 4 46 vhcurveto
          4 42 3 41 41 vvcurveto
          -35 callsubr
          -46 4 -45 4 -44 vhcurveto
          4 -47 5 -56 -47 vvcurveto
          -43 -2 -39 -3 -36 vhcurveto
          -4 -49 -5 -55 -45 vvcurveto
          -131 53 -29 47 vhcurveto
          -91 -801 rmoveto
          -4 -49 -5 -45 -45 vvcurveto
          -131 53 -29 47 48 52 30 118 56 -4 53 -4 52 vhcurveto
          -3 36 -2 46 36 vvcurveto
          53 5 48 4 46 vhcurveto
          4 42 3 51 41 vvcurveto
          hintmask 11000000
          -35 callsubr
          vhcurveto
          hintmask 10100000
          -46 4 -55 4 -44 vhcurveto
          4 -47 5 -46 -47 vvcurveto
          -43 -2 -49 -3 -36 vhcurveto
          endchar
        </CharString>
        <CharString name="bullet">
          -933 478 362 hstem
          67 378 vstem
          258 478 rmoveto
          106 81 80 100 111 -78 71 -110 -119 -71 -76 -105 -108 78 -73 113 hvcurveto
          endchar
        </CharString>
        <CharString name="c">
          -70 callsubr
          hstem
          119 174 vstem
          -94 callsubr
          endchar
        </CharString>
        <CharString name="cacute">
          -70 callsubr
          135 -41 callgsubr
          119 174 171 395 hintmask 11010000
          -94 callsubr
          hintmask 00101000
          395 658 -105 callgsubr
        </CharString>
        <CharString name="caron">
          -596 1197 -21 381 -20 hstem
          422 1176 -103 callgsubr
        </CharString>
        <CharString name="caron.cap">
          -601 1639 381 hstem
          100 644 vstem
          422 1639 -103 callgsubr
        </CharString>
        <CharString name="ccaron">
          -70 callsubr
          hstem
          119 174 vstem
          -94 callsubr
          537 664 -103 callgsubr
        </CharString>
        <CharString name="ccedilla">
          -479 -21 1195 413 -231 158 -158 231 hstemhm
          119 174 221 352 -181 181 hintmask 11001100
          119 512 rmoveto
          -328 217 -177 241 -20 vhcurveto
          -52 -104 -11 -35 -25 vvcurveto
          -12 callgsubr
          hintmask 10011010
          -82 callsubr
          13 29 15 29 18 32 rrcurveto
          240 21 132 144 96 vvcurveto
          45 -32 31 -49 -42 -28 -32 -32 -17 vhcurveto
          -74 -34 -91 -44 -127 hhcurveto
          -184 -159 125 253 182 135 174 216 103 80 -33 -66 54 hvcurveto
          hintmask 11001100
          -68 54 29 -15 42 hhcurveto
          39 28 29 51 44 -46 43 -33 48 hvcurveto
          -53 76 -6 16 -19 54 rrcurveto
          32 -11 -21 20 -34 hhcurveto
          -42 -27 -32 -44 -5 0 -6 2 -6 hvcurveto
          hintmask 10101100
          12 -38 -44 8 -45 hhcurveto
          -315 -222 -241 -282 hvcurveto
          endchar
        </CharString>
        <CharString name="ccircumflex">
          -70 callsubr
          145 -41 callgsubr
          119 174 41 644 hintmask 11010000
          -94 callsubr
          hintmask 00101000
          284 668 -106 callgsubr
        </CharString>
        <CharString name="cdotaccent">
          -70 callsubr
          hstem
          119 174 vstem
          -94 callsubr
          537 745 -92 callsubr
        </CharString>
        <CharString name="cedilla">
          -820 -479 -21 hstem
          344 181 vstem
          173 -177 rmoveto
          -12 callgsubr
          -82 callsubr
          19 42 24 42 31 52 -109 5 rcurveline
          -74 -146 -15 -41 -29 vvcurveto
          endchar
        </CharString>
        <CharString name="cedilla.cap">
          -820 -479 -21 539 -20 hstem
          344 181 vstem
          173 -177 rmoveto
          -12 callgsubr
          -82 callsubr
          19 42 24 42 31 52 -109 5 rcurveline
          -74 -146 -15 -41 -29 vvcurveto
          endchar
        </CharString>
        <CharString name="cent">
          -416 -254 -21 1137 156 hstem
          81 175 199 142 vstem
          455 94 rmoveto
          -262 13 callgsubr
          259 vlineto
          216 20 119 129 88 vvcurveto
          40 -29 29 -40 -34 -20 -15 -44 -29 vhcurveto
          -68 -45 -82 -24 -102 hhcurveto
          -190 -105 118 200 165 107 133 196 85 90 -29 -47 39 hvcurveto
          -62 49 27 -13 38 hhcurveto
          35 26 26 46 40 -42 39 -30 44 hvcurveto
          -25 36 -29 48 -7 21 rrcurveto
          29 -10 -19 18 -31 hhcurveto
          -35 -23 -25 -34 -4 hvcurveto
          -26 9 -33 6 -37 4 rrcurveto
          260 15 callgsubr
          -267 vlineto
          -218 -43 -156 -188 -225 vvcurveto
          -279 173 -150 201 -32 vhcurveto
          endchar
        </CharString>
        <CharString name="circumflex">
          -601 1210 381 hstem
          100 644 vstem
          169 1210 -106 callgsubr
        </CharString>
        <CharString name="circumflex.cap">
          -11 callsubr
          7 1639 -106 callgsubr
        </CharString>
        <CharString name="colon">
          -933 -15 287 353 287 hstemhm
          111 290 hintmask 10100000
          111 129 -64 callgsubr
          hintmask 01100000
          640 vmoveto
          -16 callsubr
        </CharString>
        <CharString name="comma">
          -933 -297 -21 hstem
          96 319 vstem
          144 127 -52 callsubr
        </CharString>
        <CharString name="commaaccent">
          -956 -540 408 hstemhm
          216 183 hintmask 00000000
          hintmask 11000000
          140 -229 -97 callgsubr
        </CharString>
        <CharString name="commaaccent.cap">
          -956 -540 408 hstemhm
          111 293 -259 259 hintmask 10100000
          145 -229 rmoveto
          -35 8 -17 38 -38 vhcurveto
          24 -24 6 -18 -18 vvcurveto
          -17 -16 -27 -57 -22 vhcurveto
          hintmask 11000000
          -20 -8 -17 -14 -25 vvcurveto
          -30 19 -18 41 105 128 118 147 88 -45 55 -81 vhcurveto
          hintmask 10100000
          -91 -42 -47 -50 hvcurveto
          endchar
        </CharString>
        <CharString name="copyright">
          435 -15 159 237 157 466 151 261 159 hstem
          119 177 263 173 852 177 vstem
          119 767 rmoveto
          -449 388 -333 425 449 380 319 474 474 -366 323 -446 -493 -337 -363 -445 vhcurveto
          177 4 rmoveto
          387 263 258 381 376 268 -249 -400 -372 -246 -251 -398 -366 -278 263 364 vhcurveto
          263 2 rmoveto
          -225 168 -167 225 170 132 93 107 39 -24 34 -43 -35 -25 -14 -41 -21 vhcurveto
          -35 -18 -49 -26 -76 hhcurveto
          -148 -83 89 148 125 75 104 146 61 73 -23 -48 37 hvcurveto
          -31 27 21 -9 35 hhcurveto
          31 28 28 30 24 -6 17 -20 31 hvcurveto
          -67 97 -5 11 -13 39 rrcurveto
          30 -10 -23 16 -33 hhcurveto
          -32 -27 -24 -35 -3 0 -4 1 -5 hvcurveto
          6 -23 -24 4 -23 hhcurveto
          -245 -157 -174 -208 hvcurveto
          endchar
        </CharString>
        <CharString name="currency">
          -246 269 157 483 155 hstem
          192 164 490 164 vstem
          165 135 rmoveto
          28 33 12 34 30 hvcurveto
          42 47 43 45 45 46 rrcurveto
          -32 59 70 -18 79 hhcurveto
          76 73 20 36 63 hvcurveto
          47 -47 44 -48 45 -49 rrcurveto
          -34 30 33 -12 28 hhcurveto
          42 35 32 41 2 hvcurveto
          1 30 -14 39 -42 38 -46 41 -41 38 -41 39 rrcurveto
          50 65 31 81 89 vvcurveto
          99 -30 83 -50 64 vhcurveto
          40 39 41 38 46 41 42 38 14 39 -1 30 rrcurveto
          41 -2 -35 32 -42 hhcurveto
          -28 -33 -12 -34 -30 hvcurveto
          -46 -51 -46 -49 -48 -49 rrcurveto
          31 -61 -70 16 -72 hhcurveto
          -72 -68 -18 -33 -59 hvcurveto
          -50 50 -47 51 -47 52 rrcurveto
          34 -30 -33 12 -28 hhcurveto
          -42 -35 -32 -41 -2 hvcurveto
          -1 -30 14 -39 42 -38 48 -44 44 -40 42 -41 rrcurveto
          -52 -68 -31 -85 -96 vvcurveto
          -88 25 -79 46 -64 vhcurveto
          -39 -37 -39 -36 -44 -39 -42 -38 -14 -39 1 -30 rrcurveto
          -41 2 35 -32 42 hhcurveto
          432 291 rmoveto
          -121 -120 90 164 130 104 99 130 146 110 -99 -151 -143 -123 -90 -126 hvcurveto
          endchar
        </CharString>
        <CharString name="d">
          -70 callsubr
          hstem
          106 174 575 173 vstem
          -87 callgsubr
          endchar
        </CharString>
        <CharString name="dagger">
          -590 -339 -21 1366 -14 callgsubr
          hintmask 11101000
          335 -19 rmoveto
          -55 callsubr
          -4 73 -2 475 98 vvcurveto
          61 1 173 1 158 vhcurveto
          12 hlineto
          -7 callgsubr
          hintmask 11100100
          -56 callgsubr
          hintmask 11110000
          -23 callgsubr
          13 hlineto
          2 -161 0 -176 -55 vvcurveto
          -115 -2 -463 -4 -58 vhcurveto
          endchar
        </CharString>
        <CharString name="daggerdbl">
          -590 -339 -21 696 176 494 -14 callgsubr
          hintmask 11110100
          335 -19 rmoveto
          -55 callsubr
          -3 41 -1 170 -1 157 rrcurveto
          13 hlineto
          -7 callgsubr
          hintmask 11110010
          -39 callgsubr
          -1 -5 -5 0 -4 hhcurveto
          109 vlineto
          61 1 173 1 158 vhcurveto
          12 hlineto
          -7 callgsubr
          -56 callgsubr
          hintmask 11111000
          -23 callgsubr
          13 hlineto
          2 -161 0 -176 -55 vvcurveto
          -109 vlineto
          -5 -5 0 1 -5 hvcurveto
          2 -34 -28 1 -27 hhcurveto
          -23 callgsubr
          14 hlineto
          -1 -158 -2 -167 -2 -33 rrcurveto
          endchar
        </CharString>
        <CharString name="dcaron">
          -79 -70 callsubr
          23 536 hstemhm
          106 174 575 173 129 286 hintmask 11011000
          -87 callgsubr
          hintmask 00100100
          1022 1073 -49 callgsubr
          endchar
        </CharString>
        <CharString name="dcroat">
          -70 callsubr
          114 156 -156 445 hstemhm
          106 174 373 375 -173 173 -173 360 hintmask 11101100
          106 -20 callgsubr
          258 117 105 49 77 69 vhcurveto
          -84 31 55 -42 66 hhcurveto
          73 26 35 50 31 -13 20 -35 24 hvcurveto
          -43 27 -13 39 184 vvcurveto
          757 1 vlineto
          -7 callgsubr
          hintmask 11101001
          58 39 30 48 47 -39 31 -58 -27 -28 -1 -2 -34 hvcurveto
          hintmask 11011100
          -1 196 hlineto
          -36 callsubr
          -70 -25 -23 -6 -9 -30 vhcurveto
          -19 -6 -37 -6 -44 -4 rrcurveto
          -68 -54 callsubr
          53 16 15 -38 callgsubr
          13 3 12 hhcurveto
          hintmask 11101010
          -17 callgsubr
          -53 vlineto
          -10 -9 1 1 -9 hvcurveto
          -30 callgsubr
          -31 -47 -48 39 -30 58 27 28 1 2 34 hvcurveto
          9 9 1 10 hhcurveto
          -169 vlineto
          33 -61 -80 18 -71 hhcurveto
          -315 -222 -241 -282 hvcurveto
          174 9 rmoveto
          201 146 155 195 91 77 -23 -51 66 vhcurveto
          -545 vlineto
          -78 -67 -84 -37 -102 hhcurveto
          -184 -138 125 253 hvcurveto
          endchar
        </CharString>
        <CharString name="degree">
          -590 1035 133 276 131 hstem
          144 146 276 145 vstem
          427 1035 rmoveto
          149 135 118 153 165 -122 104 -159 -166 -120 -116 -159 -150 119 -115 164 hvcurveto
          2 133 rmoveto
          -76 -63 59 82 72 52 63 84 88 52 -60 -82 -75 -53 -59 -84 hvcurveto
          endchar
        </CharString>
        <CharString name="dieresis">
          -566 1210 242 hstemhm
          100 259 161 259 hintmask 00000000
          hintmask 11100000
          652 1210 rmoveto
          -96 callsubr
          -420 hmoveto
          -96 callsubr
          endchar
        </CharString>
        <CharString name="dieresis.cap">
          -566 1740 242 hstemhm
          70 259 221 259 hintmask 00000000
          hintmask 11100000
          682 1740 rmoveto
          -96 callsubr
          -480 hmoveto
          -96 callsubr
          endchar
        </CharString>
        <CharString name="divide">
          -423 529 162 156 276 hstemhm
          371 279 hintmask 00000000
          hintmask 11100000
          512 847 rmoveto
          81 57 61 76 85 -54 54 -85 -90 -50 -58 -80 -82 55 -56 86 hvcurveto
          -321 -318 rmoveto
          643 hlineto
          -81 callgsubr
          -643 hlineto
          -78 callgsubr
          180 -284 -37 callgsubr
        </CharString>
        <CharString name="dollar">
          -76 -374 -21 381 166 1274 149 hstemhm
          238 197 227 142 -132 142 304 181 hintmask 00000000
          hintmask 11111010
          225 228 rmoveto
          93 -128 18 -35 7 -40 rrcurveto
          -54 10 25 -29 46 hhcurveto
          45 27 19 46 23 hvcurveto
          45 -12 54 -6 54 -3 rrcurveto
          -274 13 callgsubr
          279 vlineto
          275 33 216 192 -6 277 -4 203 -144 177 -386 96 rrcurveto
          -284 71 -46 89 102 vvcurveto
          77 73 118 257 145 79 -27 -139 84 vhcurveto
          -71 44 34 -15 35 hhcurveto
          50 24 34 40 hvcurveto
          hintmask 11110110
          51 -23 27 -57 72 vhcurveto
          -29 36 -26 31 -29 59 rrcurveto
          104 -50 -29 12 -45 hhcurveto
          -32 -34 -26 -42 -3 hvcurveto
          -2 vlineto
          -31 2 -28 2 -40 1 rrcurveto
          277 15 callgsubr
          -281 vlineto
          -291 -25 -133 -151 -167 vvcurveto
          -206 116 -131 349 -86 vhcurveto
          286 -70 136 -139 -7 -159 rrcurveto
          -166 -8 -121 -119 -265 hhcurveto
          -119 -117 37 54 -59 hvcurveto
          hintmask 11111010
          -58 51 -47 76 -53 93 rrcurveto
          85 -48 -39 24 -42 hhcurveto
          -49 -24 -34 -42 -50 27 -44 129 -174 hvcurveto
          endchar
        </CharString>
        <CharString name="dotaccent">
          -764 1112 287 hstem
          193 290 vstem
          340 1112 -92 callsubr
        </CharString>
        <CharString name="dotaccent.cap">
          -925 1717 287 hstem
          115 290 vstem
          262 1717 -92 callsubr
        </CharString>
        <CharString name="dotlessi">
          -15 callsubr
          hstem
          302 173 vstem
          112 -63 callgsubr
          -79 797 hlineto
          -75 callgsubr
          -78 vlineto
          -68 -44 -28 -48 hvcurveto
          endchar
        </CharString>
        <CharString name="dotlessj">
          -763 -506 152 hstem
          -72 175 234 184 vstem
          49 -96 -87 callsubr
          endchar
        </CharString>
        <CharString name="e">
          -66 callsubr
          hstem
          884 174 vstem
          -102 callgsubr
          endchar
        </CharString>
        <CharString name="eacute">
          -66 callsubr
          135 -41 callgsubr
          454 395 35 174 hintmask 11100100
          -102 callgsubr
          hintmask 00011000
          205 566 -105 callgsubr
        </CharString>
        <CharString name="ebreve">
          -66 callsubr
          hstem
          884 174 vstem
          -102 callgsubr
          341 642 -92 callgsubr
        </CharString>
        <CharString name="ecaron">
          -66 callsubr
          hstem
          884 174 vstem
          -102 callgsubr
          347 572 -103 callgsubr
        </CharString>
        <CharString name="ecircumflex">
          -66 callsubr
          145 -41 callgsubr
          324 644 -84 174 hintmask 11100100
          -102 callgsubr
          hintmask 00011000
          94 576 -106 callgsubr
        </CharString>
        <CharString name="edieresis">
          -66 callsubr
          hstemhm
          884 174 vstemhm
          -102 callgsubr
          561 576 rmoveto
          -96 callsubr
          -420 hmoveto
          -96 callsubr
          endchar
        </CharString>
        <CharString name="edotaccent">
          -66 callsubr
          hstem
          884 174 vstem
          -102 callgsubr
          347 653 -92 callsubr
        </CharString>
        <CharString name="egrave">
          -66 callsubr
          135 -41 callgsubr
          403 395 86 174 hintmask 11100100
          -102 callgsubr
          hintmask 00011000
          449 566 rmoveto
          31 19 23 31 14 -7 25 -28 25 hvcurveto
          -42 37 -64 84 -40 61 rrcurveto
          60 -41 -30 21 -46 hhcurveto
          -59 -38 -37 -51 -44 27 -41 50 -33 hvcurveto
          100 -66 40 -27 52 -46 rrcurveto
          -29 33 18 -7 25 hhcurveto
          endchar
        </CharString>
        <CharString name="eight">
          86 -15 165 1261 164 hstemhm
          154 187 -31 187 544 187 -39 187 hintmask 00000000
          hintmask 11100100
          154 476 rmoveto
          -243 178 -248 419 398 227 240 251 170 -97 148 -267 104 vhcurveto
          hintmask 11011000
          114 58 102 110 140 vvcurveto
          208 -132 161 -330 -337 -119 -193 -174 -115 59 -108 129 -80 vhcurveto
          hintmask 11100100
          -211 -63 -133 -180 -186 vvcurveto
          632 490 rmoveto
          -204 55 -85 108 90 vvcurveto
          103 80 89 169 196 99 -82 -131 -124 -93 -89 -162 -19 vhcurveto
          -445 -481 rmoveto
          hintmask 11011000
          148 127 162 279 13 vhcurveto
          -1 2 3 -1 3 hhcurveto
          287 -63 147 -117 -158 vvcurveto
          -190 -185 -128 -230 -265 -168 154 181 vhcurveto
          endchar
        </CharString>
        <CharString name="ellipsis">
          91 -15 9 callgsubr
          222 290 222 290 cntrmask 01110000
          1135 129 -64 callgsubr
          -512 hmoveto
          -76 callsubr
          -512 hmoveto
          -16 callsubr
        </CharString>
        <CharString name="emacron">
          -66 callsubr
          225 162 hstemhm
          296 704 -116 174 hintmask 11100100
          -102 callgsubr
          hintmask 00011000
          124 656 rmoveto
          453 hlineto
          -81 callgsubr
          -453 hlineto
          -78 callgsubr
          endchar
        </CharString>
        <CharString name="emdash">
          -249 582 159 hstem
          0 1154 vstem
          157 571 rmoveto
          42 65 1 4 67 hvcurveto
          4 73 75 2 98 hhcurveto
          109 71 -2 -4 68 hvcurveto
          -4 66 64 -1 45 hhcurveto
          -13 callgsubr
          -66 -2 -97 hhcurveto
          -115 -63 -21 callgsubr
          endchar
        </CharString>
        <CharString name="endash">
          -420 577 163 hstem
          100 754 vstem
          221 571 rmoveto
          28 46 1 2 42 hvcurveto
          2 48 46 1 46 hhcurveto
          53 50 -1 -2 49 hvcurveto
          -1 43 43 -2 33 hhcurveto
          67 39 40 48 47 -39 41 -79 -23 -35 -1 -1 -32 hvcurveto
          -2 -57 -46 -3 -66 hhcurveto
          -52 -40 2 2 -43 hvcurveto
          2 -41 -44 1 -23 hhcurveto
          -95 -18 callsubr
          82 hvcurveto
          endchar
        </CharString>
        <CharString name="eng">
          -81 -539 161 -161 412 127 150 725 160 8 -20 hstemhm
          76 375 -173 173 -173 366 -269 179 426 175 hintmask 1011010001000000
          76 -34 callsubr
          vhcurveto
          54 41 6 95 93 39 -6 44 hhcurveto
          hintmask 1011000101000000
          -72 callsubr
          hintmask 1011010001000000
          -67 435 hlineto
          171 44 149 119 143 hhcurveto
          134 59 -73 -194 hvcurveto
          -503 vlineto
          -360 -78 -123 -168 vhcurveto
          hintmask 0111000011000000
          -106 -74 59 90 62 -23 40 -60 -60 -36 -48 -68 -151 128 -145 232 248 172 134 515 hvcurveto
          563 vlineto
          203 -88 159 -254 vhcurveto
          hintmask 1010110001000000
          -168 -139 -94 -125 -55 hvcurveto
          131 1 callgsubr
          -46 -16 -19 -11 -115 vhcurveto
          -68 -6 -40 -34 -42 0 callsubr
          vhcurveto
          36 32 14 19 hhcurveto
          hintmask 1011001001000000
          -71 callgsubr
          -2 vlineto
          -87 hlineto
          hintmask 1011010001000000
          15 callsubr
        </CharString>
        <CharString name="eogonek">
          -49 callsubr
          234 158 305 155 274 158 hstemhm
          544 180 160 173 hintmask 01111110
          117 511 rmoveto
          -340 254 -186 266 8 9 0 1 8 vhcurveto
          -81 -93 -37 -86 -83 vvcurveto
          -144 111 -77 139 124 139 90 84 52 -28 22 -37 -31 -35 -13 -44 -33 vhcurveto
          hintmask 10111110
          -47 callsubr
          -29 41 52 64 47 111 132 125 hvcurveto
          101 53 54 79 62 vvcurveto
          45 -31 31 -50 -40 -28 -35 -32 -15 vhcurveto
          -74 -35 -90 -31 -121 hhcurveto
          -156 -169 85 225 -28 hvcurveto
          139 -5 104 -2 81 2 rrcurveto
          305 9 134 71 201 vvcurveto
          150 -147 156 -266 -309 -219 -239 -285 vhcurveto
          182 93 rmoveto
          165 36 140 108 165 hhcurveto
          148 96 -79 -73 -81 -44 -37 -217 -4 hvcurveto
          -146 -3 -86 1 -92 3 rrcurveto
          endchar
        </CharString>
        <CharString name="equal">
          -423 346 162 197 162 hstem
          59 904 vstem
          186 705 rmoveto
          653 hlineto
          -81 callgsubr
          -653 hlineto
          -78 callgsubr
          -359 vmoveto
          -24 callgsubr
        </CharString>
        <CharString name="eth">
          -249 -15 158 674 158 hstem
          90 174 625 173 vstem
          90 482 rmoveto
          -281 189 -216 295 277 211 227 412 235 -56 227 -124 176 vhcurveto
          153 62 rlineto
          50 21 21 18 38 vvcurveto
          35 -30 16 -37 -26 -30 -11 -24 -59 vhcurveto
          -129 -52 -50 50 -58 43 -66 35 rlinecurve
          59 -112 -88 23 -85 hhcurveto
          -72 -41 -28 -46 -53 30 -28 82 -13 hvcurveto
          109 -17 96 -36 79 -60 -152 -61 rcurveline
          -58 -23 -38 -15 -45 vvcurveto
          -22 16 -28 52 30 51 15 27 65 vhcurveto
          135 54 66 -83 48 -109 28 -135 rlinecurve
          72 -77 -107 34 -119 hhcurveto
          -267 -202 -211 -282 hvcurveto
          174 9 rmoveto
          201 126 125 175 148 126 -75 -128 49 vhcurveto
          -12 1 -13 -12 vvcurveto
          -305 -142 -129 -173 -157 -153 133 215 vhcurveto
          endchar
        </CharString>
        <CharString name="exclam">
          -5 callsubr
          527 rmoveto
          42 59 36 72 26 -3 27 -3 30 hvcurveto
          -3 29 -3 71 69 vvcurveto
          349 vlineto
          68 3 61 3 29 vhcurveto
          3 30 2 27 26 vvcurveto
          72 -58 26 -42 -72 -38 -42 -56 -25 3 -27 5 -31 vhcurveto
          5 -29 4 -61 -68 vvcurveto
          -349 vlineto
          -76 -5 -64 -4 -29 vhcurveto
          -4 -31 -4 -27 -25 vvcurveto
          -56 38 -52 72 vhcurveto
          -144 -404 -37 callgsubr
        </CharString>
        <CharString name="exclamdown">
          -5 callsubr
          1033 rmoveto
          -72 -38 -52 -56 -25 4 -27 4 -31 hvcurveto
          4 -29 5 -64 -76 vvcurveto
          -349 vlineto
          -68 -4 -61 -5 -29 vhcurveto
          -5 -31 -3 -27 -25 vvcurveto
          -56 38 -42 72 42 58 26 72 26 -2 27 -3 30 vhcurveto
          -3 29 -3 61 68 vvcurveto
          349 vlineto
          69 3 71 3 29 vhcurveto
          3 30 3 27 26 vvcurveto
          72 -59 36 -42 vhcurveto
          -144 404 -16 callgsubr
        </CharString>
        <CharString name="f">
          -589 -21 callsubr
          317 174 vstem
          125 74 rmoveto
          -99 callsubr
          endchar
        </CharString>
        <CharString name="ff">
          267 -21 callsubr
          1173 174 vstem
          125 74 rmoveto
          -48 39 -26 58 27 28 1 2 34 vhcurveto
          1 30 23 16 callgsubr
          45 -30 callsubr
          34 40 -38 callsubr
          78 29 -45 callsubr
          -33 31 -92 hvcurveto
          -120 739 hlineto
          -1 14 14 -1 17 hhcurveto
          -2 48 47 -1 46 hhcurveto
          79 28 40 39 37 -28 34 -79 -48 -48 -1 -2 -49 hvcurveto
          -41 -3 rlineto
          147 vlineto
          171 43 58 75 57 32 -25 -42 12 vhcurveto
          -45 12 23 -22 51 hhcurveto
          42 34 37 58 124 -93 75 -158 -181 -123 -133 -220 hvcurveto
          -182 vlineto
          -22 2 rlineto
          -30 callgsubr
          -28 -47 -48 39 -27 58 27 28 1 2 34 hvcurveto
          7 7 0 1 8 hvcurveto
          -738 -79 vlineto
          -68 -45 -28 -48 hvcurveto
          856 hmoveto
          -99 callsubr
          endchar
        </CharString>
        <CharString name="fi">
          93 -39 callsubr
          hstemhm
          317 174 667 173 hintmask 11110000
          125 74 rmoveto
          -99 callsubr
          hintmask 00000000
          1116 1178 rmoveto
          -96 callsubr
          -273 -1178 rmoveto
          -48 38 -26 -78 callsubr
          23 2 47 hhcurveto
          45 26 -18 callgsubr
          20 -38 callsubr
          78 29 -45 callsubr
          -34 31 -92 hvcurveto
          -61 callsubr
          hintmask 10001000
          -84 callsubr
          endchar
        </CharString>
        <CharString name="five">
          259 -15 158 878 143 206 170 hstem
          206 186 921 184 vstem
          206 411 rmoveto
          -188 227 -238 371 407 286 263 349 306 -283 261 -360 -136 -94 -22 -27 -47 vhcurveto
          80 268 rlineto
          -9 75 83 -4 67 hhcurveto
          173 49 4 16 96 hvcurveto
          105 18 24 47 39 vvcurveto
          49 -43 32 -61 -76 -24 -10 -9 -71 vhcurveto
          -12 -93 -40 -4 -71 hhcurveto
          -59 -70 14 18 -51 hvcurveto
          12 -34 -28 10 -41 hhcurveto
          -52 -29 -33 -50 -13 2 -19 3 -21 hvcurveto
          3 -20 -1 -32 -12 -39 -101 -354 rcurveline
          -108 -30 68 -27 41 hhcurveto
          49 34 41 23 16 hvcurveto
          39 29 67 40 170 hhcurveto
          293 196 -183 -263 -279 -207 -153 -288 -222 -204 132 136 hvcurveto
          66 22 -1 42 vvcurveto
          50 -23 32 -59 -82 -44 -63 -126 vhcurveto
          endchar
        </CharString>
        <CharString name="fl">
          93 -21 callsubr
          317 174 vstem
          1033 271 rmoveto
          -198 108 -88 134 138 108 81 72 48 -19 28 -46 -36 -17 -15 -20 -23 vhcurveto
          -26 -30 -18 -9 -38 hhcurveto
          -67 -20 57 184 hvcurveto
          1113 -51 callgsubr
          -103 5 -88 -36 vhcurveto
          -64 13 -117 -52 vvcurveto
          -908 -1163 rmoveto
          -99 callsubr
          endchar
        </CharString>
        <CharString name="florin">
          -411 -204 -21 1109 150 -5 -20 21 -20 286 298 -160 160 hstemhm
          hintmask 11001000
          174 -12 rmoveto
          -8 -71 -1 -20 -18 vvcurveto
          -73 27 -31 52 68 31 39 117 13 vhcurveto
          109 957 rlineto
          12 12 -1 13 hhcurveto
          -2 48 47 -1 46 hhcurveto
          85 39 40 39 48 -37 23 -87 hvcurveto
          hintmask 10011000
          -50 -46 -2 -2 -45 hvcurveto
          hintmask 10100100
          -1 -7 -7 0 -7 hhcurveto
          21 176 rlineto
          171 20 46 58 70 hhcurveto
          50 27 -27 -40 8 hvcurveto
          hintmask 10101000
          -43 8 23 -28 56 hhcurveto
          46 48 41 58 99 -64 100 -172 -184 -144 -138 -215 -24 hvcurveto
          -24 -212 rlineto
          hintmask 10011000
          -2 -2 1 -1 hhcurveto
          hintmask 11001000
          -33 -33 4 -32 hhcurveto
          -62 -51 -13 -62 -46 35 -29 61 26 31 1 2 32 hvcurveto
          15 hlineto
          endchar
        </CharString>
        <CharString name="foundryicon">
          1206 -109 374 1061 201 hstem
          536 463 121 372 vstem
          565 491 rmoveto
          -346 96 316 -254 377 hhcurveto
          452 366 366 452 452 -366 366 -452 -452 -366 -366 -452 -75 10 -73 19 -70 hvcurveto
          261 -180 rmoveto
          -13 10 -8 11 -3 13 rrcurveto
          28 18 84 5 22 vhcurveto
          16 11 77 0 11 -7 5 -27 0 -14 11 -29 16 -41 140 -73 86 56 13 28 -5 32 -8 20 -40 94 -233 57 -66 124 -21 40 -13 70 35 61 24 43 61 46 49 19 rrcurveto
          13 3 14 5 13 3 rrcurveto
          -16 20 -8 20 21 vvcurveto
          120 241 133 244 12 vhcurveto
          169 8 5 -137 -3 -116 rrcurveto
          -1 -7 0 -6 -5 vvcurveto
          -16 vlineto
          1 -1 rlineto
          -62 vlineto
          223 9 rlineto
          11 2 -9 -12 -28 -17 -63 -11 -3 hvcurveto
          -208 hlineto
          -47 -1 -56 -56 vvcurveto
          -216 vlineto
          -103 34 -33 53 -3 vhcurveto
          51 -3 70 16 29 8 17 3 8 -38 -6 -9 rrcurveto
          -27 -46 -88 -49 -107 hhcurveto
          -93 -90 33 148 hvcurveto
          13 433 -100 1 rlineto
          -18 1 30 19 16 hvcurveto
          3 3 52 24 48 29 8 197 47 112 -128 -5 -118 -5 -198 -80 8 -100 5 -69 90 -40 59 -24 7 -3 5 0 4 -3 6 -3 rcurveline
          3 -31 -17 -102 -8 -19 -8 -5 -61 -4 -17 8 -7 8 -5 28 -9 32 -13 35 -111 64 -78 -54 -11 -19 -3 -34 7 -19 27 -86 211 -64 87 -99 44 -49 9 -57 -15 -59 rrcurveto
          -19 -49 -54 -59 -51 -27 -63 -37 -84 -6 -52 3 -64 2 -71 19 -37 29 rrcurveto
          endchar
        </CharString>
        <CharString name="four">
          259 6 151 343 190 -179 157 hstemhm
          498 199 295 164 hintmask 00000000
          hintmask 10111000
          206 489 rmoveto
          22 21 4 5 21 hvcurveto
          5 20 29 11 30 hhcurveto
          20 5 0 -1 24 hvcurveto
          -1 20 52 -1 58 hhcurveto
          464 -354 -216 hlineto
          -69 -44 -30 -48 -48 38 -31 58 36 45 2 1 51 hvcurveto
          2 54 61 1 66 hhcurveto
          44 37 -1 -1 35 hvcurveto
          -2 45 41 -2 44 hhcurveto
          78 29 39 37 48 -33 33 -94 hvcurveto
          -142 353 hlineto
          hintmask 11011000
          30 -1 29 -1 29 -2 rrcurveto
          -3 53 50 -3 47 hhcurveto
          80 59 46 38 77 -44 29 -84 -31 -41 -5 -5 -51 hvcurveto
          -37 -4 -42 -4 -46 -2 rrcurveto
          65 vlineto
          138 4 98 4 78 vhcurveto
          4 82 5 62 67 vvcurveto
          72 -43 34 -47 -52 -51 -36 -72 -66 4 -63 3 -87 vhcurveto
          3 -76 2 -94 -130 vvcurveto
          hintmask 10111000
          -74 -618 vlineto
          156 165 166 497 315 vvcurveto
          112 -60 10 -37 -112 10 -158 -57 -250 -101 -305 -129 -204 vhcurveto
          -52 -82 -99 -50 -81 vvcurveto
          -41 26 -50 63 vhcurveto
          endchar
        </CharString>
        <CharString name="fraction">
          -589 -154 -21 1830 -20 hstem
          109 -74 -61 callgsubr
        </CharString>
        <CharString name="g">
          -89 callsubr
          endchar
        </CharString>
        <CharString name="gbreve">
          -89 callsubr
          349 725 -92 callgsubr
        </CharString>
        <CharString name="gcircumflex">
          -527 162 350 158 738 154 145 -41 callgsubr
          104 175 -62 183 -88 644 -98 174 hintmask 00000000
          hintmask 11101001
          217 -270 rmoveto
          -140 134 -117 230 274 177 206 330 vhcurveto
          615 vlineto
          184 11 38 44 29 vhcurveto
          hintmask 11100101
          34 22 13 21 30 vvcurveto
          50 -27 37 -72 -54 -46 -28 -55 -32 vhcurveto
          55 -63 -111 28 -94 hhcurveto
          -311 -220 -225 -298 -349 229 -178 259 102 95 38 62 69 hvcurveto
          -89 vlineto
          -234 -110 -127 -165 -128 -55 36 49 21 24 10 16 16 vhcurveto
          15 13 16 15 31 vvcurveto
          50 -53 39 -51 vhcurveto
          hintmask 11101001
          -90 -60 -82 -103 hvcurveto
          62 791 rmoveto
          187 152 173 183 95 82 -27 -55 69 vhcurveto
          -2 -19 0 -21 -22 vvcurveto
          -478 vlineto
          -79 -69 -83 -37 -100 hhcurveto
          -186 -141 125 253 hvcurveto
          hintmask 00010010
          102 659 -106 callgsubr
        </CharString>
        <CharString name="gcommaaccent">
          -527 162 350 158 738 154 hstemhm
          104 175 -62 183 458 174 hintmask 00000000
          hintmask 11110100
          600 1344 rmoveto
          80 53 52 45 35 -8 17 -38 38 hvcurveto
          -24 24 -6 18 18 vvcurveto
          17 16 27 57 22 vhcurveto
          hintmask 11101100
          20 8 17 14 25 vvcurveto
          30 -19 18 -41 -105 -128 -118 -147 -88 45 -55 81 vhcurveto
          -383 -1614 rmoveto
          -140 134 -117 230 274 177 206 330 vhcurveto
          615 vlineto
          184 11 38 44 29 vhcurveto
          34 22 13 21 30 vvcurveto
          50 -27 37 -72 -54 -46 -28 -55 -32 vhcurveto
          55 -63 -111 28 -94 hhcurveto
          hintmask 11110100
          -311 -220 -225 -298 -349 229 -178 259 102 95 38 62 69 hvcurveto
          -89 vlineto
          -234 -110 -127 -165 -128 -55 36 49 21 24 10 16 16 vhcurveto
          15 13 16 15 31 vvcurveto
          50 -53 39 -51 -90 -60 -82 -103 vhcurveto
          62 791 rmoveto
          187 152 173 183 95 82 -27 -55 69 vhcurveto
          -2 -19 0 -21 -22 vvcurveto
          -478 vlineto
          -79 -69 -83 -37 -100 hhcurveto
          -186 -141 125 253 hvcurveto
          endchar
        </CharString>
        <CharString name="gdotaccent">
          -89 callsubr
          355 736 -92 callsubr
        </CharString>
        <CharString name="germandbls">
          -79 -15 158 -143 150 715 155 414 160 hstemhm
          270 174 253 169 -166 177 16 162 80 173 hintmask 0000000000000000
          hintmask 0111100110000000
          70 74 rmoveto
          -19 callgsubr
          vhcurveto
          1 31 21 -70 callgsubr
          4 -73 callgsubr
          10 -1 24 hhcurveto
          80 28 -45 callsubr
          -32 31 -94 hvcurveto
          -38 916 hlineto
          hintmask 1011110110000000
          247 86 121 152 111 100 -58 -89 -46 -22 -38 -53 -49 vhcurveto
          -103 -95 -18 -32 -58 vvcurveto
          hintmask 1011101110000000
          -62 48 -73 137 -99 vhcurveto
          198 -143 55 -88 -149 vvcurveto
          -102 -48 -110 -102 -59 -49 29 65 46 -19 25 -57 -39 -62 -43 -76 vhcurveto
          hintmask 0111110110000000
          -95 86 -109 186 191 145 153 243 vhcurveto
          hintmask 0111100110000000
          180 -64 123 -231 158 vhcurveto
          -127 87 -20 26 22 vvcurveto
          20 9 12 44 37 vhcurveto
          99 83 37 85 82 vvcurveto
          162 -130 136 -231 -264 -160 -218 -293 vhcurveto
          -65 vlineto
          1 -29 -33 1 -21 hhcurveto
          -31 callgsubr
          26 31 1 2 26 hvcurveto
          -718 -87 vlineto
          15 callsubr
        </CharString>
        <CharString name="grave">
          -895 1200 381 hstem
          -17 395 vstem
          328 1200 rmoveto
          31 19 23 31 14 -7 25 -28 25 hvcurveto
          -42 37 -64 84 -40 61 rrcurveto
          60 -41 -30 21 -46 hhcurveto
          -59 -38 -37 -51 -44 27 -41 50 -33 hvcurveto
          100 -66 40 -27 52 -46 rrcurveto
          -29 33 18 -7 25 hhcurveto
          endchar
        </CharString>
        <CharString name="grave.cap">
          -11 callsubr
          408 1639 rmoveto
          31 19 23 31 14 -7 25 -28 25 hvcurveto
          -42 37 -64 84 -40 61 rrcurveto
          60 -41 -30 21 -46 hhcurveto
          -59 -38 -37 -51 -44 27 -41 50 -33 hvcurveto
          100 -66 40 -27 52 -46 rrcurveto
          -29 33 18 -7 25 hhcurveto
          endchar
        </CharString>
        <CharString name="greater">
          -423 166 1026 hstem
          138 798 vstem
          832 538 rmoveto
          -43 callgsubr
          254 -138 139 -80 -139 -81 -254 -138 -123 4 callgsubr
          44 29 25 47 38 vhcurveto
          8 callgsubr
          endchar
        </CharString>
        <CharString name="greaterequal">
          12 callsubr
          225 319 rmoveto
          44 29 25 47 38 hvcurveto
          8 callgsubr
          -43 callgsubr
          253 -138 140 -80 -140 -81 -254 -138 -122 4 callgsubr
          vhcurveto
          -166 -234 rmoveto
          -51 39 -30 85 vhcurveto
          653 hlineto
          97 30 33 48 47 -39 34 -88 hvcurveto
          -653 hlineto
          -75 -49 -29 -52 hvcurveto
          endchar
        </CharString>
        <CharString name="guillemotleft">
          -9 callgsubr
          283 437 rmoveto
          -77 callsubr
          hintmask 10100000
          450 hmoveto
          -77 callsubr
          endchar
        </CharString>
        <CharString name="guillemotright">
          -9 callgsubr
          626 437 rmoveto
          -75 callsubr
          59 83 70 81 90 85 rrcurveto
          450 hmoveto
          -75 callsubr
          hintmask 10100000
          59 83 70 81 90 85 rrcurveto
          endchar
        </CharString>
        <CharString name="guilsinglleft">
          1 callsubr
          253 437 rmoveto
          -77 callsubr
          endchar
        </CharString>
        <CharString name="guilsinglright">
          1 callsubr
          596 437 rmoveto
          -75 callsubr
          59 83 70 81 90 85 rrcurveto
          endchar
        </CharString>
        <CharString name="h">
          -2 callsubr
          528 175 vstem
          76 -63 callgsubr
          -67 428 hlineto
          172 44 142 125 138 hhcurveto
          129 75 -53 -204 hvcurveto
          -468 -87 vlineto
          -46 callgsubr
          -10 callsubr
          28 28 1 2 32 hvcurveto
          1 31 22 -70 callgsubr
          24 -30 callsubr
          33 -4 callsubr
          533 hlineto
          203 -94 149 -254 -168 -133 -106 -107 -54 vhcurveto
          675 vlineto
          -66 callgsubr
          -1202 -90 -58 callgsubr
          endchar
        </CharString>
        <CharString name="hbar">
          -44 callsubr
          113 132 hstem
          16 callsubr
          528 175 vstem
          76 -63 callgsubr
          -67 428 hlineto
          172 44 142 125 138 hhcurveto
          129 75 -53 -204 hvcurveto
          -468 -87 vlineto
          -46 callgsubr
          -10 callsubr
          28 28 1 2 32 hvcurveto
          1 31 22 -70 callgsubr
          24 -30 callsubr
          33 -4 callsubr
          533 hlineto
          203 -94 149 -254 -168 -133 -106 -107 -54 vhcurveto
          326 294 vlineto
          72 32 20 46 40 -34 26 -70 hvcurveto
          -294 217 hlineto
          -66 callgsubr
          -72 -76 vlineto
          -81 -26 -22 -44 -42 22 -24 85 hvcurveto
          76 -998 -90 hlineto
          -51 callsubr
          endchar
        </CharString>
        <CharString name="hcircumflex">
          -44 callsubr
          175 -41 callgsubr
          16 callsubr
          68 644 -184 175 hintmask 11010100
          76 -63 callgsubr
          -67 428 hlineto
          172 44 142 125 138 hhcurveto
          129 75 -53 -204 hvcurveto
          -468 -87 vlineto
          -46 callgsubr
          -10 callsubr
          28 28 1 2 32 hvcurveto
          1 31 22 -70 callgsubr
          24 -30 callsubr
          33 -4 callsubr
          533 hlineto
          203 -94 149 -254 -168 -133 -106 -107 -54 vhcurveto
          675 vlineto
          -66 callgsubr
          -1202 -90 -58 callgsubr
          hintmask 00101000
          512 1136 -106 callgsubr
        </CharString>
        <CharString name="hungarumlaut">
          -764 1095 401 hstem
          483 1095 -93 callgsubr
        </CharString>
        <CharString name="hungarumlaut.cap">
          -764 1619 401 hstem
          493 1619 -93 callgsubr
        </CharString>
        <CharString name="hyphen">
          -423 577 167 hstem
          224 574 vstem
          321 571 rmoveto
          27 28 1 2 34 hvcurveto
          1 29 24 2 48 hhcurveto
          48 24 -2 -1 29 hvcurveto
          -7 callgsubr
          -39 callgsubr
          -2 -29 -24 -2 -48 hhcurveto
          -48 -24 2 2 -29 hvcurveto
          -30 callgsubr
          -41 -47 -48 39 -40 58 hvcurveto
          endchar
        </CharString>
        <CharString name="i">
          -15 callsubr
          hstemhm
          253 259 -210 173 hintmask 00000000
          hintmask 10100000
          385 1252 rmoveto
          -96 callsubr
          -273 -1178 rmoveto
          -48 38 -26 -78 callsubr
          23 2 47 hhcurveto
          45 26 -18 callgsubr
          20 -38 callsubr
          78 29 -45 callsubr
          -34 31 -92 hvcurveto
          -61 callsubr
          hintmask 11000000
          -84 callsubr
          endchar
        </CharString>
        <CharString name="iacute">
          -15 callsubr
          1020 -41 callgsubr
          162 395 -255 173 hintmask 10010000
          112 -63 callgsubr
          -79 797 hlineto
          -75 callgsubr
          -78 vlineto
          -68 -44 -28 -48 hvcurveto
          hintmask 01100000
          100 1096 -105 callgsubr
        </CharString>
        <CharString name="ibreve">
          -15 callsubr
          hstem
          302 173 vstem
          112 -63 callgsubr
          -79 797 hlineto
          -75 callgsubr
          -78 vlineto
          -68 -44 -28 -48 hvcurveto
          267 1172 -92 callgsubr
        </CharString>
        <CharString name="icircumflex">
          -15 callsubr
          1030 -41 callgsubr
          32 644 -374 173 hintmask 10010000
          112 -63 callgsubr
          -79 797 hlineto
          -75 callgsubr
          -78 vlineto
          -68 -44 -28 -48 hvcurveto
          hintmask 01100000
          -11 1106 -106 callgsubr
        </CharString>
        <CharString name="idieresis">
          -15 callsubr
          hstemhm
          302 173 vstemhm
          112 -63 callgsubr
          -79 797 hlineto
          -75 callgsubr
          -78 vlineto
          -68 -44 -28 -48 hvcurveto
          456 1106 rmoveto
          -96 callsubr
          -420 hmoveto
          -96 callsubr
          endchar
        </CharString>
        <CharString name="igrave">
          -15 callsubr
          1020 -41 callgsubr
          111 395 -204 173 hintmask 10010000
          112 -63 callgsubr
          -79 797 hlineto
          -75 callgsubr
          -78 vlineto
          -68 -44 -28 -48 hvcurveto
          hintmask 01100000
          344 1096 rmoveto
          31 19 23 31 14 -7 25 -28 25 hvcurveto
          -42 37 -64 84 -40 61 rrcurveto
          60 -41 -30 21 -46 hhcurveto
          -59 -38 -37 -51 -44 27 -41 50 -33 hvcurveto
          100 -66 40 -27 52 -46 rrcurveto
          -29 33 18 -7 25 hhcurveto
          endchar
        </CharString>
        <CharString name="ij">
          -81 -506 152 354 150 1094 242 hstemhm
          253 259 -210 173 472 260 hintmask 00000000
          hintmask 01001000
          385 1252 rmoveto
          -96 callsubr
          -273 -1178 rmoveto
          -48 38 -26 -78 callsubr
          23 2 47 hhcurveto
          45 26 -18 callgsubr
          20 -38 callsubr
          78 29 -45 callsubr
          -34 31 -92 hvcurveto
          -61 callsubr
          hintmask 01010000
          -84 callsubr
          hintmask 00000000
          969 1170 -14 callsubr
          hintmask 10100100
          -350 -1340 -87 callsubr
          endchar
        </CharString>
        <CharString name="imacron">
          -15 callsubr
          1110 162 hstemhm
          35 704 -437 173 hintmask 10010000
          112 -63 callgsubr
          -79 797 hlineto
          -75 callgsubr
          -78 vlineto
          -68 -44 -28 -48 hvcurveto
          hintmask 01100000
          50 1186 rmoveto
          453 hlineto
          -81 callgsubr
          -453 hlineto
          -78 callgsubr
          endchar
        </CharString>
        <CharString name="infinity">
          432 232 155 513 144 hstem
          226 159 1107 159 vstem
          588 232 rmoveto
          131 116 52 121 83 hvcurveto
          -109 72 118 -64 143 hhcurveto
          200 200 167 238 237 -150 170 -217 -148 -107 -43 -131 -84 hvcurveto
          81 -58 -102 93 -159 hhcurveto
          -200 -200 -167 -231 -269 188 -145 174 hvcurveto
          400 314 rmoveto
          12 38 rlineto
          230 72 87 86 103 hhcurveto
          143 87 -110 -149 -168 -136 -86 -107 -106 -87 58 101 -68 hvcurveto
          -395 -160 rmoveto
          -70 -138 88 173 124 102 117 139 92 77 -45 -113 82 hvcurveto
          -6 -16 -6 -15 -5 -17 rrcurveto
          -238 -85 -68 -58 -114 hhcurveto
          endchar
        </CharString>
        <CharString name="integral">
          109 -291 169 -169 407 1263 466 -171 171 hstemhm
          271 193 211 171 248 189 hintmask 10011110
          271 -5 rmoveto
          -139 103 -147 189 103 89 48 103 44 vhcurveto
          35 82 10 89 2 88 rrcurveto
          8 447 15 427 447 vvcurveto
          129 30 105 89 64 36 -88 -82 6 vhcurveto
          hintmask 10101110
          -63 4 14 -62 76 hhcurveto
          87 8 61 70 165 -94 170 -191 -239 -69 -178 -207 -3 hvcurveto
          -23 -1341 rlineto
          -149 -3 -37 -92 -72 hhcurveto
          -61 -27 73 40 hvcurveto
          hintmask 01101110
          71 -10 54 -82 -64 -37 -32 -89 vhcurveto
          endchar
        </CharString>
        <CharString name="iogonek">
          -763 -49 callsubr
          249 150 893 -20 229 242 hstemhm
          100 375 -298 180 -104 259 -210 173 -173 369 hintmask 1011100100000000
          385 1252 rmoveto
          -96 callsubr
          -273 -1178 rmoveto
          -48 38 -26 59 24 27 0 2 31 vhcurveto
          hintmask 0111101000000000
          -85 -93 -29 -78 -87 -9 callsubr
          hintmask 0111100001000000
          -28 callgsubr
          hintmask 1011101000000000
          -47 callsubr
          -29 41 52 60 2 89 100 111 hvcurveto
          -1 13 11 -1 12 hhcurveto
          -2 33 20 -38 callsubr
          78 29 -45 callsubr
          -34 31 -92 hvcurveto
          hintmask 1011110000000000
          -61 callsubr
          5 17 13 4 11 hhcurveto
          hintmask 1011100010000000
          -71 callgsubr
          -78 -58 callgsubr
          endchar
        </CharString>
        <CharString name="itilde">
          -15 callsubr
          1030 -13 callsubr
          20 733 -451 173 hintmask 10001000
          112 -63 callgsubr
          -79 797 hlineto
          -75 callgsubr
          -78 vlineto
          -68 -44 -28 -48 hvcurveto
          hintmask 00000000
          -19 1126 rmoveto
          hintmask 01010000
          -88 callgsubr
          hvcurveto
          hintmask 01110000
          -89 callgsubr
        </CharString>
        <CharString name="j">
          -763 -506 152 1598 242 hstemhm
          -72 175 162 260 -188 184 hintmask 00000000
          hintmask 11010000
          399 1244 -14 callsubr
          hintmask 10101000
          -350 -1340 -87 callsubr
          endchar
        </CharString>
        <CharString name="jcircumflex">
          -763 -506 152 1534 -41 callgsubr
          -72 175 -77 644 -333 184 hintmask 10101000
          49 -96 -87 callsubr
          hintmask 01010000
          46 1276 -106 callgsubr
        </CharString>
        <CharString name="k">
          -1 callgsubr
          hstem
          278 176 vstem
          -90 callgsubr
          949 -67 callgsubr
          -1202 -86 vlineto
          15 callsubr
        </CharString>
        <CharString name="kcommaaccent">
          -1 callgsubr
          hstemhm
          278 176 vstemhm
          -90 callgsubr
          949 -67 callgsubr
          -1202 -86 vlineto
          -46 callgsubr
          hvcurveto
          524 -303 -97 callgsubr
        </CharString>
        <CharString name="kgreenlandic">
          -1 callgsubr
          hstem
          278 176 vstem
          -90 callgsubr
          398 -67 callgsubr
          -651 -86 vlineto
          15 callsubr
        </CharString>
        <CharString name="l">
          11 callgsubr
          hstem
          177 174 vstem
          -86 callsubr
          endchar
        </CharString>
        <CharString name="lacute">
          11 callgsubr
          -159 229 1806 -20 hstemhm
          -25 376 -174 488 hintmask 01101000
          156 1639 rmoveto
          25 18 7 29 33 hvcurveto
          52 46 40 27 100 66 rrcurveto
          50 33 27 41 44 vvcurveto
          51 -38 37 -59 -46 -30 -21 -60 -41 vhcurveto
          -40 -61 -64 -84 -42 -37 rrcurveto
          -28 -25 -7 -25 -14 vvcurveto
          -31 19 -23 31 vhcurveto
          21 -1368 rmoveto
          -198 108 -88 134 138 108 81 72 48 -19 28 -46 -36 -17 -15 -20 -23 vhcurveto
          hintmask 10110000
          -26 -30 -18 -9 -38 hhcurveto
          -67 -20 57 184 hvcurveto
          1043 -41 callsubr
          hintmask 10101000
          -17 callgsubr
          endchar
        </CharString>
        <CharString name="lcaron">
          11 callgsubr
          914 536 hstemhm
          177 174 105 286 hintmask 10100000
          -86 callsubr
          hintmask 01010000
          424 241 -49 callgsubr
          endchar
        </CharString>
        <CharString name="lcommaaccent">
          11 callgsubr
          hstemhm
          177 174 vstemhm
          -86 callsubr
          49 -1582 -97 callgsubr
        </CharString>
        <CharString name="ldot">
          -592 -15 159 585 287 hstemhm
          177 174 176 290 hintmask 10100000
          -86 callsubr
          hintmask 01010000
          350 -480 rmoveto
          -16 callsubr
        </CharString>
        <CharString name="less">
          -423 166 1026 hstem
          86 798 vstem
          190 538 -68 callsubr
          endchar
        </CharString>
        <CharString name="lessequal">
          12 callsubr
          190 691 -68 callsubr
          -131 -606 -26 callgsubr
        </CharString>
        <CharString name="logicalnot">
          9 callsubr
          887 166 vstem
          265 529 rmoveto
          622 -191 hlineto
          -83 31 -44 52 52 31 33 94 vhcurveto
          -1 238 rlineto
          79 -39 36 -95 vhcurveto
          -653 hlineto
          -94 -33 -37 -44 -55 38 -26 89 hvcurveto
          endchar
        </CharString>
        <CharString name="lozenge">
          266 -86 -21 1573 -20 hstem
          266 527 rmoveto
          232 -236 224 -243 75 -85 rrcurveto
          -40 13 31 -30 40 hhcurveto
          46 30 38 72 40 hvcurveto
          27 50 184 219 268 270 rrcurveto
          67 68 23 24 49 vvcurveto
          27 -15 22 -95 97 vhcurveto
          -244 248 -206 243 -57 71 rrcurveto
          43 -12 -32 32 -41 hhcurveto
          -46 -30 -38 -70 -39 hvcurveto
          -27 -50 -190 -214 -266 -270 rrcurveto
          -104 -105 -9 3 -49 vvcurveto
          -28 26 -30 87 -88 vhcurveto
          92 132 rmoveto
          100 120 269 301 148 154 134 -140 236 -268 122 -143 -124 -147 -245 -279 -134 -139 -151 157 -257 271 -98 113 rrcurveto
          endchar
        </CharString>
        <CharString name="lslash">
          11 callgsubr
          hstem
          177 174 vstem
          177 271 rmoveto
          -198 108 -88 134 138 108 81 72 48 -19 28 -46 -36 -17 -15 -20 -23 vhcurveto
          -26 -30 -18 -9 -38 hhcurveto
          -67 -20 57 184 hvcurveto
          399 vlineto
          158 92 -12 callsubr
          -80 -46 rlineto
          556 -41 callsubr
          -17 callgsubr
          -511 vlineto
          -86 -49 2 callsubr
          32 12 31 56 vhcurveto
          endchar
        </CharString>
        <CharString name="m">
          -88 callsubr
          endchar
        </CharString>
        <CharString name="macron">
          -541 1260 162 hstem
          100 704 vstem
          227 1260 rmoveto
          453 hlineto
          -81 callgsubr
          -453 hlineto
          -78 callgsubr
          endchar
        </CharString>
        <CharString name="macron.cap">
          -925 1858 162 hstem
          85 1858 rmoveto
          373 hlineto
          -81 callgsubr
          -373 hlineto
          -78 callgsubr
          endchar
        </CharString>
        <CharString name="minus">
          9 callsubr
          271 529 rmoveto
          -24 callgsubr
        </CharString>
        <CharString name="mu">
          -82 -15 160 hstem
          212 174 477 174 vstem
          212 -80 rmoveto
          -244 28 -110 62 -65 vhcurveto
          -28 27 30 -13 45 hhcurveto
          57 44 34 59 46 -21 17 -30 18 hvcurveto
          -57 36 -20 27 -8 188 -7 157 rcurveline
          -40 54 62 -17 101 hhcurveto
          134 112 77 89 47 hvcurveto
          -110 26 73 -56 79 hhcurveto
          73 36 35 50 43 -20 21 -44 19 hvcurveto
          -44 16 -15 33 1 193 rrcurveto
          337 -33 callgsubr
          -372 vlineto
          -141 -37 -119 -76 -113 hhcurveto
          -132 -76 79 56 hvcurveto
          452 -33 callgsubr
          endchar
        </CharString>
        <CharString name="multiply">
          -423 247 723 hstem
          149 723 vstem
          226 247 rmoveto
          25 29 19 37 36 hvcurveto
          194 193 194 -193 rlineto
          -37 37 28 -19 25 hhcurveto
          48 29 31 41 28 -16 33 -37 37 hvcurveto
          -194 193 195 195 rlineto
          36 36 17 32 28 vvcurveto
          41 -32 28 -38 -30 -34 -18 -33 -33 vhcurveto
          -195 -194 -194 194 rlineto
          33 -33 -34 18 -30 hhcurveto
          -38 -32 -28 -41 -28 17 -32 36 -36 hvcurveto
          194 -194 -194 -194 rlineto
          -37 -37 -16 -33 -28 vvcurveto
          -41 29 -31 48 vhcurveto
          endchar
        </CharString>
        <CharString name="n">
          -2 callsubr
          529 175 vstem
          76 -34 callsubr
          vhcurveto
          54 41 6 95 93 39 -6 44 hhcurveto
          -72 callsubr
          -67 435 hlineto
          171 44 149 119 143 hhcurveto
          134 59 -73 -194 hvcurveto
          -458 -87 vlineto
          -46 callgsubr
          -10 callsubr
          hvcurveto
          54 41 6 95 93 39 -6 44 hhcurveto
          -72 callsubr
          -67 523 hlineto
          203 -88 159 -254 -168 -139 -94 -125 -55 vhcurveto
          131 1 callgsubr
          -46 -16 -19 -11 -115 vhcurveto
          -68 -6 -40 -34 -42 0 callsubr
          vhcurveto
          36 32 14 19 0 callgsubr
          -2 vlineto
          -87 hlineto
          15 callsubr
        </CharString>
        <CharString name="nacute">
          -44 callsubr
          135 -41 callgsubr
          16 callsubr
          119 395 15 175 hintmask 11010100
          76 -34 callsubr
          vhcurveto
          54 41 6 95 93 39 -6 44 hhcurveto
          -72 callsubr
          -67 435 hlineto
          171 44 149 119 143 hhcurveto
          134 59 -73 -194 hvcurveto
          -458 -87 vlineto
          -46 callgsubr
          -10 callsubr
          hvcurveto
          54 41 6 95 93 39 -6 44 hhcurveto
          -72 callsubr
          -67 523 hlineto
          203 -88 159 -254 -168 -139 -94 -125 -55 vhcurveto
          131 1 callgsubr
          -46 -16 -19 -11 -115 vhcurveto
          -68 -6 -40 -34 -42 0 callsubr
          vhcurveto
          36 32 14 19 0 callgsubr
          -2 vlineto
          -87 hlineto
          -46 callgsubr
          hvcurveto
          hintmask 00101000
          544 1096 -105 callgsubr
        </CharString>
        <CharString name="nbspace">
          -925 endchar
        </CharString>
        <CharString name="ncaron">
          -2 callsubr
          529 175 vstem
          76 -34 callsubr
          vhcurveto
          54 41 6 95 93 39 -6 44 hhcurveto
          -72 callsubr
          -67 435 hlineto
          171 44 149 119 143 hhcurveto
          134 59 -73 -194 hvcurveto
          -458 -87 vlineto
          -46 callgsubr
          -10 callsubr
          hvcurveto
          54 41 6 95 93 39 -6 44 hhcurveto
          -72 callsubr
          -67 523 hlineto
          203 -88 159 -254 -168 -139 -94 -125 -55 vhcurveto
          131 1 callgsubr
          -46 -16 -19 -11 -115 vhcurveto
          -68 -6 -40 -34 -42 0 callsubr
          vhcurveto
          36 32 14 19 0 callgsubr
          -2 vlineto
          -87 hlineto
          -46 callgsubr
          hvcurveto
          686 1102 -103 callgsubr
        </CharString>
        <CharString name="ncommaaccent">
          -44 callsubr
          hstemhm
          16 callsubr
          529 175 vstemhm
          76 -34 callsubr
          vhcurveto
          54 41 6 95 93 39 -6 44 hhcurveto
          -72 callsubr
          -67 435 hlineto
          171 44 149 119 143 hhcurveto
          134 59 -73 -194 hvcurveto
          -458 -87 vlineto
          -46 callgsubr
          -10 callsubr
          hvcurveto
          54 41 6 95 93 39 -6 44 hhcurveto
          -72 callsubr
          -67 523 hlineto
          203 -88 159 -254 -168 -139 -94 -125 -55 vhcurveto
          131 1 callgsubr
          -46 -16 -19 -11 -115 vhcurveto
          -68 -6 -40 -34 -42 0 callsubr
          vhcurveto
          36 32 14 19 0 callgsubr
          -2 vlineto
          -87 hlineto
          -46 callgsubr
          hvcurveto
          491 -303 -97 callgsubr
        </CharString>
        <CharString name="nine">
          259 -15 184 253 159 838 156 hstem
          184 177 973 185 vstem
          476 92 rmoveto
          -55 49 -52 151 419 424 384 479 449 -298 278 -394 -364 -279 -259 -318 -331 241 -245 341 215 208 146 135 44 -23 30 -48 -33 -20 -16 -57 -37 vhcurveto
          -78 -52 -123 -45 -87 hhcurveto
          -220 -185 155 245 248 211 190 233 301 228 -208 -376 -378 -312 -280 -250 -8 hvcurveto
          -27 -1 -30 2 -37 6 rrcurveto
          4 -29 -27 7 -29 hhcurveto
          -70 -47 -39 -56 hvcurveto
          endchar
        </CharString>
        <CharString name="notequal">
          -249 82 426 -162 162 197 162 -162 448 hstemhm
          hintmask 10100000
          299 181 rmoveto
          -62 42 -37 65 53 41 41 100 41 vhcurveto
          hintmask 01100000
          51 123 rlineto
          334 hlineto
          -81 callgsubr
          -266 hlineto
          82 197 rlineto
          184 hlineto
          -81 callgsubr
          -117 hlineto
          57 140 11 30 22 vvcurveto
          hintmask 10010000
          53 -49 41 -51 -65 -41 -37 -116 -40 vhcurveto
          hintmask 10100000
          -46 -133 rlineto
          -312 hlineto
          -78 callgsubr
          253 hlineto
          -29 -75 -26 -65 -25 -57 rrcurveto
          -173 hlineto
          -88 -39 -34 -47 hvcurveto
          hintmask 01100000
          -48 30 -33 97 vhcurveto
          96 hlineto
          -6 -12 rlineto
          -49 -91 -15 -30 -32 vvcurveto
          endchar
        </CharString>
        <CharString name="ntilde">
          -44 callsubr
          145 -13 callsubr
          16 callsubr
          -54 733 -150 175 hintmask 11001010
          76 -34 callsubr
          vhcurveto
          54 41 6 95 93 39 -6 44 hhcurveto
          -72 callsubr
          -67 435 hlineto
          171 44 149 119 143 hhcurveto
          134 59 -73 -194 hvcurveto
          -458 -87 vlineto
          -46 callgsubr
          -10 callsubr
          hvcurveto
          54 41 6 95 93 39 -6 44 hhcurveto
          -72 callsubr
          -67 523 hlineto
          203 -88 159 -254 -168 -139 -94 -125 -55 vhcurveto
          131 1 callgsubr
          -46 -16 -19 -11 -115 vhcurveto
          -68 -6 -40 -34 -42 0 callsubr
          vhcurveto
          36 32 14 19 0 callgsubr
          -2 vlineto
          -87 hlineto
          -46 callgsubr
          hvcurveto
          hintmask 00000000
          394 1126 rmoveto
          hintmask 00100100
          -88 callgsubr
          hvcurveto
          hintmask 00110100
          -89 callgsubr
        </CharString>
        <CharString name="numbersign">
          91 507 181 -167 153 194 181 -167 153 hstemhm
          80 1274 hintmask 00000000
          hintmask 01011000
          186 73 rmoveto
          14 callgsubr
          45 200 18 71 17 64 17 62 rcurveline
          34 43 1 59 hhcurveto
          hintmask 10101000
          52 52 -1 -1 52 hvcurveto
          -14 -54 -3 callsubr
          14 callgsubr
          41 182 16 69 23 84 15 56 rcurveline
          58 -2 callgsubr
          47 -39 35 -111 -46 -34 -3 -2 -29 hvcurveto
          52 192 60 -2 callgsubr
          hvcurveto
          hintmask 01011000
          47 -39 35 -111 -47 -34 -3 -2 -30 vhcurveto
          35 127 21 75 23 71 24 73 rlinecurve
          17 52 8 31 28 vvcurveto
          55 -30 38 -55 -60 -38 -43 -110 -21 vhcurveto
          -17 -88 -21 -86 -17 -64 -44 -167 rcurveline
          hintmask 10101000
          -1 -35 -42 0 -50 hhcurveto
          -160 hlineto
          37 136 13 46 22 70 33 103 rlinecurve
          17 52 8 31 28 vvcurveto
          55 -30 38 -55 -60 -37 -43 -110 -22 vhcurveto
          -16 -80 -20 -86 -19 -72 -42 -161 rcurveline
          -4 -4 0 1 -4 hvcurveto
          -6 callsubr
          39 30 1 2 29 hvcurveto
          -50 -192 -17 2 rlineto
          -6 callsubr
          hvcurveto
          hintmask 01011000
          41 32 1 2 31 hvcurveto
          -12 -46 -3 callsubr
          347 601 rmoveto
          56 207 rlineto
          35 43 1 60 hhcurveto
          50 51 0 -1 50 hvcurveto
          -54 -206 rlineto
          -1 -37 -43 0 -53 hhcurveto
          endchar
        </CharString>
        <CharString name="o">
          -70 callsubr
          hstem
          92 174 660 175 vstem
          -98 callsubr
          endchar
        </CharString>
        <CharString name="oacute">
          -70 callsubr
          135 -41 callgsubr
          92 174 144 395 121 175 hintmask 11010100
          -98 callsubr
          hintmask 00101000
          194 643 -105 callgsubr
        </CharString>
        <CharString name="obreve">
          -70 callsubr
          hstem
          92 174 660 175 vstem
          -98 callsubr
          330 719 -92 callgsubr
        </CharString>
        <CharString name="ocircumflex">
          -70 callsubr
          145 -41 callgsubr
          92 174 14 644 2 175 hintmask 11010100
          -98 callsubr
          hintmask 00101000
          83 653 -106 callgsubr
        </CharString>
        <CharString name="odieresis">
          -70 callsubr
          hstemhm
          92 174 660 175 vstemhm
          -98 callsubr
          550 653 rmoveto
          -96 callsubr
          -420 hmoveto
          -96 callsubr
          endchar
        </CharString>
        <CharString name="oe">
          602 -66 callsubr
          hstem
          136 174 1427 174 vstem
          136 499 rmoveto
          -290 185 -224 317 179 150 86 135 90 vhcurveto
          -145 97 165 -76 171 -24 callsubr
          -156 -169 85 225 -28 hvcurveto
          139 -5 104 -2 81 2 rrcurveto
          305 9 134 71 201 vvcurveto
          150 -147 156 -266 -186 -154 -87 -131 -92 vhcurveto
          141 -87 -151 77 -183 hhcurveto
          -290 -219 -226 -310 hvcurveto
          1016 105 rmoveto
          165 36 140 108 165 hhcurveto
          148 96 -79 -73 -81 -44 -37 -217 -4 hvcurveto
          -146 -3 -86 1 -92 3 rrcurveto
          -842 -77 rmoveto
          199 124 151 199 222 114 -151 -227 -220 -132 -136 -194 -183 -150 136 248 vhcurveto
          endchar
        </CharString>
        <CharString name="ogonek">
          -596 -49 callsubr
          310 -20 hstemhm
          137 494 hintmask 01110000
          137 -266 rmoveto
          -144 111 -59 callsubr
          hintmask 10110000
          -47 callsubr
          -19 42 52 116 180 100 90 38 hvcurveto
          -155 61 rlineto
          -155 -61 -140 -129 -137 vvcurveto
          endchar
        </CharString>
        <CharString name="ograve">
          -70 callsubr
          135 -41 callgsubr
          92 174 93 395 172 175 hintmask 11010100
          -98 callsubr
          hintmask 00101000
          438 643 rmoveto
          31 19 23 31 14 -7 25 -28 25 hvcurveto
          -42 37 -64 84 -40 61 rrcurveto
          60 -41 -30 21 -46 hhcurveto
          -59 -38 -37 -51 -44 27 -41 50 -33 hvcurveto
          100 -66 40 -27 52 -46 rrcurveto
          -29 33 18 -7 25 hhcurveto
          endchar
        </CharString>
        <CharString name="ohungarumlaut">
          -70 callsubr
          hstem
          92 174 660 175 vstem
          -98 callsubr
          479 728 -93 callgsubr
        </CharString>
        <CharString name="omacron">
          -70 callsubr
          225 162 hstemhm
          92 174 -14 704 -30 175 hintmask 11010100
          -98 callsubr
          hintmask 00101000
          113 733 rmoveto
          453 hlineto
          -81 callgsubr
          -453 hlineto
          -78 callgsubr
          endchar
        </CharString>
        <CharString name="one">
          -425 0 161 hstem
          509 186 vstem
          155 79 rmoveto
          -48 37 -31 59 27 120 1 2 32 vhcurveto
          1 31 89 -70 callgsubr
          62 -18 callgsubr
          99 -1 26 hhcurveto
          78 30 39 37 48 -34 37 -94 hvcurveto
          -176 1292 hlineto
          72 -34 50 -66 -55 -35 -37 -61 -53 vhcurveto
          -77 -91 -107 -106 -95 -66 rrcurveto
          -59 -45 -28 -38 -50 vvcurveto
          -50 28 -39 58 39 43 23 79 64 vhcurveto
          58 76 43 46 90 79 rrcurveto
          -1134 -241 vlineto
          -69 -44 -34 -48 hvcurveto
          endchar
        </CharString>
        <CharString name="onehalf">
          773 -15 140 -125 1575 -918 135 2 128 hstemhm
          348 159 -158 1387 -404 153 372 160 hintmask 01000100
          349 -54 callgsubr
          -65 callsubr
          hintmask 00101000
          -111 578 -83 callsubr
          hintmask 10010011
          1119 -672 -77 callgsubr
        </CharString>
        <CharString name="onequarter">
          776 8 callsubr
          253 135 hstemhm
          411 159 1103 160 hintmask 00000000
          hintmask 10100100
          378 -54 callgsubr
          hintmask 11000100
          -65 callsubr
          840 261 rmoveto
          -50 39 -18 60 vhcurveto
          356 -137 hlineto
          hintmask 10100100
          -74 callsubr
          hintmask 00011000
          -1107 258 -83 callsubr
          endchar
        </CharString>
        <CharString name="onesuperior">
          -590 657 135 hstem
          392 159 vstem
          282 657 -83 callsubr
          endchar
        </CharString>
        <CharString name="ordfeminine">
          -249 693 150 232 132 238 149 hstem
          166 175 432 167 vstem
          503 693 rmoveto
          120 114 44 66 58 hvcurveto
          -74 28 49 -36 58 hhcurveto
          62 38 28 42 27 -12 20 -30 20 hvcurveto
          -36 24 -12 32 158 vvcurveto
          223 vlineto
          225 -154 102 -215 -211 -139 -105 -94 -39 17 -40 67 43 33 26 40 25 vhcurveto
          41 25 19 22 116 hhcurveto
          141 66 -66 -104 hvcurveto
          -93 vlineto
          18 -77 -77 7 -76 hhcurveto
          -255 -122 -106 -160 -151 114 -97 223 hvcurveto
          2 150 rmoveto
          -97 -67 43 60 70 75 59 123 81 78 -10 -15 75 hvcurveto
          -100 vlineto
          -67 -65 -99 -40 -104 hhcurveto
          endchar
        </CharString>
        <CharString name="ordmasculine">
          -249 693 148 606 147 hstem
          165 159 545 162 vstem
          595 693 rmoveto
          251 185 194 255 287 -181 165 -248 -249 -188 -194 -267 -248 158 -192 272 hvcurveto
          4 148 rmoveto
          -150 -125 112 205 164 102 125 165 183 95 -125 -188 -181 -109 -112 -161 hvcurveto
          endchar
        </CharString>
        <CharString name="oslash">
          -70 callsubr
          hstem
          92 174 660 175 vstem
          171 -36 rmoveto
          -45 -68 -12 -22 3 callgsubr
          111 175 rlineto
          -29 65 75 -16 85 hhcurveto
          292 215 227 298 182 -63 139 -104 90 hvcurveto
          70 110 rlineto
          67 107 5 10 32 vvcurveto
          28 -25 20 -30 -39 -29 -27 -58 -37 vhcurveto
          -96 -151 rlineto
          28 -65 -74 15 -80 hhcurveto
          -290 -219 -226 -310 -163 58 -142 107 -93 hvcurveto
          97 152 rmoveto
          -55 65 -33 92 117 vvcurveto
          199 124 151 199 54 48 -9 -17 41 vhcurveto
          -273 -678 rmoveto
          381 600 rlineto
          57 -66 29 -94 -114 vvcurveto
          -220 -133 -136 -194 -50 -47 10 20 -43 vhcurveto
          endchar
        </CharString>
        <CharString name="otilde">
          -70 callsubr
          145 -13 callsubr
          92 174 -29 733 -44 175 hintmask 11001010
          -98 callsubr
          hintmask 00000000
          44 673 rmoveto
          hintmask 00100100
          -88 callgsubr
          hvcurveto
          hintmask 00110100
          -89 callgsubr
        </CharString>
        <CharString name="p">
          -15 158 736 156 hstem
          204 173 604 174 vstem
          204 -224 rmoveto
          -200 76 -99 100 74 26 38 50 29 -12 21 -36 22 vhcurveto
          -44 29 -11 60 134 vvcurveto
          199 vlineto
          -47 62 107 -27 82 hhcurveto
          316 211 239 295 357 -215 159 -259 -120 -113 -51 -81 -71 hvcurveto
          36 vlineto
          -36 callsubr
          -71 -24 -23 -7 -8 -30 vhcurveto
          -20 -5 -36 -7 -44 -4 rrcurveto
          -69 -6 -40 -32 -44 vvcurveto
          -54 37 -28 53 10 callgsubr
          16 13 3 10 hhcurveto
          17 10 -7 -51 hvcurveto
          173 -554 rmoveto
          483 vlineto
          105 74 100 51 118 hhcurveto
          183 129 -109 -262 -187 -134 -178 -198 -104 -95 27 70 -73 hvcurveto
          endchar
        </CharString>
        <CharString name="paragraph">
          262 1414 161 hstem
          710 173 305 173 vstem
          696 -84 rmoveto
          -96 36 -44 64 68 32 41 87 -4 callgsubr
          305 -1106 -5 callgsubr
          -95 40 -45 65 57 38 49 79 -4 callgsubr
          66 12 callgsubr
          -10 -1 -2 -32 hvcurveto
          -2 -29 -34 -2 -45 hhcurveto
          -53 -95 1 2 -97 hvcurveto
          2 -111 -102 2 -54 hhcurveto
          -421 -248 -156 -282 -244 205 -233 415 -9 hvcurveto
          -343 -5 callgsubr
          endchar
        </CharString>
        <CharString name="parenleft">
          -589 -224 1799 hstem
          150 183 vstem
          468 -104 rmoveto
          -78 84 80 -42 72 hhcurveto
          50 34 33 39 44 -19 27 -57 28 hvcurveto
          -227 111 -152 252 366 vvcurveto
          371 146 243 233 114 vhcurveto
          62 30 14 26 44 vvcurveto
          38 -34 33 -50 -72 -80 -42 -78 -84 vhcurveto
          -204 -189 -114 -247 -343 vvcurveto
          -343 114 -248 204 -189 vhcurveto
          endchar
        </CharString>
        <CharString name="parenright">
          -589 -224 1799 hstem
          523 183 vstem
          388 -104 rmoveto
          204 189 114 248 343 vvcurveto
          343 -114 247 -204 189 vhcurveto
          78 -84 -80 42 -72 hhcurveto
          -50 -34 -33 -38 -44 14 -26 62 -30 hvcurveto
          233 -114 146 -243 -371 vvcurveto
          -366 -152 -252 -227 -111 vhcurveto
          -57 -28 -19 -27 -44 vvcurveto
          -39 34 -33 50 72 80 42 78 84 vhcurveto
          endchar
        </CharString>
        <CharString name="partialdiff">
          95 -38 160 751 168 488 157 hstem
          289 180 604 178 vstem
          289 373 rmoveto
          -194 113 -217 241 480 128 701 331 285 -134 407 -346 -212 -175 -183 -145 -27 vhcurveto
          -12 -63 35 -60 53 6 55 6 27 38 24 67 rrcurveto
          101 37 67 76 124 hhcurveto
          191 115 -192 -336 -24 -1 -31 -2 -34 hvcurveto
          76 -66 -91 53 -97 hhcurveto
          -318 -209 -372 -296 hvcurveto
          180 7 rmoveto
          182 117 311 213 109 93 -72 -120 41 vhcurveto
          -261 -46 -110 -298 -236 hhcurveto
          -148 -33 161 97 hvcurveto
          endchar
        </CharString>
        <CharString name="percent">
          262 0 5 callsubr
          381 5 callsubr
          hstem
          165 161 308 158 123 -76 callgsubr
          433 -826 rmoveto
          -55 callgsubr
          161 8 rmoveto
          -42 callgsubr
          -85 -71 69 91 vhcurveto
          endchar
        </CharString>
        <CharString name="period">
          -933 -15 9 callgsubr
          vstem
          111 129 rmoveto
          -16 callsubr
        </CharString>
        <CharString name="periodcentered">
          -933 517 9 callgsubr
          vstem
          111 661 rmoveto
          -16 callsubr
        </CharString>
        <CharString name="perthousand">
          943 0 5 callsubr
          381 5 callsubr
          hstem
          165 161 308 158 123 161 308 158 158 -76 callgsubr
          1218 -826 rmoveto
          -55 callgsubr
          -785 hmoveto
          -55 callgsubr
          946 8 rmoveto
          -42 callgsubr
          -85 -71 69 91 vhcurveto
          -785 hmoveto
          -42 callgsubr
          -85 -71 69 91 vhcurveto
          endchar
        </CharString>
        <CharString name="pi">
          435 -20 -21 945 266 hstemhm
          1136 184 -184 357 hintmask 11010000
          502 53 rmoveto
          -58 1 27 -27 48 hhcurveto
          60 38 21 144 22 hvcurveto
          137 881 226 -3 170 -3 -84 -647 rlineto
          -6 -43 -5 -130 -12 vvcurveto
          -138 3 80 -79 162 hhcurveto
          46 66 14 59 48 -46 22 -50 6 hvcurveto
          hintmask 11100000
          -62 7 -15 46 57 vvcurveto
          39 68 561 27 189 vhcurveto
          30 hlineto
          118 142 6 91 43 -31 23 -62 -33 -24 -4 -4 -27 hvcurveto
          -4 -27 -30 -3 -47 hhcurveto
          -90 -129 2 2 -132 hvcurveto
          2 -135 -139 2 -109 hhcurveto
          -85 -240 -7 -135 -90 hvcurveto
          -10 -15 -4 -18 -13 vvcurveto
          -40 23 -31 58 92 -10 94 15 222 vhcurveto
          -121 -789 rlineto
          -15 -97 -8 -50 -24 vvcurveto
          endchar
        </CharString>
        <CharString name="plus">
          9 callsubr
          508 166 vstem
          508 260 rmoveto
          -77 26 -50 57 52 31 31 96 vhcurveto
          269 250 vlineto
          -81 callgsubr
          -250 272 13 callsubr
          -272 -237 vlineto
          -78 callgsubr
          237 hlineto
          endchar
        </CharString>
        <CharString name="plusminus">
          -341 172 162 440 162 hstem
          464 166 vstem
          547 438 rmoveto
          52 31 31 96 hvcurveto
          209 250 vlineto
          -81 callgsubr
          -250 242 13 callsubr
          -242 -237 vlineto
          -78 callgsubr
          237 -209 hlineto
          -77 26 -50 57 vhcurveto
          -447 -185 -26 callgsubr
        </CharString>
        <CharString name="product">
          269 -169 -21 1559 165 hstemhm
          143 381 -200 200 662 195 -195 364 hintmask 11101000
          324 -30 rmoveto
          -131 53 -29 47 48 52 30 118 42 -3 74 -4 67 vhcurveto
          -4 73 -2 375 98 vvcurveto
          109 3 311 5 95 vhcurveto
          2 39 6 72 45 vvcurveto
          7 vlineto
          2 91 146 2 80 hhcurveto
          91 155 -1 -3 88 hvcurveto
          -3 vlineto
          -44 5 -75 3 -40 -11 callgsubr
          -55 callsubr
          -4 73 -2 375 98 vvcurveto
          109 3 311 5 95 vhcurveto
          2 39 6 72 45 vvcurveto
          12 hlineto
          hintmask 11100100
          -13 callgsubr
          -195 -2 -97 hhcurveto
          -115 -187 -21 callgsubr
          21 hlineto
          -45 5 -71 3 -39 -11 callgsubr
          hintmask 11011000
          -4 -58 -4 -64 -59 vvcurveto
          endchar
        </CharString>
        <CharString name="q">
          -70 callsubr
          hstem
          88 175 575 173 vstem
          88 -20 callgsubr
          259 102 95 38 62 68 vhcurveto
          -511 vlineto
          -56 18 -41 71 24 24 6 8 29 vhcurveto
          21 6 35 7 45 4 rrcurveto
          69 7 39 32 43 vvcurveto
          53 -36 29 -53 -17 -15 -2 -3 -13 vhcurveto
          -5 -18 -13 -3 -11 hhcurveto
          -15 -11 8 52 hvcurveto
          905 vlineto
          184 13 38 43 29 vhcurveto
          35 22 12 21 30 vvcurveto
          50 -26 37 -74 -53 -46 -28 -55 -32 vhcurveto
          54 -61 -106 29 -90 hhcurveto
          -316 -222 -241 -282 hvcurveto
          175 9 rmoveto
          187 154 169 187 92 78 -19 -51 67 vhcurveto
          -2 -22 -1 -23 -25 vvcurveto
          -478 vlineto
          -79 -68 -84 -37 -101 hhcurveto
          -185 -137 125 253 hvcurveto
          endchar
        </CharString>
        <CharString name="question">
          -594 506 149 769 151 4 callsubr
          506 rmoveto
          -28 callgsubr
          -47 callsubr
          -29 41 52 73 21 54 137 128 hvcurveto
          132 122 42 95 98 vvcurveto
          147 -112 110 -167 -153 -119 -97 -113 -51 31 -35 45 46 21 20 51 24 vhcurveto
          55 27 24 19 54 hhcurveto
          58 36 -40 -71 -77 -41 -70 -90 -80 hvcurveto
          -149 -133 -47 -95 -111 -9 callsubr
          -144 -383 -37 callgsubr
        </CharString>
        <CharString name="questiondown">
          -594 -15 151 769 149 4 callsubr
          1054 rmoveto
          -139 -111 -97 -144 -111 47 -95 149 -133 hvcurveto
          90 -80 41 -70 -77 vvcurveto
          -71 -36 -40 -58 -54 -24 19 55 -27 vhcurveto
          51 -24 -21 20 -46 hhcurveto
          -45 -31 -35 -51 -113 119 -97 153 167 112 110 147 98 -42 95 -132 122 hvcurveto
          -137 128 -21 54 73 vvcurveto
          52 29 41 56 36 25 -11 -31 23 vhcurveto
          -44 33 16 -13 31 hhcurveto
          37 28 22 52 84 -120 90 -124 hvcurveto
          -144 383 -16 callgsubr
        </CharString>
        <CharString name="quotedbl">
          -590 971 623 hstemhm
          194 139 191 139 hintmask 11000000
          263 971 rmoveto
          -65 callgsubr
          hintmask 10100000
          330 hmoveto
          -65 callgsubr
          endchar
        </CharString>
        <CharString name="quotedblbase">
          -590 -302 -15 callgsubr
          249 234 -71 callsubr
        </CharString>
        <CharString name="quotedblleft">
          -590 1058 -15 callgsubr
          245 1058 rmoveto
          -69 callgsubr
          hintmask 10100000
          360 hmoveto
          -69 callgsubr
          endchar
        </CharString>
        <CharString name="quotedblright">
          -590 1058 -15 callgsubr
          249 1594 -71 callsubr
        </CharString>
        <CharString name="quoteleft">
          -933 1058 -1 callsubr
          254 1058 rmoveto
          -69 callgsubr
          endchar
        </CharString>
        <CharString name="quoteright">
          -933 1058 -1 callsubr
          258 1594 -49 callgsubr
          endchar
        </CharString>
        <CharString name="quotesinglbase">
          -933 -302 -1 callsubr
          258 234 -49 callgsubr
          endchar
        </CharString>
        <CharString name="quotesingle">
          -933 971 623 hstem
          187 139 vstem
          256 971 rmoveto
          -65 callgsubr
          endchar
        </CharString>
</ttFont>
